<svg xmlns="http://www.w3.org/2000/svg" width="35.095" height="35.095" viewBox="0 0 35.095 35.095"><defs><style>.a{fill:#cb8252;}.b{fill:#a56a43;}.c{fill:#603e26;}.d{fill:#805333;}</style></defs><g transform="translate(-0.023 -0.063)"><path class="a" d="M34.249,12.162a.375.375,0,0,0-.605-.175,3.63,3.63,0,0,1-4.738-.3.387.387,0,0,0-.472-.061,3.63,3.63,0,0,1-5.318-4.12.381.381,0,0,0-.23-.466A3.63,3.63,0,0,1,21.6,1.1.375.375,0,0,0,21.44.5,17.547,17.547,0,1,0,34.249,12.162Z" transform="translate(0)"/><circle class="b" cx="1.21" cy="1.21" r="1.21" transform="translate(23.001 2.445)"/><circle class="b" cx="1.21" cy="1.21" r="1.21" transform="translate(25.421 7.286)"/><circle class="b" cx="1.21" cy="1.21" r="1.21" transform="translate(30.262 7.891)"/><rect class="c" width="2.965" height="2.965" rx="1.12" transform="translate(22.712 27.251) rotate(-45)"/><rect class="c" width="2.965" height="2.965" rx="1.12" transform="translate(13.642 30.277) rotate(-45)"/><rect class="c" width="2.965" height="2.965" rx="1.12" transform="translate(9.402 21.806) rotate(-45)"/><rect class="c" width="2.965" height="2.965" rx="1.12" transform="translate(20.298 17.574) rotate(-45)"/><rect class="c" width="2.965" height="2.965" rx="1.12" transform="translate(11.222 10.314) rotate(-45)"/><g transform="translate(5.454 6.681)"><circle class="d" cx="0.605" cy="0.605" r="0.605" transform="translate(0 9.076)"/><circle class="d" cx="0.605" cy="0.605" r="0.605" transform="translate(1.815 18.757)"/><circle class="d" cx="0.605" cy="0.605" r="0.605" transform="translate(12.101 16.941)"/><circle class="d" cx="0.605" cy="0.605" r="0.605" transform="translate(15.126 22.992)"/><circle class="d" cx="0.605" cy="0.605" r="0.605" transform="translate(22.387 13.916)"/><circle class="d" cx="0.605" cy="0.605" r="0.605" transform="translate(9.076 9.681)"/><circle class="d" cx="0.605" cy="0.605" r="0.605" transform="translate(12.706 1.21)"/><circle class="d" cx="0.605" cy="0.605" r="0.605" transform="translate(3.025)"/></g></g></svg>