<?xml version="1.0" encoding="utf-8"?>
<!-- Generator: Adobe Illustrator 21.0.0, SVG Export Plug-In . SVG Version: 6.00 Build 0)  -->
<svg version="1.1" id="Layer_1" xmlns="http://www.w3.org/2000/svg" xmlns:xlink="http://www.w3.org/1999/xlink" x="0px" y="0px"
	 viewBox="0 0 226.5 283" style="enable-background:new 0 0 226.5 283;" xml:space="preserve">
<style type="text/css">
	.st0{fill:#0072CE;}
	.st1{fill:#F5F5F5;}
	.st2{fill:#F1C400;}
	.st3{fill:#B28B67;}
	.st4{fill:#191847;}
	.st5{fill:#1F28CF;}
	.st6{fill:#E4E4E4;}
	.st7{fill:#2B44FF;}
	.st8{fill:#997659;}
	.st9{fill:#2026A2;}
	.st10{fill:#2C2C2C;}
	.st11{fill:#8991DC;}
	.st12{fill-opacity:0.2;}
	.st13{fill:#303E4C;}
	.st14{fill:#DB2721;}
	.st15{fill:#FF4133;}
	.st16{fill:#EBEBEB;}
	.st17{fill:#3E417E;}
	.st18{fill:#455A64;}
	.st19{fill:#FFBE9D;}
	.st20{fill:#263238;}
	.st21{fill:#EAE9E5;}
	.st22{opacity:0.6;}
	.st23{opacity:0.6;fill:#EAE9E5;enable-background:new    ;}
	.st24{fill:#323230;}
	.st25{fill:#EF008C;}
	.st26{fill:#E0E0E0;}
	.st27{fill:#EB996E;}
	.st28{fill:#243C4B;}
	.st29{fill:#DDE3E9;}
	.st30{fill:#56CCF2;}
	.st31{opacity:0.3;fill:#43A4C4;enable-background:new    ;}
	.st32{fill:#CAC7BE;}
	.st33{opacity:0.4;fill:#98958F;enable-background:new    ;}
	.st34{opacity:0.4;}
</style>
<path class="st0" d="M11.5,0h203c5.5,0,10,4.5,10,10v89c0,5.5-4.5,10-10,10h-203c-5.5,0-10-4.5-10-10V10C1.5,4.5,6,0,11.5,0z"/>
<path class="st1" d="M6.5,65h213c2.8,0,5,2.2,5,5v181c0,2.8-2.2,5-5,5H6.5c-2.8,0-5-2.2-5-5V70C1.5,67.3,3.7,65,6.5,65z"/>
<path class="st1" d="M206.5,100.5c-17.5,8-6,7-23,8c-17.1,1.1-14.4-1-27.5-12.5c-11-9.6-28.8,4.9-34-8.5c-5.9-15.3-6.9-13.9,3.5-26
	c10.1-11.7,25.4-7.4,41-9.5c15.7-2.1,40-14.1,52-3.3c11,10.8,3.5,29.3,4.5,44.8C223.3,105.5,216.3,96,206.5,100.5z"/>
<path class="st1" d="M90.2,103.6c-2.1-15.4-6.8-35.4-0.3-45.9c6.6-10.6,16.3,5,25,6.4c7.3,1.1,21.1-14.9,27.1-7.5
	c6.9,8.4,6.1,31.8,5.5,47c-0.6,14.7-8.8,22.8-14.5,33.3c-5.7,10.6-10.1,28.6-18.1,27.1c-8.1-1.5-10-21.3-14.8-33.2
	C96.3,121.7,91.7,114.5,90.2,103.6z"/>
<path class="st1" d="M17.9,135.1C9.6,108.9-5.1,75.3,5.1,55.1c10.4-20.4,33.9,3.8,51.6,3.6c14.8-0.2,28.1-15.8,42.3-4.8
	c16.1,12.6,30.5,37.2,33.3,64c2.7,25.9-11.5,42.5-20,62.5c-8.6,20.2-12.5,53-29,52.9C66.8,233,57.8,199,44.9,179.7
	C35.1,165,23.9,153.9,17.9,135.1z"/>
<path class="st2" d="M6.5,224.5h213c2.8,0,5,2.2,5,5v23c0,2.8-2.2,5-5,5H6.5c-2.8,0-5-2.2-5-5v-23C1.5,226.8,3.7,224.5,6.5,224.5z"
	/>
<path class="st3" d="M178.8,199.4c0.7-0.8,1.1-1.8,1.1-2.9c-0.2-3.2-4.7-2.5-5.5-0.9c-0.9,1.6-0.8,5.7,0.4,6
	c0.4,0.1,1.4-0.2,2.4-0.7l-0.6,4.3h3.6L178.8,199.4z"/>
<path class="st4" d="M181.4,195.4c0.1-0.1,0.2-0.3,0.2-0.4c0.1-0.2,0.1-0.3,0.1-0.5c0.1-0.3,0.1-0.7-0.2-1c-0.2-0.2-0.5-0.3-0.7-0.3
	c-0.2,0-0.4,0-0.5,0.1c-0.2,0.1-0.3,0.2-0.5,0.2c0-0.4-0.1-0.7-0.3-1c-0.2-0.3-0.5-0.5-0.8-0.5c-0.3,0-0.7,0-0.9,0.2
	c-0.1,0-0.1,0.1-0.2,0.1c-0.1,0-0.1,0.1-0.2,0.1c-0.1,0-0.1,0-0.2-0.1c-0.1-0.1-0.1-0.1-0.2-0.2c-0.3-0.2-0.7-0.3-1.1-0.2
	c-0.2,0.1-0.3,0.2-0.4,0.3c-0.1,0.1-0.2,0.3-0.3,0.4c-0.1,0-0.1,0-0.2-0.1c-0.1-0.1-0.2-0.1-0.2-0.2c-0.1-0.1-0.2-0.1-0.4-0.2
	c-0.2,0-0.5,0-0.5,0.2c0,0.1,0,0.2,0,0.3c0,0.1,0,0.3,0,0.4c0,0.1,0,0.2,0,0.3c0,0.1,0,0.1,0,0.2c0,0.1-0.2,0-0.2,0
	c-0.1,0-0.2,0-0.3,0.1c-0.1,0-0.2,0.1-0.2,0.2c0,0.1,0,0.1,0,0.2c0,0.1,0,0.1,0,0.2c-0.1-0.1-0.6-0.2-0.7,0c0,0.1,0,0.2,0.1,0.3
	c0.1,0.1,0.1,0.2,0.2,0.4c0.2,0.2,0.4,0.4,0.6,0.6c-0.3,0.1-0.3,0.5-0.1,0.7c0.1,0.1,0.2,0.1,0.4,0.1c0,0,0.1,0,0.2,0c0,0,0,0,0.1,0
	c0.2,0,0.4,0,0.6-0.1c0.3-0.1,0.6-0.2,0.9-0.5c0.1-0.1,0.1-0.1,0.2-0.1c0.1,0,0.1,0,0.2,0c0.2,0,0.4-0.1,0.6-0.2
	c0,0.2,0.1,0.5,0.2,0.7c0.1,0.2,0.3,0.2,0.4,0.2c0.5,0.1,1.1,0,1.6,0c-0.5,0.1-1.1,0.2-1.6,0.3c-0.2,0.1-0.1,0.2,0,0.3
	c0.2,0.2,0.3,0.4,0.4,0.6c0.3-0.3,0.7-0.6,1.1-0.5c0.4,0.1,0.8,0.7,0.5,1.1c-0.2,0.3-0.5,0.3-0.7,0.5c0.2,0.2,0.2,0.5,0.4,0.7
	c0.1,0.1,0.1,0.3,0.3,0.3c0,0,0.1,0,0.1,0.1c0,0,0.1,0.1,0.1,0.1c0.2,0.2,0.6,0.2,0.8-0.1c0.2-0.2,0.1-0.5,0-0.7
	c0.3-0.1,0.7-0.2,0.6-0.6c0.5,0,1.9-0.9,1.1-1.6c0.4-0.2,0.8-0.8,0.5-1.3C182.3,195.6,181.8,195.4,181.4,195.4z"/>
<path class="st3" d="M161.9,220.5c-1.2-0.7-3.3,0.2-3.3,1.3c0,3.1,2.9,18,3,18.9c0.2,0.9,1.8,1.2,1.9,0c0.1-1.9,0.4-8.4,0.1-11.4
	c-0.1-1.2-0.2-2.4-0.4-3.5c1.5,2.7,3.8,6.6,7,11.7l1.7-0.8c-1.3-4.4-2.4-7.6-3.3-9.4c-1.5-3.1-2.9-5.8-3.4-6.7
	C164.3,219.1,162.7,219.6,161.9,220.5z"/>
<path class="st5" d="M171.9,234.3l-5.9-13.9c-1.4-2.3-5.4,0.5-4.9,1.8c1.1,3,6.6,12.6,7,13.5L171.9,234.3z"/>
<path class="st6" d="M172.5,235.6c0.3,0.1,0.5,0.3,0.6,0.4c0.1,0.2,0.2,0.4,0.3,0.7c-0.3,0.2-2.8,1.9-7.7,5.1
	c-0.5-0.3-0.5-0.6-0.1-0.9c0.4-0.3,0.7-0.6,1-0.8l2.9-3.3c0.1-0.1,0.1-0.1,0.2-0.1c0,0,0,0,0,0l0.5,0.2c0.5-0.1,0.8-0.3,1.1-0.5
	c0.2-0.1,0.4-0.4,0.7-0.7l0,0C172.1,235.6,172.3,235.5,172.5,235.6C172.5,235.6,172.5,235.6,172.5,235.6z"/>
<path class="st6" d="M163.9,239.9c0.2,0.4,0.3,0.8,0.3,1c0,0.3,0,0.7-0.1,1.2c-0.3,0-3.1,0-8.4,0c-0.2-0.7-0.1-1.1,0.4-1.2
	c0.5-0.1,0.9-0.1,1.2-0.2l3.9-1.7c0.1,0,0.2,0,0.2,0.1c0,0,0,0,0,0l0.3,0.6c0.4,0.2,0.8,0.3,1.1,0.3c0.2,0,0.5-0.1,0.9-0.3l0,0
	C163.6,239.7,163.8,239.8,163.9,239.9C163.9,239.9,163.9,239.9,163.9,239.9z"/>
<path class="st7" d="M158.2,222.9c0,3.9,1.9,13.2,1.9,14l4,0c-0.6-8.2-0.8-12.4-0.6-12.5c0.3-0.1,10.6,1,13.7,1c4.5,0,6.3-2.8,6.5-8
	h-8.8c-1.8,0.2-11.2,2.1-14.7,2.7C158.6,220.4,158.2,221.8,158.2,222.9z"/>
<path class="st8" d="M173.4,208.2l-5.2-2.8c-0.9-1-1.7-1.8-2.5-2.4c-0.3-0.1-0.7-0.2-0.3,0.6c0.4,0.7,0.8,1.5,0.6,1.8
	c-0.2,0.2-0.7-0.1-1,0.3c-0.2,0.3,0.7,0.6,2.7,1.2l3.8,3.4L173.4,208.2z M165.3,210.6l-2.3-1.2c-0.3-1.2-0.7-1.8-1.1-1.8
	c-0.3-0.2,0.3,1.4-0.4,1.2c-0.6-0.1-2.2-1.3-2.5-1.1c-0.4,0.4,0,1.4,0.4,2c0.8,1,1.4,1.3,3,1.8c0.8,0.2,1.8,0.7,2.7,1.4L165.3,210.6
	z"/>
<path class="st9" d="M175.9,207.5c-1.8,0-4.2-0.4-6.8-2l-1,2.3c1.8,1.8,4.3,3.2,6.5,3.1C176.3,210.9,177.2,208.8,175.9,207.5z"/>
<path class="st5" d="M173.5,211.2c-1.9,0.5-5.1-0.1-9.7-1.7c-1.1,2.3-1.6,4-1.6,5c3.9,2,7.2,2.9,9.9,3c-0.1,1.6,0.1,3.2,0.8,4.6
	c1.4,2.9,9.4,0.2,12,0.7c1.7-5.5-1.6-7.7-1.6-11.2c0-3.8-3.1-9.7-3.5-9.7h-4.1C175.6,204.8,174.4,208,173.5,211.2z"/>
<path class="st3" d="M130.8,202.4c-0.6-0.7-1-1.6-1-2.6c0.2-2.8,4.1-2.2,4.9-0.8c0.8,1.4,0.7,5.1-0.3,5.3c-0.4,0.1-1.2-0.1-2.1-0.7
	l0.5,3.8h-3.2L130.8,202.4z"/>
<path class="st10" d="M134,198.1c-0.1,0-0.2-0.1-0.3-0.2c0,0-0.1-0.1-0.1-0.1c-0.1,0-0.4,0.2-0.4,0.3c0,0,0,0,0,0
	c0,0.1-0.1,0.1-0.1,0.2c-0.1,0.2-0.1,0.3-0.2,0.5c-0.1,0.3-0.2,0.7-0.3,1c-0.1,0.3-0.2,0.7-0.3,1c-0.1,0.5-0.3,1-0.4,1.5
	c-0.1,0.3-0.1,0.6-0.1,1c0,0,0,0,0,0c0,0,0,0,0,0c0,0.1,0,0.1,0,0.2c0,0,0,0.1,0,0.1c0.1-0.2,0.2-0.5,0.3-0.8c0,0,0-0.1,0-0.1
	c0-0.1,0.1-0.1,0.1-0.2c0.2-0.3,0.4-0.6,0.6-1c0.4-0.6,0.7-1.2,1.1-1.8c0.1-0.2,0.3-0.3,0.4-0.5c0.1-0.1,0.1-0.2,0.2-0.3
	c0-0.1,0.3-0.3,0.2-0.5C134.6,198.7,134.2,198.3,134,198.1z"/>
<path class="st11" d="M133.7,198c0.1,0,0-0.1,0-0.2c-0.3-0.2-1.5-0.3-2.6-0.1c-0.7,0.1-1.5,0.5-2.1,1c-0.5,0.4-0.9,1.1-1,1.8
	c-0.2,0.7-0.2,1.4-0.1,2.1c0,0.2,0.1,0.3,0.1,0.5c0,0.2,0,0.3,0.1,0.5c0,0.1,0.1,0.2,0.1,0.3c0,0.1,0,0.2,0,0.3
	c0,0.2-0.1,0.4-0.2,0.6c-0.1,0.3-0.2,0.5-0.3,0.8c-0.1,0.4-0.5,1.6-0.2,2h6.2c-0.2-0.4-0.6-0.9-0.7-1.4c-0.1-0.3-0.1-0.8-0.1-0.9
	c-0.1-1-0.4-1.4-0.6-1.6c-0.2-0.2-0.4-0.2-0.4-0.4c0-0.6,0.2-1.2,0.4-1.7c0.2-0.7,0.4-1.3,0.6-2C132.9,199.3,133.3,197.9,133.7,198z
	"/>
<path class="st12" d="M131.6,198.7c-0.2,0.7-0.3,1.1-0.2,2.1h-0.1c-0.2-1,0-1.8,0.2-2.1H131.6z M128.4,200.6c0.4,1,0.6,1.7,1.8,2.5
	l-0.1,0.1C129,202.5,128.6,201.7,128.4,200.6L128.4,200.6z M130.2,199.5c0.2,1.5,0.3,2.3,1.3,4l-0.1,0c-1.1-1.4-1.2-2.6-1.3-4
	L130.2,199.5z M129.1,203.9l0.1-0.1c1.3,0.4,1.1,1.2,2.7,2.1l-0.1,0.1C130.4,205.4,130,204.1,129.1,203.9z"/>
<path class="st3" d="M145.8,221.3c1.1-0.7,2.9,0.2,2.9,1.1c0,2.8-2.6,16-2.7,16.8c-0.1,0.8-1.6,1.1-1.6,0c-0.1-1.7-0.4-7.5-0.1-10.2
	c0.1-1.1,0.2-2.2,0.3-3.1c-1.3,2.4-3.4,5.9-6.2,10.4l-1.5-0.7c1.2-3.9,2.2-6.7,2.9-8.4c1.3-2.8,2.5-5.2,3.1-6
	C143.6,220,145.1,220.5,145.8,221.3z"/>
<path class="st5" d="M136.9,233.5l5.2-12.4c1.3-2,4.8,0.4,4.3,1.6c-1,2.7-5.9,11.3-6.2,12L136.9,233.5z"/>
<path class="st13" d="M136.4,234.7c-0.3,0.1-0.5,0.3-0.5,0.4c-0.1,0.1-0.2,0.4-0.3,0.7c0.3,0.2,2.5,1.7,6.8,4.5
	c0.4-0.2,0.4-0.5,0.1-0.8c-0.4-0.3-0.7-0.5-0.9-0.7l-2.6-3c-0.1-0.1-0.1-0.1-0.2-0.1c0,0,0,0,0,0l-0.4,0.2c-0.4-0.1-0.7-0.3-1-0.4
	c-0.2-0.1-0.4-0.3-0.7-0.6l0,0C136.7,234.7,136.5,234.6,136.4,234.7C136.4,234.7,136.4,234.7,136.4,234.7z"/>
<path class="st13" d="M144,238.6c-0.1,0.4-0.2,0.7-0.2,0.9c0,0.2,0,0.6,0.1,1c0.3,0,2.8,0,7.5,0c0.2-0.6,0.1-1-0.3-1
	c-0.4-0.1-0.8-0.1-1-0.1l-3.5-1.5c-0.1,0-0.1,0-0.2,0.1c0,0,0,0,0,0l-0.2,0.5c-0.4,0.2-0.7,0.3-0.9,0.3c-0.2,0-0.5-0.1-0.8-0.2l0,0
	C144.3,238.4,144.1,238.4,144,238.6C144,238.6,144,238.6,144,238.6z"/>
<path class="st7" d="M149.1,223.4c0,3.5-1.7,11.7-1.7,12.5l-3.6,0c0.5-7.3,0.7-11,0.6-11.1c-0.2-0.1-9.4,0.9-12.2,0.9
	c-4,0-5.6-2.5-5.7-7.1h7.9c1.6,0.2,10,1.9,13.1,2.4C148.7,221.2,149.1,222.4,149.1,223.4z"/>
<path class="st3" d="M141,216.9l3.8,3.7c1.1,0.5,2,1,2.7,1.5c0.2,0.2,0.3,0.6-0.4,0.4c-0.7-0.2-1.5-0.3-1.7-0.1
	c-0.1,0.2,0.3,0.6,0,0.9c-0.2,0.2-0.7-0.5-1.7-2l-3.9-2.3L141,216.9z M122.6,213.6l2.9,0c-2.2,7.2-3.4,10.9-3.5,11.2
	c-0.3,0.8,0.3,1.9,0.6,2.5c-0.9,0.4-0.8-1.1-1.9-0.6c-1,0.5-1.8,1.4-3,0.6c-0.1-0.1-0.3-0.4,0.1-0.7c1-0.7,2.4-1.8,2.6-2.2
	C120.6,223.9,121.3,220.3,122.6,213.6z"/>
<path class="st14" d="M131.5,205.3l1.1-0.2c1.8,6.4,11.1,10.7,11.6,13.1c0.2,0.9-0.4,1.3-0.1,1.6l-1.5,1.1c-0.3-0.3-0.8,0.2-1.9-0.1
	C139.6,220.4,131.5,212.9,131.5,205.3z"/>
<path class="st15" d="M133.4,206.2c-0.1,8.4,4.7,10.6,3.7,14c-0.9,2.8-9.5,5.8-11,3.1c-0.6-1.1-0.9-2.5-0.9-3.9
	c-0.4,1.1-0.7,2.1-0.9,2.9c-0.4,1.4-1.9,1.6-1.9,2.2l-1.9-0.5c0.1-0.7-0.8-1.1-0.5-2.7c1.1-7.3,4.1-12.6,8.9-15.9l0-0.7
	c0-0.3,0.3-0.5,0.6-0.5l3.6,0.2c0.3,0,0.5,0.3,0.5,0.6L133.4,206.2z"/>
<path class="st10" d="M207.7,255.4l-4.1-4.6l0,5.6l1.2,3.6l-12.4,2.2l-0.5-9.8l-0.9-7.5c-0.1-0.9,0.4-1.8,1.3-2.1l3.4-1.3l4.8,0.9
	l1.9,0.7c0.8,0.3,1.5,0.8,2.1,1.5l5.8,6.7"/>
<path class="st10" d="M203.2,257.6l-7.5-3c-0.6-0.2-1-0.8-1.1-1.5l-0.5-7.2c0,0,0.1-3.1-1.8-3.2l-1.1,0.4c-1.4,0.7-1.8,2.8-1.6,4.4
	c0.3,2.2,0.4,5.4,0.7,7.4c0.2,1.6,1.2,3,2.7,3.4l9.2,2L203.2,257.6z"/>
<path class="st1" d="M214,267.3c1.6,0.1,2.9,0.3,3.9,0.5c2,0.5,2.5,0.9,2.6,1.3c0.3,0.7-0.2,1.4-0.3,1.5c-0.8,1.2-2.7,1.1-3.5,1
	c-1.9-0.1-3.3-1-4.2-1.6L214,267.3z"/>
<path class="st16" d="M207.4,265.6c-2,0.3-3.4,1-4.1,1.6c-0.9,0.6-2.1,1.4-2,2.5c0,0.4,0.2,0.9,0.6,1.2c0.9,0.7,2.3,0.2,3.2-0.2
	c0.8-0.3,1.4-0.7,2.6-1.5c0.9-0.6,2-1.4,2-1.4L207.4,265.6z"/>
<path class="st17" d="M219.7,256.1c0,0,1.8,0.6,1.8,2.6c0,3.8-7.7,8-7.7,8l-10.3-6.8l-0.6-0.3C202.8,259.7,216.7,254.5,219.7,256.1z
	"/>
<path class="st18" d="M217.3,249.9l-3.7,9.3l-15.8,0.3l-0.3-0.9l5.5-0.2l2.7-8.3L217.3,249.9z"/>
<path class="st16" d="M210.3,254.2c0.2,0,0.3,0.1,0.6,0.1c0.6,0.2,1,0,1,0.1c0.1,0.1-0.8,0.8-1.6,0.6c-0.2,0-0.6-0.2-0.6-0.4
	C209.7,254.4,210,254.3,210.3,254.2z"/>
<path class="st17" d="M214.7,267.2c0,0-14.6-9.6-15.2-9.7c-0.6-0.2-2-1.1-3.5-0.7s-2.7,1.7-3.4,3.6c-0.4,1.1-0.5,2.9-0.6,4.3
	c-0.1,1.7,0.4,3.3,1.5,4.5c0.5,0.6,1.1,1.1,1.8,1.3c0.2,0,0.3,0.1,0.5,0.1c2.8,0.6,5.6-0.6,7.1-3l0.3-0.5c0,0,9.5,3.5,9.7,3.5
	L214.7,267.2z"/>
<path class="st10" d="M198.2,230.7c0.2-0.7,0.8-1,1.5-1.1c0.7-0.2,1.5,0,2,0.5c0.4,0.3,0.6,0.8,1,1c0.7,0.3,1.6-0.1,2.3,0.2
	c0.4,0.2,0.6,0.8,0.4,1.2c-0.2,0.4-0.6,0.7-1.1,0.7c0.5,0.2,0.6,0.9,0.2,1.3c-0.3,0.4-0.9,0.5-1.4,0.4c-0.5-0.1-0.9-0.5-1.3-0.9
	c-0.4-0.4-0.7-0.8-1-1.1c-0.4-0.4-0.9-0.6-1.4-0.7c-0.7,0-1.3,0.4-1.7,1c-0.4,0.6-0.5,1.3-0.6,2c-0.1,0.7-0.2,1.4-0.4,2
	c0,0.1-0.1,0.2-0.2,0.2c-0.1,0-0.2-0.1-0.2-0.2c-0.5-1.2-0.8-2.6-0.8-3.9c0-0.8,0.1-1.5,0.6-2.1
	C196.6,230.6,197.8,230.2,198.2,230.7z"/>
<path class="st19" d="M196.6,233.8l-1.1,7.8c-0.2,1.3,0.8,2.5,2.1,2.6c1.2,0.1,2.4-0.8,2.5-2c0.1-0.6,0.1-1.1,0.2-1.1
	c0,0,2,0.1,2.4-1.9c0.2-0.9,0.5-2.9,0.7-4.7c0.2-1.9-1.1-3.7-2.9-4.1l-0.2,0C198.2,230.2,196.8,231.8,196.6,233.8z"/>
<path class="st10" d="M203.9,234.2c-0.9,0.1-1.8-0.4-2.4-1.1c-0.4-0.5-0.6-1.1-1.2-1.4c-0.4-0.2-0.8-0.2-1.2-0.1
	c-0.4,0.1-0.8,0.4-1.1,0.7c0.2,1.1-0.3,2.1-0.8,3.1c-0.1,0.1-0.1,0.2-0.2,0.3c-0.2,0.1-0.4-0.1-0.5-0.2c-0.2-0.3-0.2-0.6-0.2-0.9
	c0-0.7,0.1-1.5,0.4-2.2c0.3-0.7,0.8-1.3,1.4-1.7c0.8-0.5,1.8-0.6,2.7-0.4c0.9,0.2,1.7,0.7,2.3,1.4c0.3,0.3,0.5,0.7,0.6,1.1"/>
<path class="st20" d="M105.5,237c0.5,0.1,1.1,0,1.6-0.3c0.4-0.3,0.7-0.9,0.7-1.5c0-0.5-0.2-1.1-0.1-1.5c0.1-0.3,0.4-0.6,0.5-1
	c0.1-0.5-0.2-1-0.5-1.5c-0.2-0.3-0.4-0.6-0.7-0.8c-0.3-0.2-0.6-0.4-1-0.3"/>
<path class="st20" d="M100.7,230.2c0,0.4-0.2,0.7-0.5,1c-0.3,0.3-0.6,0.6-0.6,1c-0.1,0.7,0.6,1.3,0.4,2c-0.1,0.4-0.4,0.7-0.4,1
	c-0.1,0.4,0.1,0.7,0.4,1c0.2,0.3,0.5,0.5,0.7,0.8c0,0,0.4,0.7,1.8,0.3"/>
<path class="st20" d="M106.8,230.8c0-0.4-0.3-0.6-0.7-0.8c-0.3-0.1-0.7-0.2-1-0.4c-0.3-0.2-0.4-0.5-0.7-0.7
	c-0.5-0.6-1.4-0.8-2.1-0.6c-0.7,0.2-1.4,0.8-1.6,1.6c-0.1,0.5,0,1.1,0.4,1.4c0.5,0.4,1.2,0.3,1.8,0.2c0.6-0.1,1.3-0.2,1.8,0.1
	c0.3,0.2,0.5,0.6,0.7,0.9c0.2,0.3,0.4,0.6,0.8,0.8c0.3,0.1,0.8-0.1,0.8-0.5"/>
<path class="st19" d="M105.4,230.9c0.3,0,0.5,0.3,0.5,0.6l-0.4,8.1c0,1-1.4,1.5-2.4,1.5c-1,0-1.1-0.5-1.1-1.4c0-1.5,0-2.1,0-2.1
	c0,0-1.3-0.2-1.6-1.9c-0.1-0.8-0.1-2.2,0-3.4c0.1-1,0.7-2.3,1.8-2.2L105.4,230.9z"/>
<path class="st19" d="M102,237.5c0,0,1.1,0.1,2.3-0.6c0,0-0.6,1.2-2.3,1V237.5z"/>
<path class="st20" d="M106.6,236.5c-0.5,0.1-1,0-1.3-0.4c-0.3-0.3-0.5-0.8-0.5-1.3c0.1-0.4,0.3-0.8,0.1-1.2
	c-0.2-0.5-0.9-0.7-1.1-1.2c-0.1-0.3,0-0.7-0.1-1c-0.1-0.3-0.4-0.4-0.7-0.5c-0.3-0.1-0.6-0.2-0.8-0.4c-0.2-0.2-0.4-0.5-0.2-0.8
	c1.3,0.2,2.5,0.5,3.7,0.9c0.3,0.1,0.6,0.2,0.7,0.5c0.2,0.3,0.2,0.6,0.2,0.9c-0.1,1.5-0.1,3.1-0.2,4.6"/>
<path class="st19" d="M96.1,270.8l0,7l3.1-0.2l0.7-6.8L96.1,270.8z"/>
<path class="st21" d="M99.4,276.2c0,0-2.2,1.6-3.3,0.2l-0.3,0.7l-1.3,4.7c-0.1,0.3,0.1,0.6,0.4,0.8c0.2,0.1,0.5,0,0.6-0.1
	c0.9-0.9,4.2-4.1,4.2-4.5l0-1.1C99.7,276.5,99.6,276.3,99.4,276.2z"/>
<g class="st22">
	<path class="st23" d="M95,282.5l4.7-5l0,0.3c0,0.3-0.1,0.4-0.2,0.6c-0.4,0.5-1.4,1.7-4,4.1C95.4,282.5,95.2,282.5,95,282.5z"/>
</g>
<path class="st19" d="M88.7,264.8l-3.8,7.3l3.1,1.8l5-7L88.7,264.8z"/>
<path class="st21" d="M85.3,271.1l-0.1,0.2c0,0-4.3-0.7-4.7-0.1l6.8,4.1l1.3-2.3C87.3,272.9,86.2,272.3,85.3,271.1z"/>
<g class="st22">
	<g class="st22">
		<g class="st22">
			<path class="st23" d="M87.3,275.3l0.3-0.6L81,271c0,0-0.4-0.1-0.5,0.2L87.3,275.3z"/>
		</g>
	</g>
</g>
<path class="st24" d="M87.4,266.6l6.7-12.9c0,0,0.9-1.3,2.2-1.2c0.6,0,2.5,0.6,4.5,1.2l0.1-0.9l6.7,0.6c0,0,2,3.7,1.7,6.3
	c-0.3,2.6-0.9,2.5-0.9,2.5l-5.4-0.1l-2.3,0.1l-0.3,9.4l-4.8-0.6l-0.2-8.1l-3.3,6.2L87.4,266.6z"/>
<path class="st18" d="M107.4,253.3C107.4,253.3,107.4,253.3,107.4,253.3c0.1,0.2,0.1,0.2,0.1,0.3c0.1,0.1,0.1,0.2,0.2,0.4
	c0.1,0.2,0.1,0.3,0.2,0.5c0.3,0.8,0.8,1.8,1,3c0.2,1.2,0.1,2.4-0.1,3.2c0,0.2-0.1,0.4-0.1,0.5c0,0.2-0.1,0.3-0.1,0.4
	c0,0.1-0.1,0.2-0.1,0.3c0,0.1,0,0.1,0,0.1c0,0,0,0,0-0.1c0-0.1,0.1-0.2,0.1-0.3c0-0.1,0.1-0.2,0.1-0.4c0.1-0.2,0.1-0.3,0.2-0.5
	c0.2-0.8,0.4-2,0.1-3.2c-0.2-1.2-0.7-2.3-1.1-3.1c-0.1-0.2-0.2-0.4-0.3-0.5c-0.1-0.1-0.1-0.3-0.2-0.4
	C107.5,253.5,107.5,253.4,107.4,253.3C107.4,253.3,107.4,253.3,107.4,253.3z"/>
<path class="st20" d="M105.2,239.2c0,0,0.2,0.2,0.4,0.5c0.2,0.3,0.2,0.6,0.3,0.6c0,0,0-0.3-0.2-0.6
	C105.5,239.3,105.2,239.2,105.2,239.2z"/>
<path class="st20" d="M102.1,239.5c0,0-0.2,0.2-0.3,0.5c-0.1,0.3-0.1,0.5,0,0.5c0,0,0.1-0.2,0.1-0.5
	C102,239.7,102.2,239.5,102.1,239.5z"/>
<path class="st25" d="M99.3,240.7c0,0-1.2,0.8-1.3,2.6c-0.1,1.9-0.7,4.1-0.7,4.1l-4.8,0.6l0.3,2.4l8.1,0.3L99.3,240.7z"/>
<path class="st25" d="M105.7,238.6l0.7,0.8c0,0,1.9,0.5,2.4,0.6c0.4,0.2-0.7,4.2-0.7,4.2l0.2,8.2c0,0.6-0.5,1.1-1.1,1l-7.4-0.7
	l-0.6-9.2l0.1-2.8l1.8-0.6l1-1c0.6,0.7,1.6,0.8,2.4,0.3L105.7,238.6z"/>
<path class="st25" d="M108.8,240c0,0,1.5,0.6,1.6,2.8c0.1,1.5,0.6,4,1,5.6c0.2,0.9,0,1.8-0.5,2.6c-0.6,0.9-1.6,1.5-2.7,1.6l-6.3-0.8
	l0.1-2.4l5.8-0.7l0.3-4.3L108.8,240z"/>
<path class="st26" d="M100.9,252.9c0-0.1-1.8-7.3-2.2-8.7l-6.8-0.3l2.4,8.4L100.9,252.9z"/>
<path class="st16" d="M100.9,253.3c0-0.1-1.8-7.3-2.2-8.7l-6.8-0.3l2.4,8.4L100.9,253.3z"/>
<path class="st1" d="M100.6,253.4c0-0.1-1.8-7.3-2.2-8.7l-6.8-0.3l2.4,8.4L100.6,253.4z"/>
<path class="st26" d="M100.9,252.9c0-0.1-1.8-7.3-2.2-8.7l-6.8-0.3l2.4,8.4L100.9,252.9z"/>
<path class="st20" d="M100.9,252.9c0,0,0,0-0.1,0c-0.1,0-0.2,0-0.4,0c-0.3,0-0.8-0.1-1.3-0.1c-1.2-0.1-2.8-0.3-4.8-0.5l0,0
	c-0.7-2.4-1.5-5.3-2.4-8.4l-0.1,0.1c0.1,0,0.1,0,0.2,0c2.4,0.1,4.6,0.2,6.6,0.3l0,0c0.7,2.6,1.2,4.7,1.6,6.3
	c0.2,0.8,0.4,1.4,0.5,1.8c0.1,0.2,0.1,0.4,0.1,0.5C100.8,252.8,100.9,252.8,100.9,252.9C100.9,252.9,100.9,252.9,100.9,252.9
	C100.9,252.9,100.9,252.9,100.9,252.9c0-0.1,0-0.1,0-0.2c0-0.1-0.1-0.3-0.1-0.5c-0.1-0.4-0.2-1-0.4-1.8c-0.4-1.5-0.9-3.7-1.5-6.3
	l0,0l0,0c-2-0.1-4.2-0.2-6.6-0.3c-0.1,0-0.1,0-0.2,0l-0.1,0l0,0.1c0.9,3.1,1.7,6,2.4,8.4l0,0l0,0c2,0.2,3.7,0.3,4.8,0.4
	c0.6,0.1,1,0.1,1.3,0.1c0.1,0,0.3,0,0.3,0C100.8,252.9,100.9,252.9,100.9,252.9z"/>
<path class="st16" d="M100.9,253.3c0-0.1-1.8-7.3-2.2-8.7l-6.8-0.3l2.4,8.4L100.9,253.3z"/>
<path class="st20" d="M100.9,253.3c0,0,0,0-0.1,0c-0.1,0-0.2,0-0.4,0c-0.3,0-0.8-0.1-1.3-0.1c-1.2-0.1-2.8-0.3-4.8-0.5l0,0
	c-0.7-2.4-1.5-5.3-2.4-8.4l-0.1,0.1c0.1,0,0.1,0,0.2,0c2.4,0.1,4.6,0.2,6.6,0.3l0,0c0.7,2.6,1.2,4.7,1.6,6.3
	c0.2,0.8,0.4,1.4,0.5,1.8c0.1,0.2,0.1,0.4,0.1,0.5C100.8,253.2,100.9,253.2,100.9,253.3C100.9,253.3,100.9,253.3,100.9,253.3
	C100.9,253.3,100.9,253.3,100.9,253.3c0-0.1,0-0.1,0-0.2c0-0.1-0.1-0.3-0.1-0.5c-0.1-0.4-0.2-1-0.4-1.8c-0.4-1.5-0.9-3.7-1.5-6.3
	l0,0l0,0c-2-0.1-4.2-0.2-6.6-0.3c-0.1,0-0.1,0-0.2,0l-0.1,0l0,0.1c0.9,3.1,1.7,6,2.4,8.4l0,0l0,0c2,0.2,3.7,0.3,4.8,0.4
	c0.6,0.1,1,0.1,1.3,0.1c0.1,0,0.3,0,0.3,0C100.8,253.3,100.9,253.3,100.9,253.3z"/>
<path class="st1" d="M100.6,253.5c0-0.1-1.8-7.3-2.2-8.7l-6.8-0.3l2.4,8.4L100.6,253.5z"/>
<path class="st20" d="M100.6,253.4c0,0,0,0-0.1,0c-0.1,0-0.2,0-0.4,0c-0.3,0-0.8-0.1-1.3-0.1c-1.2-0.1-2.8-0.3-4.8-0.5l0,0
	c-0.7-2.4-1.5-5.3-2.4-8.4l-0.1,0.1c0.1,0,0.1,0,0.2,0c2.4,0.1,4.6,0.2,6.6,0.3l0,0c0.7,2.6,1.2,4.7,1.6,6.3
	c0.2,0.8,0.3,1.4,0.5,1.8c0.1,0.2,0.1,0.4,0.1,0.5C100.6,253.3,100.6,253.4,100.6,253.4C100.6,253.4,100.6,253.4,100.6,253.4
	S100.6,253.4,100.6,253.4c0-0.1,0-0.1,0-0.2c0-0.1-0.1-0.3-0.1-0.5c-0.1-0.4-0.2-1-0.4-1.8c-0.4-1.5-0.9-3.7-1.5-6.3l0,0l0,0
	c-2-0.1-4.2-0.2-6.6-0.3c-0.1,0-0.1,0-0.2,0l-0.1,0l0,0.1c0.9,3.1,1.7,6,2.4,8.4l0,0l0,0c2,0.2,3.7,0.3,4.8,0.4
	c0.6,0.1,1,0.1,1.3,0.1c0.1,0,0.3,0,0.3,0C100.6,253.4,100.6,253.4,100.6,253.4z"/>
<path class="st19" d="M102.1,249.3h-0.9c0,0-0.5-0.5-0.6-0.5c-0.1-0.1-0.8-0.3-0.8-0.3l0.2,0.7c0,0,0.1,0,0.2,0.1
	c0.2,0.1,0.1,0.2,0,0.2c-0.1,0-0.9,0-0.9,0s-1-0.5-1.1-0.4c-0.1,0.1-0.2,0.2,0,0.4c0.1,0.2,1,0.6,1.1,0.6l0.3,0.1l-0.3,0.1l-1.2-0.4
	c-0.1,0-0.2,0-0.2,0c-0.1,0.1-0.1,0.1,0,0.2c0.2,0.2,0.6,0.4,0.6,0.4s-0.2,0.3,0,0.4c0.2,0.1,0.6,0.6,0.6,0.6s0,0.2,0.2,0.4
	c0.1,0.1,1.8,0.1,1.9,0.1c0.1,0,0.8-0.4,0.8-0.4l0.4,0L102.1,249.3z"/>
<path class="st27" d="M99.3,250.9c0,0-0.1,0-0.2,0c-0.1,0-0.1,0-0.2,0c-0.1,0-0.1-0.1-0.2-0.1c-0.1-0.1-0.3-0.2-0.4-0.2
	c-0.1-0.1-0.1-0.1-0.1-0.1c0,0,0.1,0,0.2,0.1c0.1,0.1,0.2,0.1,0.4,0.2c0.1,0,0.1,0.1,0.2,0.1c0.1,0,0.1,0,0.2,0
	C99.2,250.9,99.3,250.9,99.3,250.9z"/>
<path class="st27" d="M99.3,251.5c0,0,0,0-0.1,0.1c-0.1,0-0.2,0-0.3-0.1c-0.1-0.1-0.2-0.1-0.3-0.2c-0.1-0.1-0.1-0.1-0.1-0.1
	c0,0,0.2,0.1,0.4,0.3c0.1,0.1,0.2,0.1,0.3,0.1C99.3,251.6,99.3,251.5,99.3,251.5z"/>
<path class="st27" d="M99.8,250.2c0,0-0.1,0-0.3,0c-0.1,0-0.2-0.1-0.2-0.1c0,0,0.1,0,0.3,0C99.7,250.2,99.8,250.2,99.8,250.2z"/>
<path class="st19" d="M91.7,248.9c-0.2-0.1-0.2-0.3-0.1-0.5c0-0.1,0.1-0.1,0.1-0.1c0.1-0.1,1.5-0.3,1.6-0.3c0.1,0,0.2,0.2,0,0.4
	C93.1,248.5,91.7,248.9,91.7,248.9z"/>
<path class="st19" d="M92,249.9c-0.2-0.1-0.2-0.3-0.1-0.5c0-0.1,0.1-0.1,0.1-0.1c0.1-0.1,1.5-0.4,1.6-0.3c0.1,0.1,0.2,0.2,0,0.4
	C93.4,249.4,92,249.9,92,249.9z"/>
<path class="st19" d="M92.2,249.7c-0.1,0-0.2,0.1-0.3,0.2c0,0.1,0,0.1,0,0.2c0,0.2,0.2,0.3,0.4,0.4c0.2,0.1,1-0.1,1-0.1l-0.2-0.5
	l0.5-0.2c0.2-0.1,0.1-0.4-0.2-0.4C93.4,249.4,92.5,249.6,92.2,249.7z"/>
<path class="st19" d="M91.8,249.4c-0.2-0.1-0.2-0.3-0.1-0.5c0-0.1,0.1-0.1,0.1-0.1c0.1-0.1,1.3-0.3,1.5-0.3c0.1,0,0.3,0.2,0.1,0.4
	C93.2,248.9,91.8,249.4,91.8,249.4z"/>
<path class="st27" d="M93.2,248.9c0,0-0.1,0-0.2,0.1c-0.1,0-0.3,0.1-0.5,0.1c-0.2,0-0.4,0.1-0.5,0.2c-0.1,0.1-0.1,0.2-0.1,0.1
	c0,0,0,0,0-0.1c0,0,0.1-0.1,0.1-0.1c0.1,0,0.1-0.1,0.2-0.1c0.1,0,0.2-0.1,0.3-0.1c0.2,0,0.4-0.1,0.5-0.1
	C93.1,248.9,93.2,248.9,93.2,248.9z"/>
<path class="st27" d="M92.9,248.5c0,0-0.1,0-0.2,0c-0.1,0-0.3,0.1-0.5,0.1c-0.2,0-0.4,0.1-0.4,0.2c-0.1,0.1-0.1,0.1-0.1,0.1
	c0,0,0,0,0-0.1c0,0,0.1-0.1,0.1-0.1c0.1-0.1,0.3-0.1,0.5-0.2c0.2,0,0.4-0.1,0.5-0.1C92.9,248.5,92.9,248.5,92.9,248.5z"/>
<path class="st27" d="M93.2,249.5c0,0-0.1,0-0.2,0.1c-0.1,0-0.3,0.1-0.5,0.1c-0.2,0-0.3,0.1-0.4,0.1c-0.1,0.1-0.1,0.1-0.1,0.1
	c0,0,0,0,0,0c0,0,0.1-0.1,0.1-0.1c0.1-0.1,0.3-0.1,0.4-0.2c0.2,0,0.3-0.1,0.5-0.1C93.1,249.5,93.2,249.5,93.2,249.5z"/>
<path class="st27" d="M93.3,249.9c0,0-0.1,0.1-0.3,0.1c-0.2,0.1-0.3,0.1-0.3,0.1c0,0,0.1-0.1,0.3-0.1
	C93.1,249.9,93.2,249.9,93.3,249.9z"/>
<path class="st28" d="M47.4,109V94.7h2.9l3.4,10.1c0.3,0.9,0.5,1.7,0.7,2.1c0.2-0.5,0.4-1.3,0.8-2.3l3.4-10H61V109h-1.8v-12L55,109
	h-1.7l-4.1-12.2V109H47.4z M70.6,107.8c-0.7,0.6-1.3,0.9-1.9,1.2c-0.6,0.2-1.2,0.3-1.9,0.3c-1.1,0-2-0.3-2.6-0.8
	c-0.6-0.6-0.9-1.3-0.9-2.1c0-0.5,0.1-1,0.3-1.4c0.2-0.4,0.5-0.8,0.9-1c0.4-0.3,0.8-0.4,1.3-0.6c0.3-0.1,0.9-0.2,1.6-0.3
	c1.4-0.2,2.5-0.4,3.1-0.6c0-0.2,0-0.4,0-0.5c0-0.7-0.2-1.2-0.5-1.5c-0.4-0.4-1.1-0.6-2-0.6c-0.8,0-1.4,0.1-1.8,0.4
	c-0.4,0.3-0.7,0.8-0.9,1.5l-1.7-0.2c0.2-0.7,0.4-1.3,0.8-1.8c0.4-0.5,0.9-0.8,1.6-1c0.7-0.2,1.5-0.4,2.4-0.4c0.9,0,1.6,0.1,2.2,0.3
	s1,0.5,1.2,0.8c0.3,0.3,0.4,0.7,0.5,1.2c0.1,0.3,0.1,0.8,0.1,1.6v2.3c0,1.6,0,2.7,0.1,3.1c0.1,0.4,0.2,0.8,0.4,1.2H71
	C70.8,108.7,70.7,108.2,70.6,107.8z M70.5,103.8c-0.6,0.3-1.6,0.5-2.9,0.7c-0.7,0.1-1.2,0.2-1.5,0.4c-0.3,0.1-0.5,0.3-0.7,0.6
	c-0.2,0.2-0.2,0.5-0.2,0.8c0,0.5,0.2,0.9,0.5,1.2c0.4,0.3,0.9,0.5,1.6,0.5c0.7,0,1.3-0.1,1.8-0.4c0.5-0.3,0.9-0.7,1.2-1.2
	c0.2-0.4,0.3-1,0.3-1.8V103.8z M75,109V94.7h1.8v8.2l4.2-4.2h2.3l-4,3.8l4.4,6.5h-2.2l-3.4-5.3l-1.2,1.2v4.1H75z M92.1,105.7
	l1.8,0.2c-0.3,1.1-0.8,1.9-1.6,2.5c-0.8,0.6-1.8,0.9-3,0.9c-1.5,0-2.7-0.5-3.6-1.4c-0.9-0.9-1.3-2.2-1.3-3.9c0-1.7,0.4-3.1,1.3-4.1
	c0.9-1,2.1-1.4,3.5-1.4c1.4,0,2.5,0.5,3.4,1.4c0.9,0.9,1.3,2.3,1.3,4c0,0.1,0,0.3,0,0.5h-7.7c0.1,1.1,0.4,2,1,2.6
	c0.6,0.6,1.3,0.9,2.2,0.9c0.6,0,1.2-0.2,1.7-0.5C91.5,107,91.8,106.4,92.1,105.7z M86.3,102.9h5.8c-0.1-0.9-0.3-1.5-0.7-2
	c-0.6-0.7-1.3-1-2.2-1c-0.8,0-1.5,0.3-2,0.8C86.7,101.2,86.4,102,86.3,102.9z M105.5,107.5l0.3,1.6c-0.5,0.1-0.9,0.2-1.3,0.2
	c-0.6,0-1.1-0.1-1.5-0.3c-0.4-0.2-0.6-0.5-0.7-0.8c-0.1-0.3-0.2-1-0.2-2.1v-6h-1.3v-1.4h1.3v-2.6l1.7-1.1v3.6h1.8v1.4h-1.8v6.1
	c0,0.5,0,0.8,0.1,1c0.1,0.1,0.2,0.3,0.3,0.3c0.1,0.1,0.3,0.1,0.6,0.1C104.9,107.5,105.2,107.5,105.5,107.5z M107.3,109V94.7h1.8v5.1
	c0.8-1,1.9-1.4,3.1-1.4c0.8,0,1.4,0.2,2,0.5c0.6,0.3,1,0.7,1.2,1.3c0.2,0.5,0.4,1.3,0.4,2.3v6.6h-1.8v-6.6c0-0.9-0.2-1.5-0.6-1.9
	c-0.4-0.4-0.9-0.6-1.6-0.6c-0.5,0-1,0.1-1.5,0.4c-0.5,0.3-0.8,0.6-1,1.1c-0.2,0.5-0.3,1.1-0.3,1.9v5.7H107.3z M125.5,105.7l1.8,0.2
	c-0.3,1.1-0.8,1.9-1.6,2.5c-0.8,0.6-1.8,0.9-3,0.9c-1.5,0-2.7-0.5-3.6-1.4c-0.9-0.9-1.3-2.2-1.3-3.9c0-1.7,0.4-3.1,1.3-4.1
	c0.9-1,2.1-1.4,3.5-1.4c1.4,0,2.5,0.5,3.4,1.4c0.9,0.9,1.3,2.3,1.3,4c0,0.1,0,0.3,0,0.5h-7.7c0.1,1.1,0.4,2,1,2.6
	c0.6,0.6,1.3,0.9,2.2,0.9c0.6,0,1.2-0.2,1.7-0.5C124.9,107,125.2,106.4,125.5,105.7z M119.7,102.9h5.8c-0.1-0.9-0.3-1.5-0.7-2
	c-0.6-0.7-1.3-1-2.2-1c-0.8,0-1.5,0.3-2,0.8C120.1,101.2,119.8,102,119.7,102.9z M135.1,109V98.7h1.6v1.5c0.3-0.5,0.8-0.9,1.3-1.2
	c0.5-0.3,1.2-0.5,1.8-0.5c0.8,0,1.4,0.2,1.9,0.5c0.5,0.3,0.8,0.8,1,1.3c0.8-1.2,1.9-1.8,3.2-1.8c1,0,1.8,0.3,2.4,0.9
	c0.6,0.6,0.8,1.4,0.8,2.6v7.1h-1.7v-6.5c0-0.7-0.1-1.2-0.2-1.5c-0.1-0.3-0.3-0.6-0.6-0.8c-0.3-0.2-0.7-0.3-1.1-0.3
	c-0.7,0-1.3,0.2-1.8,0.7c-0.5,0.5-0.7,1.3-0.7,2.3v6h-1.8v-6.7c0-0.8-0.1-1.4-0.4-1.8c-0.3-0.4-0.8-0.6-1.4-0.6
	c-0.5,0-1,0.1-1.4,0.4c-0.4,0.3-0.7,0.6-0.9,1.1c-0.2,0.5-0.3,1.2-0.3,2.2v5.4H135.1z M151.1,103.9c0-1.9,0.5-3.3,1.6-4.3
	c0.9-0.8,2-1.2,3.3-1.2c1.4,0,2.6,0.5,3.5,1.4c0.9,0.9,1.4,2.2,1.4,3.9c0,1.3-0.2,2.4-0.6,3.2c-0.4,0.8-1,1.4-1.7,1.8
	c-0.8,0.4-1.6,0.6-2.5,0.6c-1.5,0-2.6-0.5-3.5-1.4C151.5,106.9,151.1,105.6,151.1,103.9z M152.9,103.9c0,1.3,0.3,2.3,0.9,3
	c0.6,0.7,1.3,1,2.2,1c0.9,0,1.6-0.3,2.2-1c0.6-0.7,0.9-1.7,0.9-3c0-1.3-0.3-2.3-0.9-2.9c-0.6-0.7-1.3-1-2.2-1c-0.9,0-1.6,0.3-2.2,1
	C153.2,101.5,152.9,102.5,152.9,103.9z M162.2,105.9l1.7-0.3c0.1,0.7,0.4,1.2,0.8,1.6c0.4,0.4,1.1,0.6,1.9,0.6
	c0.8,0,1.4-0.2,1.8-0.5c0.4-0.3,0.6-0.7,0.6-1.2c0-0.4-0.2-0.7-0.5-0.9c-0.2-0.2-0.8-0.4-1.8-0.6c-1.3-0.3-2.2-0.6-2.7-0.8
	c-0.5-0.2-0.9-0.6-1.1-1c-0.3-0.4-0.4-0.9-0.4-1.4c0-0.5,0.1-0.9,0.3-1.3c0.2-0.4,0.5-0.7,0.9-1c0.3-0.2,0.6-0.4,1.1-0.5
	c0.5-0.1,1-0.2,1.5-0.2c0.8,0,1.5,0.1,2.1,0.4c0.6,0.2,1.1,0.6,1.4,1c0.3,0.4,0.5,0.9,0.6,1.6l-1.7,0.2c-0.1-0.5-0.3-1-0.7-1.3
	c-0.4-0.3-0.9-0.4-1.6-0.4c-0.8,0-1.4,0.1-1.7,0.4s-0.5,0.6-0.5,0.9c0,0.2,0.1,0.4,0.2,0.6c0.1,0.2,0.4,0.3,0.7,0.5
	c0.2,0.1,0.7,0.2,1.6,0.4c1.2,0.3,2.1,0.6,2.6,0.8c0.5,0.2,0.9,0.5,1.2,0.9c0.3,0.4,0.4,0.9,0.4,1.5c0,0.6-0.2,1.1-0.5,1.7
	c-0.3,0.5-0.8,0.9-1.5,1.2c-0.6,0.3-1.4,0.4-2.2,0.4c-1.3,0-2.4-0.3-3.1-0.8C162.8,107.9,162.4,107,162.2,105.9z M176.7,107.5
	l0.3,1.6c-0.5,0.1-0.9,0.2-1.3,0.2c-0.6,0-1.1-0.1-1.5-0.3c-0.4-0.2-0.6-0.5-0.7-0.8c-0.1-0.3-0.2-1-0.2-2.1v-6h-1.3v-1.4h1.3v-2.6
	l1.7-1.1v3.6h1.8v1.4h-1.8v6.1c0,0.5,0,0.8,0.1,1c0.1,0.1,0.2,0.3,0.3,0.3c0.1,0.1,0.3,0.1,0.6,0.1
	C176.1,107.5,176.4,107.5,176.7,107.5z M60.4,128.9c0-1.9,0.5-3.3,1.6-4.3c0.9-0.8,2-1.2,3.3-1.2c1.4,0,2.6,0.5,3.5,1.4
	c0.9,0.9,1.4,2.2,1.4,3.9c0,1.3-0.2,2.4-0.6,3.2c-0.4,0.8-1,1.4-1.7,1.8c-0.8,0.4-1.6,0.6-2.5,0.6c-1.5,0-2.6-0.5-3.5-1.4
	C60.9,131.9,60.4,130.6,60.4,128.9z M62.2,128.9c0,1.3,0.3,2.3,0.9,3c0.6,0.7,1.3,1,2.2,1c0.9,0,1.6-0.3,2.2-1s0.9-1.7,0.9-3
	c0-1.3-0.3-2.3-0.9-2.9c-0.6-0.7-1.3-1-2.2-1c-0.9,0-1.6,0.3-2.2,1C62.5,126.5,62.2,127.5,62.2,128.9z M72.6,134v-9h-1.6v-1.4h1.6
	v-1.1c0-0.7,0.1-1.2,0.2-1.6c0.2-0.5,0.5-0.8,0.9-1.1c0.4-0.3,1-0.4,1.8-0.4c0.5,0,1,0.1,1.6,0.2l-0.3,1.5c-0.4-0.1-0.7-0.1-1-0.1
	c-0.5,0-0.9,0.1-1.1,0.3c-0.2,0.2-0.3,0.7-0.3,1.3v1h2v1.4h-2v9H72.6z M83.3,138l-0.2-1.7c0.4,0.1,0.7,0.2,1,0.2
	c0.4,0,0.7-0.1,0.9-0.2c0.2-0.1,0.4-0.3,0.6-0.5c0.1-0.2,0.3-0.6,0.5-1.3c0-0.1,0.1-0.2,0.2-0.4l-3.9-10.4h1.9l2.2,6
	c0.3,0.8,0.5,1.6,0.8,2.4c0.2-0.8,0.4-1.6,0.7-2.4l2.2-6h1.8l-3.9,10.5c-0.4,1.1-0.8,1.9-1,2.4c-0.3,0.6-0.7,1-1.1,1.3
	c-0.4,0.3-0.9,0.4-1.4,0.4C84.1,138.2,83.7,138.2,83.3,138z M92.7,128.9c0-1.9,0.5-3.3,1.6-4.3c0.9-0.8,2-1.2,3.3-1.2
	c1.4,0,2.6,0.5,3.5,1.4c0.9,0.9,1.4,2.2,1.4,3.9c0,1.3-0.2,2.4-0.6,3.2c-0.4,0.8-1,1.4-1.7,1.8c-0.8,0.4-1.6,0.6-2.5,0.6
	c-1.5,0-2.6-0.5-3.5-1.4C93.1,131.9,92.7,130.6,92.7,128.9z M94.5,128.9c0,1.3,0.3,2.3,0.9,3c0.6,0.7,1.3,1,2.2,1
	c0.9,0,1.6-0.3,2.2-1c0.6-0.7,0.9-1.7,0.9-3c0-1.3-0.3-2.3-0.9-2.9c-0.6-0.7-1.3-1-2.2-1c-0.9,0-1.6,0.3-2.2,1
	C94.8,126.5,94.5,127.5,94.5,128.9z M111.3,134v-1.5c-0.8,1.2-1.9,1.8-3.3,1.8c-0.6,0-1.2-0.1-1.7-0.4c-0.5-0.2-0.9-0.5-1.2-0.9
	c-0.3-0.4-0.4-0.8-0.5-1.3c-0.1-0.3-0.1-0.9-0.1-1.6v-6.4h1.8v5.8c0,0.9,0,1.5,0.1,1.9c0.1,0.5,0.3,0.8,0.7,1.1
	c0.4,0.3,0.8,0.4,1.3,0.4c0.5,0,1-0.1,1.5-0.4c0.5-0.3,0.8-0.6,1-1.1c0.2-0.5,0.3-1.1,0.3-2v-5.6h1.8V134H111.3z M115.6,134v-10.4
	h1.6v1.6c0.4-0.7,0.8-1.2,1.1-1.5c0.3-0.2,0.7-0.4,1.1-0.4c0.6,0,1.2,0.2,1.8,0.6l-0.6,1.6c-0.4-0.3-0.9-0.4-1.3-0.4
	c-0.4,0-0.7,0.1-1,0.4c-0.3,0.2-0.5,0.5-0.7,1c-0.2,0.6-0.3,1.3-0.3,2v5.4H115.6z M127.1,130.9l1.7-0.3c0.1,0.7,0.4,1.2,0.8,1.6
	c0.5,0.4,1.1,0.6,1.9,0.6c0.8,0,1.4-0.2,1.8-0.5c0.4-0.3,0.6-0.7,0.6-1.2c0-0.4-0.2-0.7-0.5-0.9c-0.2-0.2-0.8-0.4-1.8-0.6
	c-1.3-0.3-2.2-0.6-2.7-0.8c-0.5-0.2-0.9-0.6-1.1-1c-0.3-0.4-0.4-0.9-0.4-1.4c0-0.5,0.1-0.9,0.3-1.3c0.2-0.4,0.5-0.7,0.9-1
	c0.3-0.2,0.6-0.4,1.1-0.5c0.5-0.1,1-0.2,1.5-0.2c0.8,0,1.5,0.1,2.1,0.4c0.6,0.2,1.1,0.6,1.4,1c0.3,0.4,0.5,0.9,0.6,1.6l-1.7,0.2
	c-0.1-0.5-0.3-1-0.7-1.3c-0.4-0.3-0.9-0.4-1.6-0.4c-0.8,0-1.4,0.1-1.7,0.4c-0.3,0.3-0.5,0.6-0.5,0.9c0,0.2,0.1,0.4,0.2,0.6
	c0.1,0.2,0.4,0.3,0.7,0.5c0.2,0.1,0.7,0.2,1.6,0.4c1.2,0.3,2.1,0.6,2.6,0.8c0.5,0.2,0.9,0.5,1.2,0.9c0.3,0.4,0.4,0.9,0.4,1.5
	c0,0.6-0.2,1.1-0.5,1.7c-0.3,0.5-0.8,0.9-1.5,1.2c-0.6,0.3-1.4,0.4-2.2,0.4c-1.3,0-2.4-0.3-3.1-0.8
	C127.8,132.9,127.3,132,127.1,130.9z M141.7,132.5l0.3,1.6c-0.5,0.1-0.9,0.2-1.3,0.2c-0.6,0-1.1-0.1-1.5-0.3
	c-0.4-0.2-0.6-0.5-0.7-0.8c-0.1-0.3-0.2-1-0.2-2.1v-6h-1.3v-1.4h1.3v-2.6l1.7-1.1v3.6h1.8v1.4h-1.8v6.1c0,0.5,0,0.8,0.1,1
	c0.1,0.1,0.2,0.3,0.3,0.3c0.1,0.1,0.3,0.1,0.6,0.1C141.1,132.5,141.4,132.5,141.7,132.5z M150.2,132.8c-0.7,0.6-1.3,0.9-1.9,1.2
	c-0.6,0.2-1.2,0.3-1.9,0.3c-1.1,0-2-0.3-2.6-0.8c-0.6-0.6-0.9-1.3-0.9-2.1c0-0.5,0.1-1,0.3-1.4c0.2-0.4,0.5-0.8,0.9-1
	c0.4-0.3,0.8-0.4,1.3-0.6c0.3-0.1,0.9-0.2,1.6-0.3c1.4-0.2,2.5-0.4,3.1-0.6c0-0.2,0-0.4,0-0.5c0-0.7-0.2-1.2-0.5-1.5
	c-0.4-0.4-1.1-0.6-2-0.6c-0.8,0-1.4,0.1-1.8,0.4c-0.4,0.3-0.7,0.8-0.9,1.5l-1.7-0.2c0.2-0.7,0.4-1.3,0.8-1.8c0.4-0.5,0.9-0.8,1.6-1
	c0.7-0.2,1.5-0.4,2.4-0.4c0.9,0,1.6,0.1,2.2,0.3c0.6,0.2,1,0.5,1.2,0.8c0.3,0.3,0.4,0.7,0.5,1.2c0.1,0.3,0.1,0.8,0.1,1.6v2.3
	c0,1.6,0,2.7,0.1,3.1c0.1,0.4,0.2,0.8,0.4,1.2h-1.8C150.4,133.7,150.2,133.2,150.2,132.8z M150,128.8c-0.6,0.3-1.6,0.5-2.9,0.7
	c-0.7,0.1-1.2,0.2-1.5,0.4c-0.3,0.1-0.5,0.3-0.7,0.6c-0.2,0.2-0.2,0.5-0.2,0.8c0,0.5,0.2,0.9,0.5,1.2c0.4,0.3,0.9,0.5,1.6,0.5
	c0.7,0,1.3-0.1,1.8-0.4c0.5-0.3,0.9-0.7,1.2-1.2c0.2-0.4,0.3-1,0.3-1.8V128.8z M154.5,138l-0.2-1.7c0.4,0.1,0.7,0.2,1,0.2
	c0.4,0,0.7-0.1,0.9-0.2c0.2-0.1,0.4-0.3,0.6-0.5c0.1-0.2,0.3-0.6,0.5-1.3c0-0.1,0.1-0.2,0.2-0.4l-3.9-10.4h1.9l2.2,6
	c0.3,0.8,0.5,1.6,0.8,2.4c0.2-0.8,0.4-1.6,0.7-2.4l2.2-6h1.8l-3.9,10.5c-0.4,1.1-0.8,1.9-1,2.4c-0.3,0.6-0.7,1-1.1,1.3
	c-0.4,0.3-0.9,0.4-1.4,0.4C155.3,138.2,154.9,138.2,154.5,138z M90,159v-14.3h1.8v5.1c0.8-0.9,1.9-1.4,3.1-1.4c0.8,0,1.4,0.2,2,0.5
	c0.6,0.3,1,0.7,1.2,1.3c0.2,0.5,0.4,1.3,0.4,2.3v6.6h-1.8v-6.6c0-0.9-0.2-1.5-0.6-1.9c-0.4-0.4-0.9-0.6-1.6-0.6
	c-0.5,0-1,0.1-1.5,0.4c-0.5,0.3-0.8,0.6-1,1.1c-0.2,0.5-0.3,1.1-0.3,1.9v5.7H90z M108.2,155.7l1.8,0.2c-0.3,1.1-0.8,1.9-1.6,2.5
	c-0.8,0.6-1.8,0.9-3,0.9c-1.5,0-2.7-0.5-3.6-1.4c-0.9-0.9-1.3-2.2-1.3-3.9c0-1.7,0.4-3.1,1.3-4.1c0.9-1,2.1-1.4,3.5-1.4
	c1.4,0,2.5,0.5,3.4,1.4c0.9,0.9,1.3,2.3,1.3,4c0,0.1,0,0.3,0,0.5h-7.7c0.1,1.1,0.4,2,1,2.6c0.6,0.6,1.3,0.9,2.2,0.9
	c0.6,0,1.2-0.2,1.7-0.5C107.6,157,108,156.4,108.2,155.7z M102.5,152.9h5.8c-0.1-0.9-0.3-1.5-0.7-2c-0.6-0.7-1.3-1-2.2-1
	c-0.8,0-1.5,0.3-2,0.8C102.8,151.2,102.5,152,102.5,152.9z M112.3,159v-10.4h1.6v1.6c0.4-0.7,0.8-1.2,1.1-1.5
	c0.3-0.2,0.7-0.4,1.1-0.4c0.6,0,1.2,0.2,1.8,0.6l-0.6,1.6c-0.4-0.3-0.9-0.4-1.3-0.4c-0.4,0-0.7,0.1-1,0.4c-0.3,0.2-0.5,0.5-0.7,1
	c-0.2,0.6-0.3,1.3-0.3,2v5.4H112.3z M126,155.7l1.8,0.2c-0.3,1.1-0.8,1.9-1.6,2.5c-0.8,0.6-1.8,0.9-3,0.9c-1.5,0-2.7-0.5-3.6-1.4
	c-0.9-0.9-1.3-2.2-1.3-3.9c0-1.7,0.4-3.1,1.3-4.1c0.9-1,2.1-1.4,3.5-1.4c1.4,0,2.5,0.5,3.4,1.4s1.3,2.3,1.3,4c0,0.1,0,0.3,0,0.5
	h-7.7c0.1,1.1,0.4,2,1,2.6c0.6,0.6,1.3,0.9,2.2,0.9c0.6,0,1.2-0.2,1.7-0.5C125.4,157,125.8,156.4,126,155.7z M120.3,152.9h5.8
	c-0.1-0.9-0.3-1.5-0.7-2c-0.6-0.7-1.3-1-2.2-1c-0.8,0-1.5,0.3-2,0.8C120.6,151.2,120.3,152,120.3,152.9z M131,155.5l-0.5-7.6v-3.2
	h2.2v3.2l-0.5,7.6H131z M130.5,159v-2h2v2H130.5z"/>
<path class="st3" d="M26.9,200.2c-0.6-0.8-1.1-1.7-1-2.7c0.2-3,4.4-2.3,5.2-0.8c0.8,1.5,0.7,5.4-0.3,5.6c-0.4,0.1-1.3-0.2-2.2-0.7
	l0.6,4h-3.4L26.9,200.2z"/>
<path class="st4" d="M29.2,194.9c-0.4-0.1-1.6-0.1-1.9-0.1c-0.1,0-0.3,0-0.4-0.1c-0.1-0.1,0-0.3-0.1-0.4c0-0.1-0.1-0.3-0.1-0.4
	c-0.1-0.4-0.2-0.8-0.4-1.1c-0.4-0.7-0.9-1.2-1.7-1.5c-0.8-0.3-1.7-0.4-2.5-0.3c-0.9,0.1-1.7,0.4-2.6,0.7c-0.8,0.3-1.7,0.4-2.5,0.2
	c-0.9-0.1-1.5-0.6-2.2-1c-0.7-0.5-1.6-0.7-2.5-0.7c-0.8,0.1-1.6,0.4-2.2,0.9c-0.6,0.4-1.2,0.9-1.4,1.6c-0.3,0.8-0.3,1.6,0.2,2.3
	c0.8,1,2.2,1.2,3.3,1.2c0.7,0,1.3-0.1,2-0.4c0.8-0.3,1.6-0.8,2.4-1.2c0.4-0.2,0.8-0.4,1.2-0.5c0.4-0.1,0.8-0.2,1.1,0.1
	c0.4,0.3,0.7,0.5,1.1,0.7c0.4,0.1,0.8,0.2,1.3,0.2c0.9,0,1.7-0.3,2.5-0.5c0.7-0.1,1.4-0.3,2.1-0.2c0.3,0.1,0.7,0.2,0.8,0.5
	c-1.7,0.3-2.4,2.5-1.9,4.1c0.3,0.9,1.9,1.9,2.5,1.4c0.4-0.3,0.2-0.7,0-0.9c-0.3-0.5-0.4-1.1,0.2-1.4c0.5-0.3,1,0.4,1,0.4
	c0.1,0,1.3-0.6,2-1.6c0.8,0,0.9-0.5,0.7-0.9S29.8,195,29.2,194.9z"/>
<path class="st3" d="M44.8,240.1c-1.8-4-3.1-7.4-3.6-9.3c-0.9-3.1-1.6-5.9-1.7-6.9c-0.4-2.5,3.2-2.6,3.6-1.4c0.7,1.8,2,7.9,3.5,17.1
	L44.8,240.1z M23.9,227.6c1.7-0.7,7.4-2.7,10.2-3.3c0.8-0.2,1.6-0.3,2.3-0.5c2.2-0.4,3.3,3.5,1.2,3.8c-5.2,0.7-12.6,1.5-13.2,1.6
	C23.6,229.4,22.9,228,23.9,227.6z"/>
<path class="st5" d="M37.8,222.8l-8.9-4.5v-1h1.1c8.6,2.2,13,3.6,13.2,4.2c0,0,0,0,0,0c0,0,0,0,0,0c1.7,2.4,2.7,13.8,3.1,14.7
	l-3.3,0.5c-1.3-4.7-5.3-7.9-5.2-13.5C37.8,223.1,37.8,223,37.8,222.8z"/>
<path class="st7" d="M29.6,225.5c-0.8-0.2-1.6-0.3-2.2-0.4c-4.2-0.7-5.4-3-4.7-7.8h7.7c1.3,0.4,7.8,3.1,11.1,4.5
	c2.2,1,1.5,4.4,0.3,5.3c0,0.1,0,0.1-0.1,0.1c-6.8,2.8-12.2,1.3-14,1.8l-0.8-2.6L29.6,225.5z"/>
<path class="st6" d="M25,227.5c-0.5,0.2-0.9,0.4-1.2,0.6c-0.3,0.2-0.7,0.5-1.2,1c0.1,0.2,1,2.3,2.8,6.1c0.8-0.4,1.2-0.8,1.1-1.2
	c-0.1-0.4-0.2-0.7-0.2-1l0.6-4.1c0-0.1-0.1-0.1-0.1-0.1c0,0,0,0,0,0L26,229c-0.4-0.2-0.6-0.3-0.7-0.5c-0.1-0.2-0.1-0.4,0-0.9l0,0
	C25.3,227.5,25.2,227.4,25,227.5C25,227.5,25,227.5,25,227.5z"/>
<path class="st6" d="M44,239.4c-0.2,0.4-0.2,0.7-0.2,0.9c0,0.3,0,0.6,0.1,1.1c0.3,0,2.9,0,7.9,0c0.2-0.7,0.1-1-0.4-1.1
	c-0.4-0.1-0.8-0.1-1.1-0.1l-3.7-1.6c-0.1,0-0.2,0-0.2,0.1c0,0,0,0,0,0l-0.2,0.6c-0.4,0.2-0.7,0.3-1,0.3c-0.2,0-0.5-0.1-0.9-0.3l0,0
	C44.2,239.1,44,239.2,44,239.4C44,239.4,44,239.4,44,239.4z"/>
<path class="st3" d="M37.6,213.4l5.1-2.2c0.9-0.9,1.8-1.6,2.6-2c0.2-0.1,0.7-0.1,0.2,0.6c-0.5,0.7-0.9,1.4-0.7,1.6
	c0.2,0.2,0.7,0,0.9,0.4c0.1,0.3-0.7,0.6-2.6,0.9l-3.8,2.9L37.6,213.4z M17,214l2.9,0.6c-2.9,5.4-4.4,8.2-4.7,8.6
	c-0.5,0.7,0,2.1,0.1,2.8c-1,0.2-0.6-1.3-1.9-1c-1.2,0.3-2.2,1-3.3,0c-0.1-0.1-0.2-0.5,0.2-0.7c1.1-0.5,2.8-1.4,3.1-1.8
	C13.9,222,15,219.2,17,214z"/>
<path class="st14" d="M27.7,203.3l1.2-0.2c2.6,2.6,3.7,8.7,5.5,9.5c1.7,0.8,4,0,6.8-1l0.9,1.9c-2.6,2.8-8,5.1-10.2,3.8
	C28.4,215.2,27.6,207.6,27.7,203.3z"/>
<path class="st29" d="M22.4,218.5c4.9,0,8.4,0,10.7,0c0.5,0,0.4-0.7,0.3-1.1c-0.8-4.1-4-8.6-4-14.5l-3.1-0.5
	C23.8,206.7,22.9,211.7,22.4,218.5z"/>
<path class="st15" d="M21.3,214.4c-2.2,4-4,6.8-5.5,8.5l-2.3-0.4c1.5-9,5.6-15.6,12.6-19.9h0.6h0.7c2.8,9.5,3.5,15.8,2.3,19H20
	C20.2,219.2,20.7,216.7,21.3,214.4L21.3,214.4z"/>
<path class="st20" d="M76.6,204.4c0.9-3,1-4.1,0.9-4.5c0-0.1-0.1-0.4-0.1-0.8c0-0.3,0-0.4,0.1-1c0-0.5,0.1-0.7,0-1
	c0-0.4-0.1-0.6-0.1-0.8c-0.1-0.3-0.2-0.5-0.4-0.7c-0.1-0.1-0.2-0.2-0.4-0.2c-0.3-0.1-0.5-0.2-0.7-0.2"/>
<path class="st20" d="M74.2,194.6c0.4-0.3,0.5-0.8,0.3-1.3c-0.2-0.4-0.7-0.7-1.1-0.8c-0.7-0.1-1.4,0.1-1.9,0.6
	c-0.3,0.3-0.5,0.6-0.8,0.7c-0.3,0.1-0.6,0-1,0.1c-0.4,0.1-0.8,0.4-1,0.7c-0.2,0.4-0.3,0.8-0.4,1.2c0,0.4-0.1,0.8-0.4,1.1
	c-0.3,0.3-0.7,0.3-1,0.5c-0.6,0.4-0.8,1.3-0.4,1.9c0.1,0.2,0.3,0.4,0.3,0.6c0,0.3-0.1,0.5-0.2,0.6c-0.5,0.7,0.1,2.7,0.3,4.1
	c0.3,2.1-0.2,3.6,0.1,3.7c0.3,0.1,1.1-1.7,1.7-2.3c0.3-0.3,0.6-0.5,0.6-0.5c0.1-0.1,0.2-0.2,0.3-0.2c0.3-0.2,0.5-0.1,1-0.3
	c0.3-0.1,0.3-0.2,0.4-0.2c0.1-0.1,0.1-0.2,0.1-0.5c0-0.8,0-0.9,0.1-1.1c0.1-0.2,0.2-0.3,0.3-0.4c0.3-0.3,0.5-0.1,0.7-0.4
	c0.2-0.2,0.3-0.5,0.5-0.7c0.3-0.3,0.7-0.3,1.1-0.4c0.8-0.3,1.5-0.9,1.8-1.7c0.5-1.1,0-2.2-0.1-2.5"/>
<path class="st19" d="M75,195.1c0.3,0,0.6,0.3,0.6,0.6l-0.4,8.6c0,1-1.5,1.6-2.6,1.6c-1.1,0-1.1-0.6-1.1-1.5c0-1.6,0-2.2,0-2.2
	c0,0-1.4-0.2-1.7-2c-0.1-0.9-0.1-2.4,0-3.6c0.1-1.1,0.8-2.4,1.9-2.3L75,195.1z"/>
<path class="st20" d="M73.9,194.5c0.4-0.3,1-0.4,1.4-0.3c0.5,0.1,0.9,0.6,0.9,1.1c0,0.3-0.1,0.7,0,0.9c0.1,0.3,0.5,0.4,0.7,0.6
	c0.4,0.3,0.5,0.9,0.3,1.3c-0.2,0.4-0.6,0.6-0.6,1c0,0.4,0.2,0.8,0.4,1.1c0.9,1.6,0.3,4-0.3,4.1c-0.1,0-0.1-0.1-0.4-0.1
	c-0.5-0.1-0.7,0.3-1,0.3c-0.7,0.1-2-1.8-1.8-3.3c0.1-0.7,0.4-1.1,0.4-1.1c0.2-0.3,0.6-0.5,0.6-0.8c0.1-0.5-0.5-1-0.5-1.5
	c0-0.3,0.2-0.5,0.4-0.7c0.2-0.2,0.3-0.5,0.2-0.8c-0.1-0.3-0.6-0.4-0.8-0.7c-0.2-0.2-0.3-0.5-0.2-0.8c0.1-0.4,0.6-0.6,0.7-0.6"/>
<path class="st20" d="M74,194.1c0,0.4-0.2,0.7-0.4,1c-0.3,0.2-0.7,0.3-1,0.3c-0.3,0-0.6-0.2-0.8,0c-0.3,0.2-0.3,0.5-0.5,0.7
	c-0.3,0.3-0.8,0-1.2,0.1c-0.3,0.1-0.5,0.4-0.7,0.6c-0.2,0.3-0.5,0.5-0.8,0.4c0-0.3,0-0.6,0.1-0.8c0.1-0.3,0.2-0.5,0.5-0.7
	c0.1-0.1,0.3-0.1,0.4-0.2c0.3-0.2,0.3-0.6,0.5-0.9c0.2-0.4,0.6-0.6,1-0.7c0.4,0,0.7,0.1,1.1,0c0.3-0.1,0.5-0.2,0.7-0.3
	c0.5-0.1,1,0.3,1.3,0.6"/>
<path class="st30" d="M62.2,212l3.2-0.3c0,0,2-5.2,4.4-6.5l1.6,2.8l-3.4,6.4h-6.6L62.2,212z"/>
<path class="st31" d="M62.2,212l3.2-0.3c0,0,2-5.2,4.4-6.5l1.6,2.8l-3.4,6.4h-6.6L62.2,212z"/>
<path class="st30" d="M73,214l1.7-6.7c0.3-1.2,1.4-1.9,2.6-1.7c1.2,0.2,2,1.4,1.8,2.6l-1,6.6c-0.2,1.4-1.3,2.4-2.7,2.6l-1.3,0.2
	L73,214z"/>
<path class="st30" d="M78.2,205.1c0,0-0.2-0.2-0.6-0.3c-0.2,0-0.5-0.1-0.7,0c-0.3,0.1-0.5,0.2-0.8,0.4c-0.5,0.4-0.8,0.9-0.9,1.3
	c-0.1,0.2-0.2,0.3-0.2,0.4c0,0.1-0.1,0.2-0.1,0.2c0,0,0-0.1,0.1-0.2c0-0.1,0.1-0.3,0.2-0.5c0.1-0.2,0.2-0.4,0.3-0.7
	c0.1-0.2,0.3-0.5,0.6-0.7c0.2-0.2,0.5-0.4,0.8-0.4c0.3-0.1,0.5,0,0.7,0c0.2,0.1,0.4,0.1,0.4,0.2C78.1,205,78.2,205.1,78.2,205.1
	C78.2,205.1,78.2,205.1,78.2,205.1z"/>
<path class="st30" d="M79.5,206.6c-0.2-1.2-0.8-1.5-1.5-1.9c-0.2-0.1-1.3-0.4-2.2-0.6c-0.1-0.5-0.2-1.4-0.3-1.6
	c0-0.3-4.4,0.4-4.4,0.5c0,0.1-0.1,1.1-0.2,1.9l-1,0.4l-1.3,1.7l-0.7,1c-0.4,0.6-0.7,1.2-0.9,1.9c-0.2,0.8-0.2,1.5-0.2,2.3l-0.2,4.4
	l9,2.6l0.7-4.5l2.3-3.2C78.8,210.2,79.7,208.1,79.5,206.6z"/>
<path class="st32" d="M58.2,222.5c0,0-1.4,0.3-2.7,0.1c-1.2-0.2-3.9,0-3.9,1.6c0,1.8,3.6,1.3,5,1.1c1.4-0.3,2.8-0.5,2.8-0.5
	L58.2,222.5z"/>
<path class="st33" d="M57.7,222.6l0.9,2.3l0.7-0.1l-1.4-2.2L57.7,222.6z"/>
<path class="st13" d="M69.7,216.3c-0.1,0-9.6-2.6-13.5-3.7c-1-0.3-2.1-0.1-3,0.4l0,0c-1.3,0.8-1.9,2.4-1.6,3.9
	c0.2,1,0.8,1.8,1.6,2.3c2.5,1.5,7.9,4.8,8,4.7c0.2-0.1,6.9-0.3,6.9-0.3l-8-5.8l3.8,2.5L69.7,216.3z"/>
<path class="st19" d="M61.8,213.4l2-1l2,1.2l7.4,0.2l1.1,3.6l-10.7-2.5c0,0-1.9,0.2-2.1-0.3C61.3,214.2,61.8,213.4,61.8,213.4z"/>
<path class="st13" d="M67.8,219.2l-1,3.3l0.1,1c1.8,1.8,4.7,2,6.8,0.5c1.2-1,2-2.4,2-4l0-3.4L67.8,219.2z"/>
<path class="st18" d="M61.9,219.2c0,0-1.2-0.8-2.6-1.9c-1.4-1.1-2.6-1.9-2.5-1.9c0,0,1.2,0.8,2.6,1.9
	C60.8,218.3,61.9,219.2,61.9,219.2z"/>
<path class="st27" d="M63.6,213c0,0-0.4,0.2-1,0.4c-0.6,0.2-1,0.3-1,0.3c0,0,0.4-0.2,1-0.4C63.2,213.1,63.6,213,63.6,213z"/>
<path class="st27" d="M63.8,213.6c0,0-0.1,0-0.3,0.1c-0.2,0-0.5,0.1-0.8,0.2c-0.3,0.1-0.6,0.2-0.8,0.2c-0.2,0.1-0.3,0.1-0.3,0.1
	c0,0,0.1-0.1,0.3-0.1c0.2-0.1,0.5-0.2,0.8-0.2c0.3-0.1,0.6-0.1,0.8-0.1C63.7,213.6,63.8,213.6,63.8,213.6z"/>
<path class="st27" d="M63.6,214.2c0,0-0.5,0.1-1.1,0.3c-0.6,0.1-1.1,0.2-1.1,0.2c0,0,0.5-0.1,1.1-0.3
	C63.1,214.2,63.6,214.1,63.6,214.2z"/>
<path class="st18" d="M61,208.5l1.9,6.1c0,0.1,0.1,0.1,0.2,0.1l5.1,0.4c0.1,0,0.2,0.1,0.2,0.2v0.3c0,0.1-0.1,0.2-0.2,0.2l-13.8-0.3
	c-0.1,0-0.1,0-0.2-0.1l-2.4-6.4c0-0.1,0-0.2,0.2-0.2l9-0.4C60.9,208.4,61,208.5,61,208.5z"/>
<path class="st13" d="M59.3,224.7l-1.5-2.4l10.8-8.4c0.7-0.5,1.5-0.9,2.4-1c2.7-0.2,4.9,2,4.7,4.7l-0.2,2.1l-7.1,2.3L59.3,224.7z"/>
<path class="st18" d="M73.1,219C73.2,219,73.1,219,73.1,219c-0.1,0-0.1,0.1-0.1,0.1c-0.1,0.1-0.2,0.2-0.3,0.3
	c-0.1,0.1-0.2,0.1-0.2,0.2c-0.1,0.1-0.2,0.1-0.3,0.2c-0.1,0.1-0.2,0.2-0.4,0.2c-0.1,0-0.1,0.1-0.2,0.1c-0.1,0-0.1,0.1-0.2,0.1
	c-0.3,0.2-0.6,0.4-1,0.6c-0.2,0.1-0.4,0.2-0.6,0.3c-0.2,0.1-0.4,0.2-0.6,0.3c-0.8,0.4-1.7,0.7-2.7,1.1c-2,0.7-3.8,1.2-5.1,1.6
	c-0.3,0.1-0.6,0.2-0.9,0.3c-0.3,0.1-0.5,0.1-0.7,0.2c-0.2,0.1-0.3,0.1-0.4,0.1c0,0-0.1,0-0.1,0c0,0,0,0,0,0c0,0,0,0,0,0
	c0,0,0.1,0,0.1,0c0.1,0,0.2-0.1,0.4-0.1c0.2-0.1,0.4-0.1,0.7-0.2c0.3-0.1,0.6-0.2,0.9-0.3c1.3-0.4,3.1-0.9,5.1-1.6
	c1-0.3,1.9-0.7,2.7-1.1c0.2-0.1,0.4-0.2,0.6-0.3c0.2-0.1,0.4-0.2,0.6-0.3c0.4-0.2,0.7-0.4,1-0.5c0.1,0,0.1-0.1,0.2-0.1
	c0.1,0,0.1-0.1,0.2-0.1c0.1-0.1,0.2-0.2,0.4-0.2c0.1-0.1,0.2-0.1,0.3-0.2c0.1-0.1,0.2-0.1,0.3-0.2c0.1-0.1,0.3-0.2,0.4-0.3
	C73.1,219.1,73.1,219.1,73.1,219C73.1,219,73.1,219,73.1,219z"/>
<path class="st18" d="M73.4,220.1c0,0,0,0-0.1,0.1c-0.1,0-0.2,0.1-0.3,0.1c-0.3,0.1-0.6,0.2-1.1,0.3c-0.4,0.1-0.8,0.1-1.1,0.2
	c-0.1,0-0.3,0-0.3,0c-0.1,0-0.1,0-0.1,0c0,0,0.2,0,0.5-0.1c0.3,0,0.7-0.1,1.1-0.2c0.4-0.1,0.8-0.2,1.1-0.3
	C73.2,220.2,73.4,220.1,73.4,220.1z"/>
<path class="st18" d="M68.2,214.3c0,0-2.3,1.8-5.1,4c-2.9,2.2-5.2,4-5.2,4c0,0,2.3-1.8,5.1-4C65.9,216.1,68.2,214.3,68.2,214.3z"/>
<path class="st32" d="M67.6,223.2c-0.5-0.3-1.1-0.1-1.6,0.1c-0.3,0.1-0.7,0.3-1,0.2c-0.2-0.1-0.4-0.3-0.6-0.4
	c-0.7-0.7-1.8-1.1-2.8-1c-0.3,0-0.6,0.1-0.8,0.3c-0.5,0.5-0.1,1.3,0.3,1.7c0.8,0.8,1.9,1.3,3,1.5c0.9,0.1,2.2,0,3.2-0.4
	c0.6-0.3,0.9-1,0.6-1.5C67.9,223.5,67.8,223.3,67.6,223.2z"/>
<g class="st34">
	<path class="st33" d="M67.6,223.7c-0.5-0.3-1.1-0.1-1.6,0.1c-0.3,0.1-0.7,0.3-1,0.2c-0.2-0.1-0.4-0.3-0.6-0.4
		c-0.7-0.7-1.8-1.1-2.8-1c-0.3,0-0.6,0.1-0.8,0.3c-0.1,0.1-0.2,0.3-0.2,0.4c0.1,0.3,0.3,0.7,0.5,0.9c0.8,0.8,1.9,1.3,3,1.5
		c0.9,0.1,2.2,0,3.2-0.4c0.4-0.2,0.6-0.5,0.7-0.8c0-0.1-0.1-0.2-0.1-0.3C67.9,223.9,67.8,223.8,67.6,223.7z"/>
</g>
<path class="st16" d="M54.8,211.9c0.2,0,0.2,0,0.5,0.1c0.5,0.1,0.8,0,0.8,0c0,0.1-0.6,0.6-1.2,0.5c-0.2,0-0.5-0.2-0.5-0.3
	C54.4,212.1,54.6,212,54.8,211.9z"/>
</svg>
