<svg xmlns="http://www.w3.org/2000/svg" width="28.504" height="31.673" viewBox="0 0 28.504 31.673"><defs><style>.a{fill:#2d4453;}</style></defs><g transform="translate(0)"><g transform="translate(0)"><path class="a" d="M46.67,3.167H45.086V0H41.919V3.167H29.251V0H26.084V3.167H24.5a3.153,3.153,0,0,0-3.151,3.167l-.016,22.171A3.166,3.166,0,0,0,24.5,31.673H46.67a3.166,3.166,0,0,0,3.167-3.167V6.335A3.166,3.166,0,0,0,46.67,3.167Zm0,25.339H24.5V11.086H46.67Z" transform="translate(-21.333)"/><path class="a" d="M129.855,193.679,128.176,192l-7.728,7.728-3.357-3.357-1.679,1.679,5.036,5.036Z" transform="translate(-108.43 -177.747)"/></g></g></svg>