<svg xmlns="http://www.w3.org/2000/svg" width="28.135" height="28.312" viewBox="0 0 32.135 30.312"><defs><style>.a{fill:#727272;}</style></defs><g transform="translate(0 0)"><g transform="translate(0 0)"><path class="a" d="M64.38,106.388a.767.767,0,0,1-.708.473H55.28v12.685a.766.766,0,0,1-.766.766H42.26a.766.766,0,0,1-.766-.766V106.861H33.07a.766.766,0,0,1-.542-1.307l15.279-15.33a.767.767,0,0,1,1.084,0l15.323,15.33A.764.764,0,0,1,64.38,106.388Z" transform="translate(-32.304 -90)"/></g></g></svg>