<svg width="400" height="400" viewBox="0 0 400 400" fill="none" xmlns="http://www.w3.org/2000/svg">
<rect width="400" height="400" fill="white"/>
<path d="M106.403 244.259L199.506 83L292.61 244.259H106.403Z" fill="white" stroke="#0072CE" stroke-width="8"/>
<circle cx="182.497" cy="167.168" r="13.7184" fill="white" stroke="#0072CE" stroke-width="5"/>
<circle cx="186.057" cy="167.563" r="5.53797" fill="#1889DC"/>
<circle r="13.7184" transform="matrix(-1 0 0 1 215.934 167.168)" fill="white" stroke="#0072CE" stroke-width="5"/>
<circle r="5.53797" transform="matrix(-1 0 0 1 220.867 167.563)" fill="#1889DC"/>
<path d="M163.114 200C192.296 215.953 218.091 213.533 237.481 200" stroke="#0072CE" stroke-width="5"/>
<circle cx="163.128" cy="200.152" r="2.42229" fill="#0072CE"/>
<circle cx="236.604" cy="200.959" r="2.42229" fill="#0072CE"/>
<line y1="-3.5" x2="77.5316" y2="-3.5" transform="matrix(4.37114e-08 1 1 -4.37114e-08 218.493 247.468)" stroke="#0072CE" stroke-width="7"/>
<line y1="-3.5" x2="25.3165" y2="-3.5" transform="matrix(-1 0 0 1 240.646 325)" stroke="#0072CE" stroke-width="7"/>
<path d="M189.209 247.222L197.12 323.172" stroke="#0072CE" stroke-width="7"/>
<path d="M199.506 321.836L174.19 323.622" stroke="#0072CE" stroke-width="7"/>
</svg>
