<svg width="400" height="400" viewBox="0 0 400 400" fill="none" xmlns="http://www.w3.org/2000/svg">
<rect width="400" height="400" fill="white"/>
<path d="M202.779 84.0395L242.739 140.98C244.087 142.9 246.096 144.253 248.382 144.78L298.021 156.219C299.908 156.654 300.605 158.977 299.27 160.379L261.212 200.337C259.324 202.319 258.383 205.02 258.63 207.746L264.601 273.645C264.784 275.666 262.61 277.052 260.855 276.032L205.486 243.846C202.534 242.13 198.889 242.13 195.937 243.846L140.875 275.853C139.096 276.887 136.9 275.449 137.135 273.405L144.665 208.074C145.005 205.128 143.95 202.193 141.813 200.138L100.505 160.418C99.0662 159.034 99.7499 156.605 101.7 156.175L153.362 144.776C155.695 144.261 157.749 142.886 159.114 140.924L198.681 84.0479C199.673 82.6217 201.781 82.6174 202.779 84.0395Z" fill="white" stroke="#F1C400" stroke-width="7"/>
<line y1="-3.5" x2="75.529" y2="-3.5" transform="matrix(4.37114e-08 1 1 -4.37114e-08 215.69 249.471)" stroke="#F1C400" stroke-width="7"/>
<line y1="-3.5" x2="24.6625" y2="-3.5" transform="matrix(-1 0 0 1 237.27 325)" stroke="#F1C400" stroke-width="7"/>
<path d="M187.162 249.231L194.869 323.219" stroke="#F1C400" stroke-width="7"/>
<path d="M197.193 321.917L172.531 323.657" stroke="#F1C400" stroke-width="7"/>
<path d="M246.91 210.004C246.91 211.411 245.77 212.551 244.363 212.551C242.956 212.551 241.816 211.411 241.816 210.004C241.816 208.597 242.956 207.457 244.363 207.457C245.77 207.457 246.91 208.597 246.91 210.004Z" fill="#F1C400"/>
<path d="M163.361 209.494C195.346 227.105 223.62 224.434 244.872 209.494" stroke="#F1C400" stroke-width="5"/>
<path d="M165.398 208.985C165.398 210.392 164.258 211.532 162.851 211.532C161.444 211.532 160.304 210.392 160.304 208.985C160.304 207.578 161.444 206.438 162.851 206.438C164.258 206.438 165.398 207.578 165.398 208.985Z" fill="#F1C400"/>
<circle r="18.3874" transform="matrix(-1 0 0 1 219.909 168.229)" fill="white" stroke="#F1C400" stroke-width="5"/>
<circle r="7.13228" transform="matrix(-1 0 0 1 214.305 168.739)" fill="#F1C400"/>
<circle cx="178.134" cy="168.229" r="18.3874" fill="white" stroke="#F1C400" stroke-width="5"/>
<circle cx="170.493" cy="168.739" r="7.13228" fill="#F1C400"/>
</svg>
