<svg xmlns="http://www.w3.org/2000/svg" width="28.04" height="28.04" viewBox="0 0 28.04 28.04"><defs><style>.a{fill:#2d4453;}</style></defs><path class="a" d="M41.7,17.869H38.9V17.4a1.4,1.4,0,1,0-2.8,0v.467H31.422V17.4a1.4,1.4,0,1,0-2.8,0v.467H23.945V17.4a1.4,1.4,0,0,0-2.8,0v.467h-2.8A2.339,2.339,0,0,0,16,20.206V41.7a2.339,2.339,0,0,0,2.337,2.337H41.7A2.339,2.339,0,0,0,44.04,41.7v-21.5A2.339,2.339,0,0,0,41.7,17.869ZM37.03,17.4a.467.467,0,0,1,.935,0v2.8a.467.467,0,1,1-.935,0Zm-7.477,0a.467.467,0,0,1,.935,0v2.8a.467.467,0,1,1-.935,0Zm-7.477,0a.467.467,0,1,1,.935,0v2.8a.467.467,0,1,1-.935,0Zm-3.739,1.4h2.8v1.4a1.4,1.4,0,1,0,2.8,0V18.8h4.673v1.4a1.4,1.4,0,1,0,2.8,0V18.8H36.1v1.4a1.4,1.4,0,1,0,2.8,0V18.8h2.8a1.4,1.4,0,0,1,1.4,1.4v3.271H16.935V20.206A1.4,1.4,0,0,1,18.337,18.8ZM41.7,43.105H18.337a1.4,1.4,0,0,1-1.4-1.4V24.412H43.105V41.7A1.4,1.4,0,0,1,41.7,43.105Z" transform="translate(-16 -16)"/><path class="a" d="M402.337,216h-1.869a.467.467,0,0,0-.467.467v1.869a.467.467,0,0,0,.467.467h1.869a.467.467,0,0,0,.467-.467v-1.869A.467.467,0,0,0,402.337,216Zm-.467,1.869h-.935v-.935h.935Z" transform="translate(-377.568 -204.317)"/><path class="a" d="M242.337,376h-1.869a.467.467,0,0,0-.467.467v1.869a.467.467,0,0,0,.467.467h1.869a.467.467,0,0,0,.467-.467v-1.869A.467.467,0,0,0,242.337,376Zm-.467,1.869h-.935v-.935h.935Z" transform="translate(-226.915 -354.97)"/><path class="a" d="M162.337,216h-1.869a.467.467,0,0,0-.467.467v1.869a.467.467,0,0,0,.467.467h1.869a.467.467,0,0,0,.467-.467v-1.869A.467.467,0,0,0,162.337,216Zm-.467,1.869h-.935v-.935h.935Z" transform="translate(-151.588 -204.317)"/><path class="a" d="M82.337,296H80.467a.467.467,0,0,0-.467.467v1.869a.467.467,0,0,0,.467.467h1.869a.467.467,0,0,0,.467-.467v-1.869A.467.467,0,0,0,82.337,296Zm-.467,1.869h-.935v-.935h.935Z" transform="translate(-76.261 -279.643)"/><path class="a" d="M162.337,296h-1.869a.467.467,0,0,0-.467.467v1.869a.467.467,0,0,0,.467.467h1.869a.467.467,0,0,0,.467-.467v-1.869A.467.467,0,0,0,162.337,296Zm-.467,1.869h-.935v-.935h.935Z" transform="translate(-151.588 -279.643)"/><path class="a" d="M82.337,376H80.467a.467.467,0,0,0-.467.467v1.869a.467.467,0,0,0,.467.467h1.869a.467.467,0,0,0,.467-.467v-1.869A.467.467,0,0,0,82.337,376Zm-.467,1.869h-.935v-.935h.935Z" transform="translate(-76.261 -354.97)"/><path class="a" d="M162.337,376h-1.869a.467.467,0,0,0-.467.467v1.869a.467.467,0,0,0,.467.467h1.869a.467.467,0,0,0,.467-.467v-1.869A.467.467,0,0,0,162.337,376Zm-.467,1.869h-.935v-.935h.935Z" transform="translate(-151.588 -354.97)"/><path class="a" d="M240.019,202.86l-2.337-.357-1.049-2.236a.467.467,0,0,0-.846,0l-1.049,2.236-2.337.357a.467.467,0,0,0-.264.789l1.7,1.747-.4,2.473a.467.467,0,0,0,.687.484l2.084-1.152,2.085,1.152a.467.467,0,0,0,.687-.484l-.4-2.473,1.7-1.747a.467.467,0,0,0-.264-.789Zm-2.274,2.051a.468.468,0,0,0-.127.4l.286,1.755-1.468-.812a.467.467,0,0,0-.452,0l-1.468.812.286-1.755a.467.467,0,0,0-.127-.4l-1.234-1.265,1.684-.257a.467.467,0,0,0,.352-.263l.732-1.56.732,1.56a.467.467,0,0,0,.352.263l1.684.257Z" transform="translate(-219.385 -189.25)"/><path class="a" d="M402.337,296h-1.869a.467.467,0,0,0-.467.467v1.869a.467.467,0,0,0,.467.467h1.869a.467.467,0,0,0,.467-.467v-1.869A.467.467,0,0,0,402.337,296Zm-.467,1.869h-.935v-.935h.935Z" transform="translate(-377.568 -279.643)"/><path class="a" d="M402.337,376h-1.869a.467.467,0,0,0-.467.467v1.869a.467.467,0,0,0,.467.467h1.869a.467.467,0,0,0,.467-.467v-1.869A.467.467,0,0,0,402.337,376Zm-.467,1.869h-.935v-.935h.935Z" transform="translate(-377.568 -354.97)"/><path class="a" d="M322.337,376h-1.869a.467.467,0,0,0-.467.467v1.869a.467.467,0,0,0,.467.467h1.869a.467.467,0,0,0,.467-.467v-1.869A.467.467,0,0,0,322.337,376Zm-.467,1.869h-.935v-.935h.935Z" transform="translate(-302.241 -354.97)"/></svg>