<svg xmlns="http://www.w3.org/2000/svg" width="26.041" height="23.168" viewBox="0 0 26.041 23.168"><defs><style>.a{fill:#2d4453;}</style></defs><path class="a" d="M23.975,2.267A7,7,0,0,0,18.767,0a6.551,6.551,0,0,0-4.092,1.412A8.371,8.371,0,0,0,13.021,3.14a8.367,8.367,0,0,0-1.654-1.727A6.55,6.55,0,0,0,7.275,0,7,7,0,0,0,2.066,2.267,8.14,8.14,0,0,0,0,7.826,9.692,9.692,0,0,0,2.583,14.17a55.074,55.074,0,0,0,6.465,6.068c.9.764,1.911,1.629,2.966,2.551a1.529,1.529,0,0,0,2.013,0c1.054-.922,2.07-1.788,2.967-2.552a55.043,55.043,0,0,0,6.465-6.068,9.691,9.691,0,0,0,2.583-6.344,8.139,8.139,0,0,0-2.066-5.558Zm0,0" transform="translate(-0.001)"/></svg>