<?xml version="1.0" encoding="utf-8"?>
<!-- Generator: Adobe Illustrator 21.0.0, SVG Export Plug-In . SVG Version: 6.00 Build 0)  -->
<svg version="1.1" id="Layer_1" xmlns="http://www.w3.org/2000/svg" xmlns:xlink="http://www.w3.org/1999/xlink" x="0px" y="0px"
	 viewBox="0 0 383 226" style="enable-background:new 0 0 383 226;" xml:space="preserve">
<style type="text/css">
	.st0{fill:#243C4B;}
	.st1{fill:#F1C400;}
	.st2{fill:#263238;}
	.st3{fill:#FFBE9D;}
	.st4{fill:#56CCF2;}
	.st5{opacity:0.3;fill:#43A4C4;enable-background:new    ;}
	.st6{fill:#CAC7BE;}
	.st7{opacity:0.4;fill:#98958F;enable-background:new    ;}
	.st8{fill:#303E4C;}
	.st9{fill:#455A64;}
	.st10{fill:#EB996E;}
	.st11{opacity:0.4;}
	.st12{fill:#EBEBEB;}
	.st13{fill:#2C2C2C;}
	.st14{fill:#F5F5F5;}
	.st15{fill:#3E417E;}
	.st16{fill:#B28B67;}
	.st17{fill:#8991DC;}
	.st18{fill-opacity:0.2;}
	.st19{fill:#1F28CF;}
	.st20{fill:#2B44FF;}
	.st21{fill:#DB2721;}
	.st22{fill:#FF4133;}
	.st23{fill:#191847;}
	.st24{fill:#E4E4E4;}
	.st25{fill:#997659;}
	.st26{fill:#2026A2;}
	.st27{fill:#EAE9E5;}
	.st28{opacity:0.6;}
	.st29{opacity:0.6;fill:#EAE9E5;enable-background:new    ;}
	.st30{fill:#323230;}
	.st31{fill:#E8505B;}
	.st32{fill:#E0E0E0;}
	.st33{fill:#DDE3E9;}
</style>
<path class="st0" d="M28.2,46l-9.5-35.9h4.9L29,33.6c0.6,2.5,1.1,4.9,1.5,7.4c0.9-3.8,1.5-6.1,1.6-6.6L39,10.1h5.7l5.1,18.2
	c1.3,4.5,2.2,8.7,2.8,12.7c0.5-2.3,1.1-4.9,1.8-7.8l5.6-23.1h4.8L55,46h-4.6l-7.6-27.4c-0.6-2.3-1-3.7-1.1-4.2
	c-0.4,1.7-0.7,3.1-1.1,4.2L33,46H28.2z M85.6,37.6l4.6,0.6c-0.7,2.7-2.1,4.7-4,6.2c-1.9,1.5-4.4,2.2-7.4,2.2c-3.8,0-6.8-1.2-9.1-3.5
	c-2.2-2.4-3.3-5.6-3.3-9.9c0-4.4,1.1-7.8,3.4-10.2c2.3-2.4,5.2-3.6,8.8-3.6c3.5,0,6.3,1.2,8.5,3.6c2.2,2.4,3.3,5.7,3.3,10
	c0,0.3,0,0.7,0,1.2H70.9c0.2,2.9,1,5,2.4,6.6c1.5,1.5,3.3,2.3,5.4,2.3c1.6,0,3-0.4,4.1-1.3C84.1,40.8,85,39.5,85.6,37.6z M71.2,30.5
	h14.5c-0.2-2.2-0.8-3.8-1.7-4.9c-1.4-1.7-3.2-2.5-5.5-2.5c-2,0-3.7,0.7-5.1,2C72.1,26.4,71.3,28.2,71.2,30.5z M95.7,46V10.1h4.4V46
	H95.7z M123.9,36.5l4.3,0.6c-0.5,3-1.7,5.3-3.7,7c-1.9,1.7-4.3,2.5-7.2,2.5c-3.6,0-6.4-1.2-8.6-3.5c-2.2-2.3-3.2-5.7-3.2-10
	c0-2.8,0.5-5.3,1.4-7.4c0.9-2.1,2.3-3.7,4.2-4.7c1.9-1.1,4-1.6,6.2-1.6c2.8,0,5.1,0.7,6.9,2.2c1.8,1.4,2.9,3.4,3.5,6.1l-4.3,0.7
	c-0.4-1.7-1.1-3.1-2.2-3.9c-1-0.9-2.3-1.3-3.7-1.3c-2.2,0-4,0.8-5.4,2.4c-1.4,1.6-2.1,4.1-2.1,7.5c0,3.5,0.7,6,2,7.6
	c1.3,1.6,3.1,2.4,5.2,2.4c1.7,0,3.2-0.5,4.3-1.6C122.9,40.3,123.6,38.7,123.9,36.5z M130.4,33c0-4.8,1.3-8.4,4-10.7
	c2.2-1.9,5-2.9,8.2-2.9c3.6,0,6.5,1.2,8.8,3.5c2.3,2.3,3.4,5.6,3.4,9.7c0,3.3-0.5,6-1.5,7.9c-1,1.9-2.5,3.4-4.4,4.5
	c-1.9,1.1-4,1.6-6.3,1.6c-3.6,0-6.6-1.2-8.8-3.5C131.5,40.7,130.4,37.4,130.4,33z M134.9,33c0,3.3,0.7,5.8,2.2,7.5
	c1.5,1.6,3.3,2.5,5.5,2.5c2.2,0,4-0.8,5.5-2.5c1.5-1.7,2.2-4.2,2.2-7.6c0-3.2-0.7-5.7-2.2-7.3c-1.5-1.7-3.3-2.5-5.4-2.5
	c-2.2,0-4,0.8-5.5,2.5S134.9,29.7,134.9,33z M160,46V20h3.9v3.7c0.8-1.3,1.9-2.3,3.3-3.1c1.4-0.8,2.9-1.2,4.6-1.2
	c1.9,0,3.5,0.4,4.7,1.2c1.2,0.8,2.1,1.9,2.6,3.4c2.1-3,4.7-4.6,8-4.6c2.6,0,4.6,0.7,6,2.2c1.4,1.4,2.1,3.6,2.1,6.6V46h-4.4V29.6
	c0-1.8-0.1-3-0.4-3.8c-0.3-0.8-0.8-1.4-1.5-1.9c-0.8-0.5-1.6-0.7-2.6-0.7c-1.8,0-3.3,0.6-4.6,1.8c-1.2,1.2-1.8,3.2-1.8,5.8V46h-4.4
	V29.1c0-2-0.4-3.4-1.1-4.4c-0.7-1-1.9-1.5-3.5-1.5c-1.2,0-2.4,0.3-3.5,1c-1,0.7-1.8,1.6-2.3,2.9c-0.5,1.3-0.7,3.1-0.7,5.4V46H160z
	 M219.6,37.6l4.6,0.6c-0.7,2.7-2,4.7-4,6.2c-1.9,1.5-4.4,2.2-7.4,2.2c-3.8,0-6.8-1.2-9.1-3.5c-2.2-2.4-3.3-5.6-3.3-9.9
	c0-4.4,1.1-7.8,3.4-10.2c2.3-2.4,5.2-3.6,8.8-3.6c3.5,0,6.3,1.2,8.5,3.6c2.2,2.4,3.3,5.7,3.3,10c0,0.3,0,0.7,0,1.2h-19.4
	c0.2,2.9,1,5,2.4,6.6c1.5,1.5,3.3,2.3,5.4,2.3c1.6,0,3-0.4,4.1-1.3C218,40.8,218.9,39.5,219.6,37.6z M205.1,30.5h14.5
	c-0.2-2.2-0.8-3.8-1.7-4.9c-1.4-1.7-3.2-2.5-5.5-2.5c-2,0-3.7,0.7-5.1,2C206,26.4,205.2,28.2,205.1,30.5z M253.3,42.1l0.6,3.9
	c-1.2,0.3-2.4,0.4-3.3,0.4c-1.6,0-2.8-0.3-3.7-0.8c-0.9-0.5-1.5-1.2-1.9-2c-0.4-0.8-0.5-2.6-0.5-5.2v-15h-3.2V20h3.2v-6.4l4.4-2.6
	V20h4.4v3.4h-4.4v15.2c0,1.3,0.1,2.1,0.2,2.4c0.2,0.4,0.4,0.6,0.8,0.9c0.4,0.2,0.9,0.3,1.5,0.3C251.9,42.2,252.5,42.2,253.3,42.1z
	 M256,33c0-4.8,1.3-8.4,4-10.7c2.2-1.9,5-2.9,8.2-2.9c3.6,0,6.5,1.2,8.8,3.5c2.3,2.3,3.4,5.6,3.4,9.7c0,3.3-0.5,6-1.5,7.9
	c-1,1.9-2.5,3.4-4.4,4.5c-1.9,1.1-4,1.6-6.3,1.6c-3.6,0-6.6-1.2-8.8-3.5C257.1,40.7,256,37.4,256,33z M260.5,33
	c0,3.3,0.7,5.8,2.2,7.5c1.5,1.6,3.3,2.5,5.5,2.5c2.2,0,4-0.8,5.5-2.5c1.5-1.7,2.2-4.2,2.2-7.6c0-3.2-0.7-5.7-2.2-7.3
	c-1.5-1.7-3.3-2.5-5.4-2.5c-2.2,0-4,0.8-5.5,2.5C261.3,27.2,260.5,29.7,260.5,33z M309.2,42.1l0.6,3.9c-1.2,0.3-2.4,0.4-3.3,0.4
	c-1.6,0-2.8-0.3-3.7-0.8c-0.9-0.5-1.5-1.2-1.9-2c-0.4-0.8-0.5-2.6-0.5-5.2v-15h-3.2V20h3.2v-6.4l4.4-2.6V20h4.4v3.4h-4.4v15.2
	c0,1.3,0.1,2.1,0.2,2.4c0.2,0.4,0.4,0.6,0.8,0.9c0.4,0.2,0.9,0.3,1.5,0.3C307.7,42.2,308.4,42.2,309.2,42.1z M313.5,46V10.1h4.4V23
	c2.1-2.4,4.7-3.6,7.8-3.6c1.9,0,3.6,0.4,5,1.2c1.4,0.8,2.4,1.8,3,3.1c0.6,1.3,0.9,3.3,0.9,5.8V46h-4.4V29.5c0-2.2-0.5-3.8-1.4-4.8
	c-0.9-1-2.3-1.5-4-1.5c-1.3,0-2.5,0.3-3.7,1c-1.1,0.7-2,1.6-2.4,2.7c-0.5,1.2-0.7,2.8-0.7,4.8V46H313.5z M359.3,37.6l4.6,0.6
	c-0.7,2.7-2,4.7-4,6.2c-1.9,1.5-4.4,2.2-7.5,2.2c-3.8,0-6.8-1.2-9.1-3.5c-2.2-2.4-3.3-5.6-3.3-9.9c0-4.4,1.1-7.8,3.4-10.2
	c2.3-2.4,5.2-3.6,8.8-3.6c3.5,0,6.3,1.2,8.5,3.6c2.2,2.4,3.3,5.7,3.3,10c0,0.3,0,0.7,0,1.2h-19.4c0.2,2.9,1,5,2.4,6.6
	c1.5,1.5,3.3,2.3,5.4,2.3c1.6,0,3-0.4,4.1-1.3C357.7,40.8,358.6,39.5,359.3,37.6z M344.8,30.5h14.5c-0.2-2.2-0.8-3.8-1.7-4.9
	c-1.4-1.7-3.2-2.5-5.5-2.5c-2,0-3.7,0.7-5.1,2C345.7,26.4,344.9,28.2,344.8,30.5z"/>
<g>
	<path class="st1" d="M15.3,209V84.2h25.2v49.1h49.4V84.2h25.2V209H89.9v-54.6H40.5V209H15.3z M141,84.2h25.2v67.6
		c0,10.7,0.3,17.7,0.9,20.9c1.1,5.1,3.6,9.2,7.7,12.3c4.1,3.1,9.6,4.6,16.7,4.6c7.1,0,12.5-1.4,16.2-4.3c3.6-3,5.8-6.6,6.6-10.8
		c0.7-4.3,1.1-11.3,1.1-21.2v-69h25.2v65.5c0,15-0.7,25.6-2,31.8c-1.4,6.2-3.9,11.4-7.6,15.7c-3.6,4.3-8.5,7.7-14.6,10.2
		c-6.1,2.5-14.1,3.7-24,3.7c-11.9,0-21-1.4-27.2-4.1c-6.1-2.8-11-6.4-14.6-10.7c-3.6-4.4-5.9-9.1-7.1-13.9
		c-1.6-7.2-2.5-17.7-2.5-31.7V84.2z M267.3,84.2h49.9c9.9,0,17.2,0.4,22,1.3c4.9,0.8,9.2,2.5,13,5.1c3.9,2.6,7.1,6.1,9.6,10.5
		c2.6,4.3,3.8,9.2,3.8,14.6c0,5.8-1.6,11.2-4.8,16.1c-3.1,4.9-7.4,8.5-12.8,11c7.6,2.2,13.4,6,17.5,11.3c4.1,5.3,6.1,11.6,6.1,18.8
		c0,5.7-1.3,11.2-4,16.6c-2.6,5.3-6.2,9.6-10.8,12.9c-4.5,3.2-10.2,5.1-16.9,5.9c-4.2,0.5-14.3,0.7-30.4,0.9h-42.5V84.2z M292.5,105
		v28.9H309c9.8,0,15.9-0.1,18.3-0.4c4.3-0.5,7.7-2,10.1-4.4c2.5-2.5,3.7-5.8,3.7-9.8c0-3.9-1.1-7-3.2-9.4c-2.1-2.4-5.2-3.9-9.4-4.4
		c-2.5-0.3-9.7-0.4-21.5-0.4H292.5z M292.5,154.6V188h23.3c9.1,0,14.8-0.3,17.3-0.8c3.7-0.7,6.8-2.3,9.1-4.9
		c2.4-2.7,3.6-6.2,3.6-10.6c0-3.7-0.9-6.9-2.7-9.5c-1.8-2.6-4.5-4.5-7.9-5.7c-3.4-1.2-10.8-1.8-22.3-1.8H292.5z"/>
</g>
<path class="st2" d="M339.3,121.8c0.5-1.7,0.6-2.3,0.5-2.6c0,0-0.1-0.2-0.1-0.4c0-0.2,0-0.2,0-0.6c0-0.3,0-0.4,0-0.6
	c0-0.2-0.1-0.4-0.1-0.4c-0.1-0.2-0.1-0.3-0.2-0.4c-0.1-0.1-0.1-0.1-0.2-0.1c-0.2-0.1-0.3-0.1-0.4-0.1"/>
<path class="st2" d="M338,116.2c0.2-0.1,0.3-0.5,0.2-0.7c-0.1-0.2-0.4-0.4-0.7-0.4c-0.4-0.1-0.8,0.1-1.1,0.4
	c-0.1,0.2-0.3,0.3-0.5,0.4c-0.2,0.1-0.4,0-0.6,0c-0.2,0-0.5,0.2-0.6,0.4c-0.1,0.2-0.2,0.5-0.2,0.7c0,0.2,0,0.5-0.2,0.6
	c-0.2,0.2-0.4,0.2-0.6,0.3c-0.4,0.2-0.5,0.8-0.2,1.1c0.1,0.1,0.2,0.2,0.2,0.3c0,0.2-0.1,0.3-0.1,0.3c-0.3,0.4,0.1,1.5,0.2,2.3
	c0.2,1.2-0.1,2.1,0,2.1c0.2,0,0.6-1,0.9-1.3c0.2-0.2,0.3-0.3,0.3-0.3c0.1-0.1,0.1-0.1,0.2-0.1c0.2-0.1,0.3-0.1,0.5-0.2
	c0.2-0.1,0.2-0.1,0.2-0.1c0.1-0.1,0.1-0.1,0.1-0.3c0-0.4,0-0.5,0.1-0.6c0.1-0.1,0.1-0.2,0.2-0.2c0.2-0.1,0.3-0.1,0.4-0.2
	c0.1-0.1,0.2-0.3,0.3-0.4c0.2-0.1,0.4-0.2,0.6-0.3c0.5-0.2,0.8-0.5,1-1c0.3-0.6,0-1.3-0.1-1.4"/>
<path class="st3" d="M338.5,116.5c0.2,0,0.3,0.2,0.3,0.4l-0.2,4.9c0,0.6-0.9,0.9-1.5,0.9c-0.6,0-0.6-0.3-0.7-0.9c0-0.9,0-1.3,0-1.3
	c0,0-0.8-0.1-1-1.2c-0.1-0.5-0.1-1.4,0-2.1c0-0.6,0.5-1.4,1.1-1.3L338.5,116.5z"/>
<path class="st2" d="M337.8,116.1c0.2-0.2,0.5-0.2,0.8-0.2c0.3,0.1,0.5,0.3,0.5,0.6c0,0.2-0.1,0.4,0,0.5c0.1,0.2,0.3,0.2,0.4,0.3
	c0.2,0.2,0.3,0.5,0.1,0.7c-0.1,0.2-0.4,0.4-0.4,0.6c0,0.3,0.1,0.4,0.2,0.6c0.5,0.9,0.2,2.3-0.2,2.3c-0.1,0-0.1,0-0.2-0.1
	c-0.3,0-0.4,0.2-0.6,0.2c-0.4,0.1-1.2-1-1-1.9c0.1-0.4,0.2-0.6,0.2-0.6c0.1-0.1,0.3-0.3,0.4-0.5c0.1-0.3-0.3-0.5-0.3-0.9
	c0-0.2,0.1-0.3,0.2-0.4c0.1-0.1,0.2-0.3,0.1-0.4c-0.1-0.2-0.3-0.2-0.5-0.4c-0.1-0.1-0.2-0.3-0.1-0.5c0.1-0.2,0.4-0.3,0.4-0.3"/>
<path class="st2" d="M337.9,115.9c0,0.2-0.1,0.4-0.3,0.5c-0.2,0.1-0.4,0.2-0.6,0.2c-0.2,0-0.3-0.1-0.5,0c-0.1,0.1-0.1,0.3-0.3,0.4
	c-0.2,0.2-0.5,0-0.7,0.1c-0.2,0.1-0.3,0.2-0.4,0.4c-0.1,0.1-0.3,0.3-0.5,0.2c0-0.2,0-0.3,0.1-0.5c0-0.2,0.1-0.3,0.3-0.4
	c0.1,0,0.2-0.1,0.2-0.1c0.1-0.1,0.2-0.3,0.3-0.5c0.1-0.2,0.3-0.4,0.6-0.4c0.2,0,0.4,0,0.6,0c0.1,0,0.3-0.1,0.4-0.2
	C337.5,115.5,337.7,115.8,337.9,115.9"/>
<path class="st4" d="M331.1,126.2l1.8-0.2c0,0,1.1-3,2.5-3.7l0.9,1.6l-1.9,3.6h-3.8L331.1,126.2z"/>
<path class="st5" d="M331.1,126.2l1.8-0.2c0,0,1.1-3,2.5-3.7l0.9,1.6l-1.9,3.6h-3.8L331.1,126.2z"/>
<path class="st4" d="M337.3,127.3l0.9-3.8c0.2-0.7,0.8-1.1,1.5-1c0.7,0.1,1.2,0.8,1.1,1.5l-0.6,3.7c-0.1,0.8-0.8,1.4-1.6,1.5
	l-0.8,0.1L337.3,127.3z"/>
<path class="st4" d="M340.3,122.2c0,0-0.1-0.1-0.3-0.2c-0.1,0-0.3,0-0.4,0c-0.2,0-0.3,0.1-0.4,0.2c-0.3,0.2-0.4,0.5-0.5,0.7
	c-0.1,0.1-0.1,0.2-0.1,0.3c0,0.1,0,0.1,0,0.1c0,0,0,0,0-0.1c0-0.1,0.1-0.2,0.1-0.3c0-0.1,0.1-0.2,0.2-0.4c0.1-0.1,0.2-0.3,0.3-0.4
	c0.1-0.1,0.3-0.2,0.5-0.2c0.2,0,0.3,0,0.4,0C340.1,122,340.1,122.1,340.3,122.2C340.2,122.2,340.2,122.2,340.3,122.2
	C340.3,122.2,340.3,122.2,340.3,122.2z"/>
<path class="st4" d="M341,123.1c-0.1-0.7-0.5-0.8-0.9-1.1c-0.1-0.1-0.7-0.2-1.2-0.3c0-0.3-0.1-0.8-0.1-0.9c0-0.2-2.5,0.2-2.5,0.3
	c0,0-0.1,0.7-0.1,1.1l-0.6,0.2l-0.8,1l-0.4,0.6c-0.2,0.3-0.4,0.7-0.5,1.1c-0.1,0.4-0.1,0.9-0.1,1.3l-0.1,2.5l5.2,1.5l0.4-2.5
	l1.3-1.8C340.6,125.1,341.1,123.9,341,123.1z"/>
<path class="st6" d="M328.8,132.1c0,0-0.8,0.2-1.6,0.1c-0.7-0.1-2.2,0-2.2,0.9c0,1,2.1,0.8,2.9,0.6c0.8-0.2,1.6-0.3,1.6-0.3
	L328.8,132.1z"/>
<path class="st7" d="M328.6,132.2l0.5,1.3l0.4-0.1l-0.8-1.3L328.6,132.2z"/>
<path class="st8" d="M335.4,128.6c-0.1,0-5.5-1.5-7.7-2.1c-0.6-0.2-1.2-0.1-1.7,0.3l0,0c-0.7,0.5-1.1,1.4-0.9,2.2
	c0.1,0.5,0.5,1,0.9,1.3c1.4,0.9,4.5,2.7,4.6,2.7c0.1,0,3.9-0.1,3.9-0.1l-4.6-3.3l2.2,1.4L335.4,128.6z"/>
<path class="st3" d="M330.9,126.9l1.2-0.6l1.1,0.7l4.2,0.1l0.6,2.1l-6.1-1.4c0,0-1.1,0.1-1.2-0.2
	C330.6,127.4,330.9,126.9,330.9,126.9z"/>
<path class="st8" d="M334.3,130.2l-0.6,1.9l0.1,0.6c1,1,2.7,1.2,3.9,0.3c0.7-0.5,1.1-1.4,1.1-2.3l0-2L334.3,130.2z"/>
<path class="st9" d="M330.9,130.2c0,0-0.7-0.5-1.5-1.1c-0.8-0.6-1.5-1.1-1.5-1.1s0.7,0.5,1.5,1.1
	C330.3,129.7,330.9,130.2,330.9,130.2z"/>
<path class="st10" d="M331.9,126.7c0,0-0.2,0.1-0.6,0.2c-0.3,0.1-0.6,0.2-0.6,0.2c0,0,0.2-0.1,0.6-0.2S331.9,126.7,331.9,126.7z"/>
<path class="st10" d="M332,127.1c0,0-0.1,0-0.2,0c-0.1,0-0.3,0-0.5,0.1c-0.2,0-0.3,0.1-0.5,0.1c-0.1,0-0.2,0.1-0.2,0.1
	c0,0,0.1,0,0.2-0.1c0.1,0,0.3-0.1,0.5-0.1c0.2,0,0.4-0.1,0.5-0.1C331.9,127,332,127,332,127.1z"/>
<path class="st10" d="M331.9,127.4c0,0-0.3,0.1-0.6,0.1c-0.4,0.1-0.6,0.1-0.6,0.1c0,0,0.3-0.1,0.6-0.1
	C331.6,127.4,331.9,127.4,331.9,127.4z"/>
<path class="st9" d="M330.4,124.2l1.1,3.5c0,0,0,0.1,0.1,0.1l2.9,0.2c0.1,0,0.1,0,0.1,0.1v0.2c0,0.1,0,0.1-0.1,0.1l-7.9-0.1
	c0,0-0.1,0-0.1-0.1l-1.4-3.6c0-0.1,0-0.1,0.1-0.1l5.2-0.2C330.4,124.1,330.4,124.1,330.4,124.2z"/>
<path class="st8" d="M329.5,133.4l-0.8-1.4l6.1-4.8c0.4-0.3,0.9-0.5,1.3-0.5c1.5-0.1,2.8,1.1,2.7,2.7l-0.1,1.2l-4.1,1.3L329.5,133.4
	z"/>
<path class="st9" d="M337.4,130.1C337.4,130.1,337.4,130.1,337.4,130.1C337.3,130.2,337.3,130.2,337.4,130.1
	c-0.1,0.1-0.2,0.1-0.3,0.2c0,0-0.1,0.1-0.1,0.1c-0.1,0-0.1,0.1-0.2,0.1c-0.1,0-0.1,0.1-0.2,0.1c0,0-0.1,0.1-0.1,0.1
	c0,0-0.1,0-0.1,0.1c-0.2,0.1-0.3,0.2-0.6,0.3c-0.1,0.1-0.2,0.1-0.3,0.2c-0.1,0.1-0.2,0.1-0.3,0.2c-0.5,0.2-1,0.4-1.6,0.6
	c-1.1,0.4-2.2,0.7-2.9,0.9c-0.2,0.1-0.4,0.1-0.5,0.2c-0.1,0-0.3,0.1-0.4,0.1c-0.1,0-0.2,0.1-0.2,0.1c0,0,0,0-0.1,0c0,0,0,0,0,0
	c0,0,0,0,0,0c0,0,0,0,0.1,0c0.1,0,0.1,0,0.2-0.1c0.1,0,0.2-0.1,0.4-0.1c0.1,0,0.3-0.1,0.5-0.2c0.7-0.2,1.8-0.5,2.9-0.9
	c0.6-0.2,1.1-0.4,1.6-0.6c0.1-0.1,0.2-0.1,0.3-0.2c0.1-0.1,0.2-0.1,0.3-0.2c0.2-0.1,0.4-0.2,0.6-0.3c0,0,0.1,0,0.1-0.1
	c0,0,0.1-0.1,0.1-0.1c0.1,0,0.1-0.1,0.2-0.1c0.1,0,0.1-0.1,0.2-0.1c0.1,0,0.1-0.1,0.1-0.1C337.2,130.3,337.3,130.2,337.4,130.1
	C337.3,130.2,337.3,130.2,337.4,130.1C337.4,130.1,337.4,130.1,337.4,130.1z"/>
<path class="st9" d="M337.5,130.8C337.5,130.8,337.5,130.8,337.5,130.8c-0.1,0.1-0.2,0.1-0.2,0.1c-0.1,0.1-0.4,0.1-0.6,0.2
	c-0.2,0.1-0.5,0.1-0.6,0.1c-0.1,0-0.1,0-0.2,0c0,0-0.1,0-0.1,0c0,0,0.1,0,0.3,0c0.2,0,0.4,0,0.6-0.1c0.2-0.1,0.4-0.1,0.6-0.2
	C337.4,130.8,337.5,130.8,337.5,130.8z"/>
<path class="st9" d="M334.6,127.4c0,0-1.3,1-2.9,2.3s-3,2.3-3,2.3c0,0,1.3-1,2.9-2.3C333.2,128.5,334.5,127.4,334.6,127.4z"/>
<path class="st6" d="M334.2,132.6c-0.3-0.2-0.6-0.1-0.9,0c-0.2,0.1-0.4,0.2-0.6,0.1c-0.1,0-0.2-0.2-0.3-0.2c-0.4-0.4-1-0.6-1.6-0.6
	c-0.2,0-0.3,0.1-0.4,0.2c-0.3,0.3-0.1,0.7,0.2,1c0.5,0.5,1.1,0.8,1.7,0.8c0.5,0.1,1.3,0,1.8-0.3c0.3-0.1,0.5-0.5,0.3-0.9
	C334.4,132.7,334.3,132.6,334.2,132.6z"/>
<g class="st11">
	<path class="st7" d="M334.2,132.8c-0.3-0.2-0.6-0.1-0.9,0c-0.2,0.1-0.4,0.2-0.6,0.1c-0.1,0-0.2-0.2-0.3-0.2c-0.4-0.4-1-0.6-1.6-0.6
		c-0.2,0-0.3,0.1-0.4,0.2c-0.1,0.1-0.1,0.1-0.1,0.2c0,0.2,0.2,0.4,0.3,0.5c0.5,0.5,1.1,0.8,1.7,0.8c0.5,0.1,1.3,0,1.8-0.3
		c0.2-0.1,0.3-0.3,0.4-0.5c0-0.1,0-0.1-0.1-0.1C334.4,132.9,334.3,132.9,334.2,132.8z"/>
</g>
<path class="st12" d="M328,126.1c0.1,0,0.1,0,0.3,0.1c0.3,0.1,0.4,0,0.4,0c0,0.1-0.3,0.4-0.7,0.3c-0.1,0-0.3-0.1-0.3-0.2
	C327.8,126.2,327.9,126.1,328,126.1z"/>
<path class="st13" d="M300.5,181.5l-2.2-2.4l0,2.9l0.6,1.9l-6.4,1.1l-0.3-5.1l-0.5-3.9c-0.1-0.5,0.2-0.9,0.7-1.1l1.8-0.7l2.5,0.5
	l1,0.4c0.4,0.2,0.8,0.4,1.1,0.8l3,3.5"/>
<path class="st13" d="M298.1,182.6l-3.9-1.6c-0.3-0.1-0.5-0.4-0.6-0.8l-0.3-3.7c0,0,0-1.6-1-1.7l-0.6,0.2c-0.7,0.4-0.9,1.4-0.8,2.3
	c0.1,1.2,0.2,2.8,0.4,3.8c0.1,0.8,0.6,1.6,1.4,1.8l4.8,1L298.1,182.6z"/>
<path class="st14" d="M303.7,187.6c0.8,0,1.5,0.2,2,0.3c1.1,0.2,1.3,0.4,1.4,0.7c0.1,0.4-0.1,0.7-0.1,0.8c-0.4,0.6-1.4,0.6-1.8,0.5
	c-1-0.1-1.7-0.5-2.2-0.8L303.7,187.6z"/>
<path class="st12" d="M300.3,186.7c-1,0.2-1.7,0.5-2.1,0.8c-0.5,0.3-1.1,0.7-1.1,1.3c0,0.2,0.1,0.5,0.3,0.6c0.4,0.4,1.2,0.1,1.7-0.1
	c0.4-0.2,0.7-0.4,1.3-0.8c0.4-0.3,1-0.7,1-0.7L300.3,186.7z"/>
<path class="st15" d="M306.7,181.8c0,0,0.9,0.3,0.9,1.4c0,2-4,4.2-4,4.2l-5.4-3.5l-0.3-0.1C297.9,183.7,305.1,181,306.7,181.8z"/>
<path class="st9" d="M305.5,178.6l-1.9,4.8l-8.2,0.1l-0.2-0.4l2.9-0.1l1.4-4.3L305.5,178.6z"/>
<path class="st12" d="M301.8,180.8c0.1,0,0.2,0,0.3,0.1c0.3,0.1,0.5,0,0.5,0c0,0.1-0.4,0.4-0.8,0.3c-0.1,0-0.3-0.1-0.3-0.2
	C301.5,181,301.7,180.9,301.8,180.8z"/>
<path class="st15" d="M304.1,187.6c0,0-7.6-5-7.9-5.1c-0.3-0.1-1.1-0.6-1.8-0.4c-0.7,0.2-1.4,0.9-1.8,1.9c-0.2,0.6-0.3,1.5-0.3,2.2
	c-0.1,0.9,0.2,1.7,0.8,2.4c0.3,0.3,0.6,0.6,0.9,0.7c0.1,0,0.2,0,0.2,0.1c1.4,0.3,2.9-0.3,3.7-1.6l0.2-0.3c0,0,4.9,1.8,5,1.8
	L304.1,187.6z"/>
<path class="st13" d="M295.5,168.6c0.1-0.3,0.4-0.5,0.8-0.6c0.4-0.1,0.8,0,1,0.3c0.2,0.2,0.3,0.4,0.5,0.5c0.4,0.2,0.9-0.1,1.2,0.1
	c0.2,0.1,0.3,0.4,0.2,0.6c-0.1,0.2-0.3,0.4-0.6,0.3c0.2,0.1,0.3,0.5,0.1,0.7c-0.2,0.2-0.5,0.3-0.7,0.2c-0.3-0.1-0.5-0.3-0.7-0.4
	c-0.2-0.2-0.3-0.4-0.5-0.6c-0.2-0.2-0.4-0.3-0.7-0.3c-0.4,0-0.7,0.2-0.9,0.5c-0.2,0.3-0.3,0.7-0.3,1c-0.1,0.4-0.1,0.7-0.2,1.1
	c0,0,0,0.1-0.1,0.1c-0.1,0-0.1-0.1-0.1-0.1c-0.3-0.6-0.4-1.3-0.4-2c0-0.4,0-0.8,0.3-1.1C294.7,168.6,295.3,168.4,295.5,168.6z"/>
<path class="st3" d="M294.7,170.2l-0.6,4c-0.1,0.7,0.4,1.3,1.1,1.4c0.6,0.1,1.2-0.4,1.3-1c0-0.3,0.1-0.6,0.1-0.6c0,0,1,0,1.3-1
	c0.1-0.5,0.2-1.5,0.3-2.4c0.1-1-0.6-1.9-1.5-2.1l-0.1,0C295.5,168.3,294.8,169.2,294.7,170.2z"/>
<path class="st13" d="M298.5,170.5c-0.5,0-0.9-0.2-1.2-0.6c-0.2-0.3-0.3-0.6-0.6-0.8c-0.2-0.1-0.4-0.1-0.6,0
	c-0.2,0.1-0.4,0.2-0.6,0.3c0.1,0.6-0.2,1.1-0.4,1.6c0,0.1-0.1,0.1-0.1,0.1c-0.1,0-0.2,0-0.3-0.1c-0.1-0.1-0.1-0.3-0.1-0.5
	c0-0.4,0.1-0.8,0.2-1.1c0.2-0.4,0.4-0.7,0.7-0.9c0.4-0.3,0.9-0.3,1.4-0.2c0.5,0.1,0.9,0.4,1.2,0.7c0.1,0.2,0.3,0.4,0.3,0.6"/>
<path class="st16" d="M52.7,119.8c-0.4-0.4-0.6-0.9-0.6-1.5c0.1-1.6,2.4-1.3,2.9-0.5c0.4,0.8,0.4,2.9-0.2,3.1
	c-0.2,0.1-0.7-0.1-1.2-0.4l0.3,2.2h-1.8L52.7,119.8z"/>
<path class="st13" d="M54.6,117.3c0,0-0.1-0.1-0.2-0.1c0,0-0.1-0.1-0.1-0.1c-0.1,0-0.2,0.1-0.2,0.1c0,0,0,0,0,0c0,0,0,0.1-0.1,0.1
	c0,0.1-0.1,0.2-0.1,0.3c-0.1,0.2-0.1,0.4-0.2,0.6c-0.1,0.2-0.1,0.4-0.2,0.6c-0.1,0.3-0.2,0.6-0.3,0.9c-0.1,0.2-0.1,0.4-0.1,0.6
	c0,0,0,0,0,0c0,0,0,0,0,0c0,0,0,0.1,0,0.1c0,0,0,0.1,0,0.1c0.1-0.1,0.1-0.3,0.2-0.5c0,0,0,0,0,0c0,0,0-0.1,0.1-0.1
	c0.1-0.2,0.2-0.4,0.4-0.6c0.2-0.3,0.4-0.7,0.7-1c0.1-0.1,0.1-0.2,0.2-0.3c0-0.1,0.1-0.1,0.1-0.2c0,0,0.1-0.2,0.1-0.3
	C55,117.6,54.7,117.4,54.6,117.3z"/>
<path class="st17" d="M54.4,117.2c0,0,0-0.1,0-0.1c-0.2-0.1-0.9-0.2-1.5-0.1c-0.4,0.1-0.9,0.3-1.2,0.6c-0.3,0.2-0.5,0.6-0.6,1
	c-0.1,0.4-0.1,0.8-0.1,1.2c0,0.1,0,0.2,0.1,0.3c0,0.1,0,0.2,0.1,0.3c0,0.1,0.1,0.1,0.1,0.2c0,0.1,0,0.1,0,0.2c0,0.1-0.1,0.2-0.1,0.3
	c-0.1,0.2-0.1,0.3-0.2,0.5c-0.1,0.2-0.3,1-0.1,1.2h3.6c-0.1-0.2-0.4-0.5-0.4-0.8c0-0.2,0-0.5-0.1-0.5c-0.1-0.6-0.2-0.8-0.3-0.9
	c-0.1-0.1-0.2-0.1-0.2-0.2c0-0.3,0.1-0.7,0.2-1c0.1-0.4,0.2-0.8,0.3-1.2C53.9,118,54.2,117.2,54.4,117.2z"/>
<path class="st18" d="M53.2,117.6c-0.1,0.4-0.2,0.7-0.1,1.2H53C52.9,118.3,53,117.8,53.2,117.6L53.2,117.6z M51.4,118.7
	c0.3,0.6,0.4,1,1.1,1.5l-0.1,0C51.7,119.9,51.5,119.4,51.4,118.7L51.4,118.7z M52.4,118.1c0.1,0.9,0.1,1.4,0.7,2.3l-0.1,0
	C52.5,119.6,52.4,119,52.4,118.1L52.4,118.1z M51.7,120.7L51.7,120.7c0.8,0.2,0.7,0.6,1.6,1.1l-0.1,0
	C52.5,121.5,52.3,120.8,51.7,120.7z"/>
<path class="st16" d="M61.5,130.8c0.6-0.4,1.7,0.1,1.7,0.7c0,1.6-1.5,9.3-1.6,9.8c-0.1,0.5-0.9,0.6-1,0c-0.1-1-0.2-4.3-0.1-5.9
	c0.1-0.6,0.1-1.3,0.2-1.8c-0.8,1.4-2,3.4-3.6,6.1l-0.9-0.4c0.7-2.3,1.3-3.9,1.7-4.9c0.8-1.6,1.5-3,1.8-3.5
	C60.2,130.1,61,130.3,61.5,130.8z"/>
<path class="st19" d="M56.3,137.9l3-7.2c0.7-1.2,2.8,0.2,2.5,0.9c-0.6,1.5-3.4,6.5-3.6,7L56.3,137.9z"/>
<path class="st8" d="M56.1,138.7c-0.2,0.2-0.3,0.3-0.4,0.4c-0.1,0.1-0.2,0.3-0.2,0.6c0.1,0.1,1.4,0.8,3.8,2.2
	c0.3-0.3,0.3-0.5,0.1-0.6c-0.2-0.1-0.4-0.3-0.5-0.4l-1.3-1.8c0,0-0.1,0-0.1,0c0,0,0,0,0,0l-0.3,0.2c-0.2,0-0.4-0.1-0.6-0.1
	c-0.1-0.1-0.2-0.2-0.3-0.4l0,0C56.3,138.7,56.2,138.7,56.1,138.7C56.1,138.7,56.1,138.7,56.1,138.7z"/>
<path class="st8" d="M60.5,140.9c-0.1,0.2-0.1,0.4-0.1,0.5c0,0.1,0,0.3,0.1,0.6c0.2,0,1.6,0,4.3,0c0.1-0.4,0-0.6-0.2-0.6
	c-0.2,0-0.4-0.1-0.6-0.1l-2-0.9c0,0-0.1,0-0.1,0c0,0,0,0,0,0l-0.1,0.3c-0.2,0.1-0.4,0.2-0.5,0.2c-0.1,0-0.3,0-0.5-0.1l0,0
	C60.6,140.7,60.5,140.8,60.5,140.9C60.5,140.9,60.5,140.9,60.5,140.9z"/>
<path class="st20" d="M63.4,132c0,2-1,6.8-1,7.3l-2.1,0c0.3-4.3,0.4-6.4,0.3-6.5c-0.1-0.1-5.5,0.5-7.1,0.5c-2.3,0-3.3-1.5-3.3-4.2
	h4.6c0.9,0.1,5.8,1.1,7.6,1.4C63.2,130.8,63.4,131.4,63.4,132z"/>
<path class="st16" d="M58.7,128.2l2.2,2.1c0.6,0.3,1.2,0.6,1.6,0.9c0.1,0.1,0.2,0.3-0.2,0.2c-0.4-0.1-0.9-0.2-1,0
	c-0.1,0.1,0.2,0.4,0,0.5c-0.1,0.1-0.4-0.3-1-1.2l-2.3-1.3L58.7,128.2z M48,126.3l1.7,0c-1.3,4.2-2,6.3-2,6.5
	c-0.2,0.4,0.2,1.1,0.4,1.5c-0.5,0.2-0.5-0.6-1.1-0.3c-0.6,0.3-1.1,0.8-1.8,0.4c-0.1-0.1-0.2-0.3,0-0.4c0.6-0.4,1.4-1.1,1.5-1.3
	C46.8,132.4,47.2,130.2,48,126.3z"/>
<path class="st21" d="M53.1,121.5l0.7-0.1c1,3.7,6.4,6.2,6.8,7.6c0.1,0.5-0.2,0.8-0.1,0.9l-0.9,0.6c-0.1-0.2-0.5,0.1-1.1-0.1
	C57.9,130.3,53.1,125.9,53.1,121.5z"/>
<path class="st22" d="M54.3,122c-0.1,4.9,2.8,6.2,2.1,8.1c-0.5,1.6-5.5,3.4-6.4,1.8c-0.4-0.6-0.5-1.4-0.5-2.3
	c-0.2,0.7-0.4,1.2-0.5,1.7c-0.2,0.8-1.1,0.9-1.1,1.3l-1.1-0.3c0.1-0.4-0.5-0.6-0.3-1.6c0.6-4.3,2.4-7.3,5.2-9.3l0-0.4
	c0-0.2,0.2-0.3,0.3-0.3l2.1,0.1c0.2,0,0.3,0.2,0.3,0.3L54.3,122z"/>
<path class="st16" d="M78.8,119.1c0.4-0.4,0.6-1,0.6-1.6c-0.1-1.7-2.6-1.4-3-0.5c-0.5,0.9-0.4,3.1,0.2,3.3c0.2,0.1,0.8-0.1,1.3-0.4
	l-0.3,2.3h2L78.8,119.1z"/>
<path class="st23" d="M80.2,117c0.1-0.1,0.1-0.2,0.1-0.2c0-0.1,0.1-0.2,0.1-0.3c0-0.2,0-0.4-0.1-0.5c-0.1-0.1-0.3-0.2-0.4-0.2
	c-0.1,0-0.2,0-0.3,0c-0.1,0-0.2,0.1-0.3,0.1c0-0.2,0-0.4-0.1-0.6c-0.1-0.2-0.3-0.3-0.4-0.3c-0.2,0-0.4,0-0.5,0.1c0,0-0.1,0-0.1,0.1
	c0,0-0.1,0-0.1,0.1c0,0-0.1,0-0.1,0c0,0-0.1-0.1-0.1-0.1c-0.2-0.1-0.4-0.2-0.6-0.1c-0.1,0-0.2,0.1-0.2,0.2c-0.1,0.1-0.1,0.2-0.2,0.2
	c0,0-0.1,0-0.1,0c0,0-0.1-0.1-0.1-0.1c-0.1,0-0.1-0.1-0.2-0.1c-0.1,0-0.3,0-0.3,0.1c0,0.1,0,0.1,0,0.2c0,0.1,0,0.1,0,0.2
	c0,0.1,0,0.1,0,0.2c0,0,0,0.1,0,0.1c0,0-0.1,0-0.1,0c-0.1,0-0.1,0-0.2,0c0,0-0.1,0-0.1,0.1c0,0,0,0.1,0,0.1c0,0,0,0.1,0,0.1
	c-0.1,0-0.4-0.1-0.4,0c0,0,0,0.1,0,0.1c0,0.1,0.1,0.1,0.1,0.2c0.1,0.1,0.2,0.2,0.3,0.3c-0.1,0.1-0.2,0.3-0.1,0.4
	c0.1,0.1,0.1,0.1,0.2,0.1c0,0,0.1,0,0.1,0c0,0,0,0,0,0c0.1,0,0.2,0,0.3,0c0.2,0,0.3-0.1,0.5-0.2c0,0,0.1-0.1,0.1-0.1
	c0,0,0.1,0,0.1,0c0.1,0,0.2-0.1,0.3-0.1c0,0.1,0,0.3,0.1,0.4c0,0.1,0.1,0.1,0.2,0.1c0.3,0,0.6,0,0.9,0c-0.3,0.1-0.6,0.1-0.9,0.2
	c-0.1,0,0,0.1,0,0.2c0.1,0.1,0.2,0.2,0.2,0.4c0.1-0.2,0.4-0.3,0.6-0.2c0.2,0.1,0.4,0.4,0.3,0.6c-0.1,0.1-0.3,0.2-0.4,0.3
	c0.1,0.1,0.1,0.3,0.2,0.4c0,0.1,0.1,0.1,0.1,0.2c0,0,0.1,0,0.1,0c0,0,0,0.1,0.1,0.1c0.1,0.1,0.3,0.1,0.4,0c0.1-0.1,0.1-0.3,0-0.4
	c0.1-0.1,0.4-0.1,0.3-0.3c0.3,0,1-0.5,0.6-0.9c0.2-0.1,0.4-0.4,0.3-0.7C80.7,117.1,80.5,117,80.2,117z"/>
<path class="st16" d="M69.5,130.7c-0.7-0.4-1.8,0.1-1.8,0.7c0,1.7,1.6,9.9,1.7,10.4c0.1,0.5,1,0.7,1,0c0.1-1,0.2-4.6,0.1-6.3
	c-0.1-0.7-0.1-1.3-0.2-1.9c0.8,1.5,2.1,3.6,3.8,6.4l0.9-0.4c-0.7-2.4-1.3-4.2-1.8-5.2c-0.8-1.7-1.6-3.2-1.9-3.7
	C70.9,130,70,130.2,69.5,130.7z"/>
<path class="st19" d="M75,138.3l-3.2-7.6c-0.8-1.2-2.9,0.3-2.7,1c0.6,1.6,3.6,6.9,3.8,7.4L75,138.3z"/>
<path class="st24" d="M75.2,139.2c0.2,0.2,0.3,0.3,0.4,0.4c0.1,0.1,0.2,0.3,0.3,0.6c-0.1,0.1-1.5,0.9-4,2.3
	c-0.3-0.3-0.3-0.5-0.1-0.7c0.2-0.2,0.4-0.3,0.5-0.4l1.4-1.9c0,0,0.1,0,0.1,0c0,0,0,0,0,0l0.3,0.2c0.3,0,0.5-0.1,0.6-0.1
	c0.1-0.1,0.2-0.2,0.4-0.4l0,0C75,139.1,75.1,139.1,75.2,139.2C75.2,139.1,75.2,139.2,75.2,139.2z"/>
<path class="st24" d="M70.6,141.4c0.1,0.2,0.1,0.4,0.1,0.5c0,0.1,0,0.4-0.1,0.6c-0.2,0-1.7,0-4.6,0c-0.1-0.4-0.1-0.6,0.2-0.6
	c0.3,0,0.5-0.1,0.6-0.1l2.1-1c0,0,0.1,0,0.1,0c0,0,0,0,0,0l0.1,0.3c0.2,0.1,0.4,0.2,0.6,0.2c0.1,0,0.3,0,0.5-0.1l0,0
	C70.5,141.3,70.6,141.3,70.6,141.4C70.6,141.4,70.6,141.4,70.6,141.4z"/>
<path class="st20" d="M67.5,132c0,2.2,1,7.2,1,7.7l2.2,0c-0.3-4.5-0.4-6.8-0.3-6.8c0.1-0.1,5.8,0.6,7.5,0.6c2.4,0,3.5-1.5,3.5-4.4
	h-4.8c-1,0.1-6.1,1.1-8.1,1.5C67.7,130.7,67.5,131.4,67.5,132z"/>
<path class="st25" d="M75.8,124l-2.8-1.6c-0.5-0.6-0.9-1-1.4-1.3c-0.1-0.1-0.4-0.1-0.2,0.3c0.2,0.4,0.5,0.8,0.3,1
	c-0.1,0.1-0.4,0-0.5,0.2c-0.1,0.1,0.4,0.4,1.5,0.7l2.1,1.9L75.8,124z M71.4,125.3l-1.2-0.7c-0.2-0.7-0.4-1-0.6-1
	c-0.2-0.1,0.1,0.8-0.2,0.7c-0.4-0.1-1.2-0.7-1.4-0.6c-0.2,0.2,0,0.8,0.2,1.1c0.4,0.6,0.8,0.7,1.7,1c0.5,0.1,1,0.4,1.5,0.8
	L71.4,125.3z"/>
<path class="st26" d="M77.2,123.6c-1,0-2.3-0.2-3.7-1.1l-0.6,1.2c1,1,2.3,1.8,3.5,1.7C77.4,125.4,77.9,124.3,77.2,123.6z"/>
<path class="st19" d="M75.9,125.6c-1.1,0.3-2.8,0-5.3-0.9c-0.6,1.3-0.9,2.2-0.9,2.7c2.1,1.1,4,1.6,5.5,1.6c0,0.9,0.1,1.7,0.4,2.5
	c0.7,1.6,5.1,0.1,6.6,0.4c0.9-3-0.9-4.2-0.9-6.1c0-2.1-1.7-5.3-1.9-5.3h-2.3C77,122.1,76.4,123.8,75.9,125.6z"/>
<path class="st2" d="M193.9,175.8c0.3,0.1,0.6,0,0.9-0.2c0.2-0.2,0.4-0.5,0.4-0.8c0-0.3-0.1-0.6,0-0.9c0.1-0.2,0.2-0.3,0.3-0.5
	c0.1-0.3-0.1-0.6-0.3-0.8c-0.1-0.2-0.2-0.3-0.4-0.4c-0.1-0.1-0.3-0.2-0.5-0.2"/>
<path class="st2" d="M191.2,172c0,0.2-0.1,0.4-0.3,0.6c-0.1,0.2-0.3,0.3-0.3,0.6c-0.1,0.4,0.3,0.7,0.2,1.1c0,0.2-0.2,0.4-0.2,0.6
	c0,0.2,0.1,0.4,0.2,0.5c0.1,0.2,0.3,0.3,0.4,0.4c0,0,0.2,0.4,1,0.1"/>
<path class="st2" d="M194.6,172.4c0-0.2-0.2-0.3-0.4-0.4c-0.2-0.1-0.4-0.1-0.6-0.2c-0.1-0.1-0.2-0.3-0.4-0.4
	c-0.3-0.3-0.8-0.4-1.2-0.3c-0.4,0.1-0.8,0.5-0.9,0.9c-0.1,0.3,0,0.6,0.2,0.8c0.3,0.2,0.6,0.2,1,0.1c0.3-0.1,0.7-0.1,1,0.1
	c0.2,0.1,0.3,0.3,0.4,0.5c0.1,0.2,0.2,0.4,0.4,0.4c0.2,0.1,0.5,0,0.5-0.3"/>
<path class="st3" d="M193.8,172.4c0.2,0,0.3,0.2,0.3,0.3l-0.2,4.5c0,0.5-0.8,0.8-1.3,0.8c-0.6,0-0.6-0.3-0.6-0.8c0-0.8,0-1.2,0-1.1
	c0,0-0.7-0.1-0.9-1.1c-0.1-0.5,0-1.2,0-1.9c0-0.6,0.4-1.3,1-1.2L193.8,172.4z"/>
<path class="st3" d="M191.9,176.1c0,0,0.6,0,1.3-0.3c0,0-0.3,0.6-1.3,0.6V176.1z"/>
<path class="st2" d="M194.4,175.5c-0.3,0.1-0.5,0-0.7-0.2c-0.2-0.2-0.3-0.5-0.3-0.7c0-0.2,0.2-0.5,0.1-0.7c-0.1-0.3-0.5-0.4-0.6-0.7
	c-0.1-0.2,0-0.4-0.1-0.5c-0.1-0.2-0.2-0.2-0.4-0.3c-0.2-0.1-0.3-0.1-0.5-0.2c-0.1-0.1-0.2-0.3-0.1-0.4c0.7,0.1,1.4,0.3,2.1,0.5
	c0.2,0.1,0.3,0.1,0.4,0.3c0.1,0.1,0.1,0.3,0.1,0.5c0,0.8-0.1,1.7-0.1,2.5"/>
<path class="st3" d="M188.6,194.5l0,3.9l1.7-0.1l0.4-3.8L188.6,194.5z"/>
<path class="st27" d="M190.4,197.5c0,0-1.2,0.9-1.8,0.1l-0.2,0.4l-0.7,2.6c0,0.2,0,0.4,0.2,0.4c0.1,0,0.3,0,0.4-0.1
	c0.5-0.5,2.3-2.2,2.3-2.5l0-0.6C190.6,197.7,190.6,197.5,190.4,197.5z"/>
<g class="st28">
	<path class="st29" d="M188,201l2.6-2.8l0,0.1c0,0.1-0.1,0.2-0.1,0.3c-0.2,0.3-0.8,0.9-2.2,2.3C188.3,201,188.1,201,188,201z"/>
</g>
<path class="st3" d="M184.5,191.2l-2.1,4l1.7,1l2.7-3.9L184.5,191.2z"/>
<path class="st27" d="M182.7,194.7l-0.1,0.1c0,0-2.4-0.4-2.6-0.1l3.8,2.3l0.7-1.3C183.8,195.7,183.2,195.3,182.7,194.7z"/>
<g class="st28">
	<g class="st28">
		<g class="st28">
			<path class="st29" d="M183.8,197l0.2-0.3l-3.7-2.1c0,0-0.2,0-0.3,0.1L183.8,197z"/>
		</g>
	</g>
</g>
<path class="st30" d="M183.8,192.2l3.7-7.1c0,0,0.5-0.7,1.2-0.7c0.3,0,1.4,0.3,2.5,0.7l0-0.5l3.7,0.3c0,0,1.1,2,0.9,3.5
	c-0.2,1.4-0.5,1.4-0.5,1.4l-3-0.1l-1.3,0l-0.2,5.2l-2.7-0.3l-0.1-4.5l-1.8,3.4L183.8,192.2z"/>
<path class="st9" d="M194.9,184.8C194.9,184.8,194.9,184.8,194.9,184.8c0,0.1,0.1,0.1,0.1,0.2c0,0.1,0.1,0.1,0.1,0.2
	c0,0.1,0.1,0.2,0.1,0.3c0.2,0.4,0.4,1,0.6,1.7c0.1,0.7,0.1,1.3-0.1,1.8c0,0.1-0.1,0.2-0.1,0.3c0,0.1,0,0.2-0.1,0.2
	c0,0.1,0,0.1,0,0.1c0,0,0,0.1,0,0.1c0,0,0,0,0,0c0,0,0-0.1,0.1-0.1c0-0.1,0-0.1,0.1-0.2c0-0.1,0.1-0.2,0.1-0.3
	c0.1-0.4,0.2-1.1,0.1-1.8c-0.1-0.7-0.4-1.3-0.6-1.7c-0.1-0.1-0.1-0.2-0.1-0.3c0-0.1-0.1-0.1-0.1-0.2
	C195,184.9,194.9,184.9,194.9,184.8C194.9,184.8,194.9,184.8,194.9,184.8z"/>
<path class="st2" d="M193.7,177c0,0,0.1,0.1,0.2,0.3c0.1,0.2,0.1,0.3,0.1,0.3c0,0,0-0.2-0.1-0.3C193.8,177.1,193.7,177,193.7,177z"
	/>
<path class="st2" d="M192,177.2c0,0-0.1,0.1-0.1,0.3c0,0.2,0,0.3,0,0.3c0,0,0-0.1,0.1-0.3C191.9,177.3,192,177.2,192,177.2z"/>
<path class="st31" d="M190.4,177.9c0,0-0.7,0.4-0.7,1.5c-0.1,1-0.4,2.3-0.4,2.3l-2.7,0.3l0.2,1.4l4.5,0.2L190.4,177.9z"/>
<path class="st31" d="M194,176.7l0.4,0.5c0,0,1.1,0.3,1.3,0.4c0.2,0.1-0.4,2.3-0.4,2.3l0.1,4.5c0,0.3-0.3,0.6-0.6,0.6l-4.1-0.4
	l-0.4-5.1l0-1.6l1-0.3l0.6-0.6c0.3,0.4,0.9,0.5,1.3,0.2L194,176.7z"/>
<path class="st31" d="M195.7,177.5c0,0,0.8,0.3,0.9,1.6c0,0.8,0.3,2.2,0.5,3.1c0.1,0.5,0,1-0.3,1.4c-0.3,0.5-0.9,0.8-1.5,0.9
	l-3.5-0.5l0.1-1.3l3.2-0.4l0.1-2.4L195.7,177.5z"/>
<path class="st32" d="M191.3,184.6c0-0.1-1-4-1.2-4.8l-3.8-0.2l1.3,4.7L191.3,184.6z"/>
<path class="st12" d="M191.3,184.8c0-0.1-1-4-1.2-4.8l-3.8-0.2l1.3,4.7L191.3,184.8z"/>
<path class="st14" d="M191.1,184.9c0-0.1-1-4-1.2-4.8l-3.8-0.2l1.3,4.7L191.1,184.9z"/>
<path class="st32" d="M191.3,184.6c0-0.1-1-4-1.2-4.8l-3.8-0.2l1.3,4.7L191.3,184.6z"/>
<path class="st2" d="M191.3,184.6C191.3,184.6,191.3,184.6,191.3,184.6c-0.1,0-0.2,0-0.3,0c-0.2,0-0.4,0-0.7-0.1
	c-0.6-0.1-1.6-0.2-2.7-0.3l0,0c-0.4-1.3-0.8-2.9-1.3-4.7l0,0c0,0,0.1,0,0.1,0c1.3,0.1,2.6,0.1,3.7,0.2l0,0c0.4,1.4,0.7,2.6,0.9,3.5
	c0.1,0.4,0.2,0.8,0.3,1C191.2,184.3,191.2,184.4,191.3,184.6C191.3,184.5,191.3,184.5,191.3,184.6
	C191.3,184.6,191.3,184.6,191.3,184.6C191.3,184.6,191.3,184.6,191.3,184.6C191.3,184.6,191.3,184.5,191.3,184.6
	c0-0.1-0.1-0.2-0.1-0.3c-0.1-0.2-0.1-0.6-0.2-1c-0.2-0.9-0.5-2.1-0.9-3.5l0,0l0,0c-1.1-0.1-2.3-0.1-3.7-0.2c0,0-0.1,0-0.1,0l0,0l0,0
	c0.5,1.7,1,3.3,1.3,4.6l0,0l0,0c1.1,0.1,2,0.2,2.7,0.2c0.3,0,0.6,0,0.7,0.1C191.1,184.6,191.2,184.6,191.3,184.6
	C191.3,184.6,191.3,184.6,191.3,184.6z"/>
<path class="st12" d="M191.3,184.8c0-0.1-1-4-1.2-4.8l-3.8-0.2l1.3,4.7L191.3,184.8z"/>
<path class="st2" d="M191.3,184.8C191.3,184.8,191.3,184.8,191.3,184.8c-0.1,0-0.2,0-0.3,0c-0.2,0-0.4,0-0.7-0.1
	c-0.6-0.1-1.6-0.2-2.7-0.3l0,0c-0.4-1.3-0.8-2.9-1.3-4.7l0,0c0,0,0.1,0,0.1,0c1.3,0.1,2.6,0.1,3.7,0.2l0,0c0.4,1.4,0.7,2.6,0.9,3.5
	c0.1,0.4,0.2,0.8,0.3,1C191.2,184.6,191.2,184.7,191.3,184.8C191.3,184.7,191.3,184.8,191.3,184.8
	C191.3,184.8,191.3,184.8,191.3,184.8C191.3,184.8,191.3,184.8,191.3,184.8C191.3,184.8,191.3,184.7,191.3,184.8
	c0-0.1-0.1-0.2-0.1-0.3c-0.1-0.2-0.1-0.6-0.2-1c-0.2-0.9-0.5-2.1-0.9-3.5l0,0l0,0c-1.1-0.1-2.3-0.1-3.7-0.2c0,0-0.1,0-0.1,0l0,0l0,0
	c0.5,1.7,1,3.3,1.3,4.6l0,0l0,0c1.1,0.1,2,0.2,2.7,0.2c0.3,0,0.6,0,0.7,0.1C191.1,184.8,191.2,184.8,191.3,184.8
	C191.3,184.8,191.3,184.8,191.3,184.8z"/>
<path class="st14" d="M191.1,184.9c0-0.1-1-4-1.2-4.8l-3.8-0.2l1.3,4.7L191.1,184.9z"/>
<path class="st2" d="M191.1,184.9C191.1,184.9,191.1,184.9,191.1,184.9c-0.1,0-0.2,0-0.3,0c-0.2,0-0.4,0-0.7-0.1
	c-0.6-0.1-1.6-0.2-2.7-0.3l0,0c-0.4-1.3-0.8-2.9-1.3-4.7l0,0c0,0,0.1,0,0.1,0c1.3,0.1,2.6,0.1,3.7,0.2l0,0c0.4,1.4,0.7,2.6,0.9,3.5
	c0.1,0.4,0.2,0.8,0.3,1C191.1,184.7,191.1,184.8,191.1,184.9C191.1,184.8,191.1,184.9,191.1,184.9
	C191.1,184.9,191.1,184.9,191.1,184.9C191.1,184.9,191.1,184.9,191.1,184.9C191.1,184.9,191.1,184.8,191.1,184.9
	c0-0.1-0.1-0.2-0.1-0.3c-0.1-0.2-0.1-0.6-0.2-1c-0.2-0.9-0.5-2.1-0.9-3.5l0,0l0,0c-1.1-0.1-2.4-0.1-3.7-0.2c0,0-0.1,0-0.1,0l0,0l0,0
	c0.5,1.7,1,3.3,1.3,4.6l0,0l0,0c1.1,0.1,2,0.2,2.7,0.2c0.3,0,0.6,0,0.7,0.1C191,184.9,191,184.9,191.1,184.9
	C191.1,184.9,191.1,184.9,191.1,184.9z"/>
<path class="st3" d="M191.9,182.6h-0.5c0,0-0.3-0.3-0.3-0.3c-0.1,0-0.4-0.1-0.4-0.1l0.1,0.4c0,0,0,0,0.1,0c0.1,0,0.1,0.1,0,0.1
	c-0.1,0-0.5,0-0.5,0s-0.5-0.3-0.6-0.2c-0.1,0-0.1,0.1,0,0.2c0.1,0.1,0.5,0.3,0.6,0.4l0.2,0l-0.1,0l-0.7-0.2c0,0-0.1,0-0.1,0
	c0,0,0,0.1,0,0.1c0.1,0.1,0.3,0.2,0.3,0.2s-0.1,0.2,0,0.2c0.1,0.1,0.4,0.3,0.4,0.3s0,0.1,0.1,0.2c0.1,0.1,1,0.1,1,0.1
	c0.1,0,0.4-0.2,0.4-0.2l0.2,0L191.9,182.6z"/>
<path class="st10" d="M190.4,183.5C190.4,183.5,190.4,183.5,190.4,183.5c-0.1,0-0.2,0-0.2,0c0,0-0.1,0-0.1-0.1
	c-0.1-0.1-0.1-0.1-0.2-0.1c0,0-0.1-0.1-0.1-0.1c0,0,0,0,0.1,0c0.1,0,0.1,0.1,0.2,0.1c0,0,0.1,0,0.1,0.1
	C190.2,183.5,190.3,183.5,190.4,183.5C190.4,183.5,190.4,183.5,190.4,183.5z"/>
<path class="st10" d="M190.4,183.8C190.4,183.8,190.4,183.9,190.4,183.8c-0.1,0.1-0.2,0-0.3,0c-0.1,0-0.1-0.1-0.1-0.1
	c0,0-0.1-0.1-0.1-0.1c0,0,0.1,0.1,0.2,0.2C190.3,183.9,190.3,183.9,190.4,183.8C190.4,183.9,190.4,183.8,190.4,183.8z"/>
<path class="st10" d="M190.7,183.1c0,0-0.1,0-0.1,0s-0.1,0-0.1,0c0,0,0.1,0,0.1,0C190.6,183.1,190.7,183.1,190.7,183.1z"/>
<path class="st3" d="M186.2,182.4c-0.1-0.1-0.1-0.2-0.1-0.3c0,0,0-0.1,0.1-0.1c0.1,0,0.8-0.2,0.9-0.2c0.1,0,0.1,0.1,0,0.2
	C187,182.1,186.2,182.4,186.2,182.4z"/>
<path class="st3" d="M186.3,182.9c-0.1-0.1-0.1-0.2-0.1-0.3c0,0,0-0.1,0.1-0.1c0.1,0,0.8-0.2,0.9-0.2c0.1,0.1,0.1,0.1,0,0.2
	C187.1,182.7,186.3,182.9,186.3,182.9z"/>
<path class="st3" d="M186.5,182.8c-0.1,0-0.1,0.1-0.2,0.1c0,0,0,0.1,0,0.1c0,0.1,0.1,0.2,0.2,0.2c0.1,0,0.6-0.1,0.6-0.1L187,183
	l0.3-0.1c0.1,0,0.1-0.2-0.1-0.2C187.2,182.7,186.7,182.8,186.5,182.8z"/>
<path class="st3" d="M186.3,182.7c-0.1-0.1-0.1-0.2-0.1-0.3c0,0,0-0.1,0.1-0.1c0.1,0,0.7-0.2,0.8-0.2c0.1,0,0.2,0.1,0.1,0.2
	C187,182.4,186.3,182.7,186.3,182.7z"/>
<path class="st10" d="M187,182.4c0,0,0,0-0.1,0c-0.1,0-0.2,0-0.3,0.1c-0.1,0-0.2,0.1-0.3,0.1c-0.1,0-0.1,0.1-0.1,0.1c0,0,0,0,0,0
	s0,0,0.1-0.1c0,0,0.1,0,0.1-0.1c0,0,0.1,0,0.2,0c0.1,0,0.2,0,0.3-0.1C187,182.4,187,182.4,187,182.4z"/>
<path class="st10" d="M186.9,182.2c0,0,0,0-0.1,0c-0.1,0-0.2,0-0.3,0.1c-0.1,0-0.2,0.1-0.2,0.1c-0.1,0-0.1,0.1-0.1,0.1c0,0,0,0,0,0
	c0,0,0,0,0.1-0.1c0.1,0,0.1-0.1,0.3-0.1c0.1,0,0.2,0,0.3,0C186.8,182.2,186.9,182.1,186.9,182.2z"/>
<path class="st10" d="M187,182.7c0,0,0,0-0.1,0c-0.1,0-0.2,0-0.3,0.1c-0.1,0-0.2,0-0.2,0.1c-0.1,0-0.1,0.1-0.1,0.1c0,0,0,0,0,0
	c0,0,0,0,0.1-0.1c0.1,0,0.1-0.1,0.2-0.1c0.1,0,0.2,0,0.3-0.1C187,182.7,187,182.7,187,182.7z"/>
<path class="st10" d="M187.1,182.9c0,0-0.1,0-0.2,0.1c-0.1,0-0.2,0-0.2,0c0,0,0.1,0,0.2-0.1C187,183,187.1,182.9,187.1,182.9z"/>
<path class="st16" d="M301.5,121.3c-0.3-0.4-0.6-0.9-0.5-1.4c0.1-1.5,2.3-1.2,2.7-0.4c0.4,0.8,0.4,2.8-0.2,2.9
	c-0.2,0.1-0.7-0.1-1.1-0.4l0.3,2.1h-1.7L301.5,121.3z"/>
<path class="st23" d="M302.7,118.5c-0.2,0-0.8-0.1-1-0.1c-0.1,0-0.2,0-0.2,0c0-0.1,0-0.1,0-0.2c0-0.1,0-0.1,0-0.2
	c-0.1-0.2-0.1-0.4-0.2-0.6c-0.2-0.3-0.5-0.6-0.9-0.8c-0.4-0.2-0.9-0.2-1.3-0.2c-0.5,0-0.9,0.2-1.3,0.3c-0.4,0.1-0.9,0.2-1.3,0.1
	c-0.4-0.1-0.8-0.3-1.1-0.5c-0.4-0.2-0.8-0.4-1.3-0.4c-0.4,0-0.8,0.2-1.2,0.4c-0.3,0.2-0.6,0.5-0.7,0.8c-0.2,0.4-0.2,0.8,0.1,1.2
	c0.4,0.5,1.1,0.6,1.7,0.6c0.3,0,0.7-0.1,1-0.2c0.4-0.2,0.8-0.4,1.2-0.6c0.2-0.1,0.4-0.2,0.6-0.2c0.2-0.1,0.4-0.1,0.6,0
	c0.2,0.1,0.4,0.3,0.6,0.3c0.2,0.1,0.4,0.1,0.7,0.1c0.4,0,0.9-0.1,1.3-0.2c0.3-0.1,0.7-0.2,1.1-0.1c0.1,0,0.4,0.1,0.4,0.2
	c-0.9,0.2-1.3,1.3-1,2.1c0.1,0.4,1,1,1.3,0.7c0.2-0.1,0.1-0.3,0-0.5c-0.2-0.2-0.2-0.6,0.1-0.7c0.2-0.1,0.5,0.2,0.5,0.2
	c0.1,0,0.6-0.3,1-0.8c0.4,0,0.5-0.2,0.4-0.4C303.6,118.8,303,118.6,302.7,118.5z"/>
<path class="st16" d="M310.7,141.8c-0.9-2.1-1.6-3.8-1.9-4.8c-0.5-1.6-0.8-3-0.9-3.6c-0.2-1.3,1.6-1.3,1.9-0.7c0.4,1,1,4.1,1.8,8.8
	L310.7,141.8z M300,135.4c0.9-0.3,3.8-1.4,5.3-1.7c0.4-0.1,0.8-0.2,1.2-0.2c1.1-0.2,1.7,1.8,0.6,2c-2.7,0.4-6.5,0.8-6.8,0.8
	C299.8,136.3,299.4,135.6,300,135.4z"/>
<path class="st19" d="M307.1,132.9l-4.6-2.3V130h0.5c4.5,1.1,6.7,1.9,6.8,2.2c0,0,0,0,0,0c0,0,0,0,0,0c0.9,1.2,1.4,7.1,1.6,7.6
	l-1.7,0.3c-0.6-2.4-2.7-4.1-2.7-6.9C307.1,133.1,307.1,133,307.1,132.9z"/>
<path class="st20" d="M302.9,134.3c-0.4-0.1-0.8-0.2-1.1-0.2c-2.1-0.4-2.8-1.5-2.4-4h4c0.6,0.2,4,1.6,5.7,2.3
	c1.2,0.5,0.8,2.3,0.1,2.7c0,0,0,0,0,0.1c-3.5,1.5-6.3,0.7-7.2,0.9l-0.4-1.4L302.9,134.3z"/>
<path class="st24" d="M300.2,135.2c-0.2,0-0.4,0.1-0.5,0.1c-0.1,0.1-0.3,0.2-0.5,0.3c0.1,0.1,0.7,1.4,1.8,3.7
	c0.4-0.1,0.5-0.2,0.4-0.4c-0.1-0.2-0.1-0.4-0.2-0.5l-0.1-2.1c0,0,0-0.1-0.1-0.1c0,0,0,0,0,0l-0.3,0c-0.2-0.1-0.3-0.3-0.4-0.4
	c0-0.1-0.1-0.2-0.1-0.5l0,0C300.4,135.2,300.3,135.2,300.2,135.2C300.3,135.2,300.3,135.2,300.2,135.2z"/>
<path class="st24" d="M310.3,141.4c-0.1,0.2-0.1,0.4-0.1,0.5c0,0.1,0,0.3,0.1,0.6c0.2,0,1.5,0,4.1,0c0.1-0.4,0-0.5-0.2-0.6
	c-0.2,0-0.4-0.1-0.6-0.1l-1.9-0.8c0,0-0.1,0-0.1,0c0,0,0,0,0,0l-0.1,0.3c-0.2,0.1-0.4,0.1-0.5,0.1c-0.1,0-0.3,0-0.4-0.1l0,0
	C310.4,141.3,310.3,141.4,310.3,141.4C310.3,141.4,310.3,141.4,310.3,141.4z"/>
<path class="st16" d="M307,128.1l2.6-1.2c0.5-0.5,0.9-0.8,1.3-1c0.1,0,0.3-0.1,0.1,0.3c-0.2,0.3-0.5,0.7-0.4,0.8
	c0.1,0.1,0.4,0,0.5,0.2c0.1,0.1-0.4,0.3-1.4,0.5l-2,1.5L307,128.1z M296.4,128.4l1.5,0.3c-1.5,2.8-2.3,4.3-2.4,4.4
	c-0.2,0.4,0,1.1,0.1,1.4c-0.5,0.1-0.3-0.7-1-0.5c-0.6,0.2-1.1,0.5-1.7,0c-0.1-0.1-0.1-0.3,0.1-0.4c0.6-0.3,1.5-0.7,1.6-0.9
	C294.8,132.5,295.4,131,296.4,128.4z"/>
<path class="st21" d="M301.9,122.8l0.6-0.1c1.4,1.3,1.9,4.5,2.8,4.9c0.9,0.4,2.1,0,3.5-0.5l0.4,1c-1.3,1.4-4.1,2.6-5.3,1.9
	C302.3,129,301.8,125.1,301.9,122.8z"/>
<path class="st33" d="M299.2,130.7c2.5,0,4.4,0,5.5,0c0.3,0,0.2-0.4,0.2-0.6c-0.4-2.1-2.1-4.4-2.1-7.5l-1.6-0.3
	C299.9,124.6,299.4,127.2,299.2,130.7z"/>
<path class="st22" d="M298.6,128.5c-1.1,2-2.1,3.5-2.8,4.4l-1.2-0.2c0.7-4.6,2.9-8.1,6.5-10.3h0.3h0.3c1.4,4.9,1.8,8.2,1.2,9.8h-5
	C298,131,298.3,129.8,298.6,128.5L298.6,128.5z"/>
</svg>
