<svg xmlns="http://www.w3.org/2000/svg" width="16.667" height="18" viewBox="0 0 16.667 18"><defs><style>.a{fill:#b80000;}</style></defs><g transform="translate(-2)"><path class="a" d="M15.667,8a5.665,5.665,0,0,0-2,10.967V22a.333.333,0,0,0,.333.333h.333V23a.333.333,0,0,0,.333.333h2A.333.333,0,0,0,17,23v-.667h.333A.333.333,0,0,0,17.667,22V18.967A5.665,5.665,0,0,0,15.667,8Zm1,13.667a.333.333,0,0,0-.333.333v.667H15V22a.333.333,0,0,0-.333-.333h-.333V20H17v1.667Zm.563-3.253a.333.333,0,0,0-.229.317v.6H14.333v-.6a.333.333,0,0,0-.229-.317,5,5,0,1,1,3.125,0Z" transform="translate(-5.333 -5.333)"/><path class="a" d="M26.333,2a.333.333,0,0,0,.333-.333V.333a.333.333,0,0,0-.667,0V1.667A.333.333,0,0,0,26.333,2Z" transform="translate(-16)"/><path class="a" d="M47.667,24H46.333a.333.333,0,0,0,0,.667h1.333a.333.333,0,1,0,0-.667Z" transform="translate(-29.333 -16)"/><path class="a" d="M3.667,24H2.333a.333.333,0,0,0,0,.667H3.667a.333.333,0,0,0,0-.667Z" transform="translate(0 -16)"/><path class="a" d="M41.183,7.127l-.943.943a.333.333,0,1,0,.471.471l.943-.943a.333.333,0,0,0-.471-.471Z" transform="translate(-25.429 -4.686)"/><path class="a" d="M10.069,38.24l-.943.943a.333.333,0,1,0,.471.471l.943-.943a.333.333,0,0,0-.471-.471Z" transform="translate(-4.686 -25.428)"/><path class="a" d="M40.712,38.241a.333.333,0,0,0-.471.471l.943.943a.333.333,0,1,0,.471-.471Z" transform="translate(-25.428 -25.429)"/><path class="a" d="M10.069,8.54a.333.333,0,0,0,.471-.471L9.6,7.126a.333.333,0,0,0-.471.471Z" transform="translate(-4.686 -4.686)"/><path class="a" d="M19,13a4,4,0,0,0-4,4,.333.333,0,1,0,.667,0A3.337,3.337,0,0,1,19,13.667.333.333,0,1,0,19,13Z" transform="translate(-8.667 -8.667)"/></g></svg>