<svg xmlns="http://www.w3.org/2000/svg" width="17.039" height="14.605" viewBox="0 0 17.039 14.605"><g transform="translate(0 -36.547)"><g transform="translate(0 36.547)"><path d="M13.084,80.392h-.609a.293.293,0,0,0-.3.3v3.043a1.525,1.525,0,0,1-1.521,1.521H2.738a1.465,1.465,0,0,1-1.075-.447,1.465,1.465,0,0,1-.447-1.074V75.828a1.465,1.465,0,0,1,.447-1.074,1.465,1.465,0,0,1,1.075-.447H9.432a.293.293,0,0,0,.3-.3v-.609a.293.293,0,0,0-.3-.3H2.738a2.638,2.638,0,0,0-1.935.8A2.638,2.638,0,0,0,0,75.828v7.911a2.637,2.637,0,0,0,.8,1.935,2.638,2.638,0,0,0,1.935.8h7.911a2.744,2.744,0,0,0,2.739-2.738V80.7a.293.293,0,0,0-.3-.3Z" transform="translate(0 -71.873)"/><path d="M205.913,36.728a.585.585,0,0,0-.428-.181h-4.868a.605.605,0,0,0-.428,1.036l1.673,1.673-6.2,6.2a.3.3,0,0,0,0,.437l1.084,1.084a.3.3,0,0,0,.437,0l6.2-6.2,1.674,1.673a.609.609,0,0,0,1.036-.428V37.155A.585.585,0,0,0,205.913,36.728Z" transform="translate(-189.055 -36.547)"/></g></g></svg>