<svg xmlns="http://www.w3.org/2000/svg" width="22.858" height="18.534" viewBox="0 0 22.858 18.534"><defs><style>.a{fill:#243c4b;}</style></defs><g transform="translate(0 0)"><path class="a" d="M1.853,37.333a1.853,1.853,0,1,0,1.853,1.853A1.851,1.851,0,0,0,1.853,37.333Z" transform="translate(0 -37.333)"/><path class="a" d="M1.853,165.333a1.853,1.853,0,1,0,1.853,1.853A1.851,1.851,0,0,0,1.853,165.333Z" transform="translate(0 -157.92)"/><path class="a" d="M1.853,293.333a1.853,1.853,0,1,0,1.853,1.853A1.851,1.851,0,0,0,1.853,293.333Z" transform="translate(0 -278.506)"/><rect class="a" width="17.298" height="2.471" transform="translate(5.56 15.445)"/><rect class="a" width="17.298" height="2.471" transform="translate(5.56 0.618)"/><rect class="a" width="17.298" height="2.471" transform="translate(5.56 8.031)"/></g></svg>