<svg xmlns="http://www.w3.org/2000/svg" width="22" height="20.483" viewBox="0 0 22 20.483"><defs><style>.a{fill:#2d4453;}</style></defs><g transform="translate(0 0)"><g transform="translate(0 0)"><path class="a" d="M9.828,10a2.255,2.255,0,0,0-1.328.429.316.316,0,0,1,.08.061l7.571,7.571.459.459a1.138,1.138,0,0,0,1.608,0l.459-.459,7.571-7.571a.316.316,0,0,1,.08-.061A2.255,2.255,0,0,0,25,10Z" transform="translate(-5.276 -6.207)"/><path class="a" d="M6.489,12.58a.316.316,0,0,1-.061-.08A2.255,2.255,0,0,0,6,13.828V25.966a2.22,2.22,0,0,0,.421,1.312.361.361,0,0,1,.057-.076l7.313-7.321Z" transform="translate(-3.724 -7.759)"/><path class="a" d="M18.915,33.38l-.19.19a1.9,1.9,0,0,1-2.686,0l-.19-.19L8.533,40.7a.247.247,0,0,1-.083.061A2.238,2.238,0,0,0,9.8,41.2H24.969a2.238,2.238,0,0,0,1.347-.444.247.247,0,0,1-.083-.061Z" transform="translate(-5.245 -20.719)"/><path class="a" d="M44.762,12.58l-7.3,7.3L44.773,27.2a.361.361,0,0,1,.057.076,2.22,2.22,0,0,0,.421-1.312V13.828a2.255,2.255,0,0,0-.429-1.328A.316.316,0,0,1,44.762,12.58Z" transform="translate(-23.251 -7.759)"/><path class="a" d="M2.955,5.045.489,2.58A.316.316,0,0,1,.429,2.5,2.255,2.255,0,0,0,0,3.828V15.966a2.223,2.223,0,0,0,.417,1.309A.361.361,0,0,1,.474,17.2l1.043-1.043V7.621A3.025,3.025,0,0,1,2.955,5.045Z" transform="translate(0 -1.552)"/><path class="a" d="M2.45,41.905a2.132,2.132,0,0,0,.588.311V41.34l-.5.5A.426.426,0,0,1,2.45,41.905Z" transform="translate(-1.521 -25.659)"/><path class="a" d="M3.828,0A2.255,2.255,0,0,0,2.5.429a.316.316,0,0,1,.08.061L5.25,3.16A2.886,2.886,0,0,1,6.1,3.034H17.7L20.248.489a.316.316,0,0,1,.08-.061A2.255,2.255,0,0,0,19,0Z" transform="translate(-1.552 0)"/><path class="a" d="M47.427,2.58,45.42,4.586h2.5V3.828A2.255,2.255,0,0,0,47.487,2.5.316.316,0,0,1,47.427,2.58Z" transform="translate(-28.192 -1.552)"/></g></g></svg>