<svg xmlns="http://www.w3.org/2000/svg" width="18.198" height="24.001" viewBox="0 0 18.198 24.001"><defs><style>.a{opacity:0.7;}</style></defs><g class="a"><g transform="translate(2.249 2.254)"><g transform="translate(0)"><path d="M119.792,48.818a6.835,6.835,0,0,0-8.48,10.292.378.378,0,0,0,.6-.465,6.078,6.078,0,0,1,7.541-9.152.378.378,0,1,0,.341-.675Z" transform="translate(-109.878 -48.082)"/></g></g><g transform="translate(4.744 5.804)"><g transform="translate(0)"><path d="M173.547,124.014a.378.378,0,0,0-.675.341,6.078,6.078,0,0,1-9.153,7.54.378.378,0,1,0-.465.6,6.835,6.835,0,0,0,10.292-8.478Z" transform="translate(-163.109 -123.806)"/></g></g><g transform="translate(12.973 3.872)"><path d="M339.88,83.3c-.094-.106-.192-.211-.293-.311s-.205-.2-.311-.293a.378.378,0,0,0-.5.567c.094.083.188.171.277.261s.177.183.261.277a.378.378,0,0,0,.567-.5Z" transform="translate(-338.647 -82.605)"/></g><g transform="translate(0 0)"><path d="M79.907,9.769a1.284,1.284,0,0,0,0-1.341l-.5-.816a.532.532,0,0,1-.071-.36l.148-.942a1.283,1.283,0,0,0-.515-1.242L78.2,4.507a.533.533,0,0,1-.2-.3l-.225-.928a1.283,1.283,0,0,0-.949-.949L75.894,2.1a.532.532,0,0,1-.3-.2l-.561-.771A1.283,1.283,0,0,0,73.786.61l-.943.148a.532.532,0,0,1-.359-.071l-.816-.5a1.283,1.283,0,0,0-1.341,0l-.816.5a.532.532,0,0,1-.36.071L68.208.61a1.283,1.283,0,0,0-1.242.515l-.561.771a.533.533,0,0,1-.305.2l-.928.225a1.283,1.283,0,0,0-.949.949L64,4.2a.532.532,0,0,1-.2.3l-.771.561a1.283,1.283,0,0,0-.515,1.242l.148.943a.532.532,0,0,1-.071.359l-.5.816a1.284,1.284,0,0,0,0,1.341l.5.816a.532.532,0,0,1,.071.36l-.148.942a1.283,1.283,0,0,0,.515,1.242l.771.561a.532.532,0,0,1,.2.3l.225.928a1.283,1.283,0,0,0,.949.949l.388.094-2.623,5.851a.378.378,0,0,0,.39.53l2.11-.252,1.216,1.743a.378.378,0,0,0,.31.162L67,24a.378.378,0,0,0,.31-.222L69.987,17.8l.339.207a1.283,1.283,0,0,0,1.341,0l.352-.214L74.7,23.777a.378.378,0,0,0,.31.222l.035,0a.378.378,0,0,0,.31-.162L76.573,22.1l2.11.252a.378.378,0,0,0,.39-.53l-2.624-5.854.373-.09a1.283,1.283,0,0,0,.949-.949L78,14a.532.532,0,0,1,.2-.3l.771-.561a1.283,1.283,0,0,0,.515-1.242l-.148-.943a.532.532,0,0,1,.071-.359ZM66.891,22.858l-.964-1.382a.378.378,0,0,0-.355-.159l-1.673.2,2.39-5.331a.529.529,0,0,1,.115.115l.561.771a1.3,1.3,0,0,0,.179.2l-1.258,2.806a.378.378,0,1,0,.69.309l1.253-2.8a1.3,1.3,0,0,0,.378,0l.943-.148a.531.531,0,0,1,.169,0ZM78.11,21.517l-1.673-.2a.378.378,0,0,0-.355.159l-.964,1.382-2.43-5.42a.533.533,0,0,1,.154,0l.942.148a1.3,1.3,0,0,0,.393,0l1.254,2.8a.378.378,0,1,0,.69-.309L74.86,17.261a1.3,1.3,0,0,0,.167-.188l.561-.771a.531.531,0,0,1,.127-.124ZM79.261,9.376l-.5.816a1.29,1.29,0,0,0-.173.871l.148.943a.53.53,0,0,1-.213.513l-.771.561a1.29,1.29,0,0,0-.494.739l-.225.928a.53.53,0,0,1-.392.392l-.928.225a1.29,1.29,0,0,0-.739.494l-.561.771a.529.529,0,0,1-.513.212l-.942-.148a1.29,1.29,0,0,0-.871.173l-.816.5a.53.53,0,0,1-.554,0l-.816-.5a1.289,1.289,0,0,0-.871-.173l-.943.148a.53.53,0,0,1-.513-.213l-.561-.771a1.29,1.29,0,0,0-.739-.494l-.928-.225a.53.53,0,0,1-.392-.392l-.225-.928a1.29,1.29,0,0,0-.494-.739l-.771-.561a.53.53,0,0,1-.212-.513l.148-.942a1.29,1.29,0,0,0-.173-.871l-.5-.816a.53.53,0,0,1,0-.554l.5-.816a1.29,1.29,0,0,0,.173-.871l-.148-.943a.53.53,0,0,1,.213-.513l.771-.561a1.29,1.29,0,0,0,.494-.739l.225-.928a.53.53,0,0,1,.392-.392l.928-.225a1.289,1.289,0,0,0,.739-.494l.561-.771a.529.529,0,0,1,.513-.213l.942.148a1.289,1.289,0,0,0,.871-.173l.816-.5a.53.53,0,0,1,.554,0l.816.5a1.289,1.289,0,0,0,.871.173l.943-.148a.53.53,0,0,1,.513.213l.561.771a1.29,1.29,0,0,0,.739.494l.928.225a.53.53,0,0,1,.392.392l.225.928a1.29,1.29,0,0,0,.494.739l.771.561a.53.53,0,0,1,.212.513l-.148.942a1.29,1.29,0,0,0,.173.871l.5.816A.53.53,0,0,1,79.261,9.376Z" transform="translate(-61.898 0)"/></g><g transform="translate(4.639 4.706)"><g transform="translate(0)"><path d="M169.735,103.614a.677.677,0,0,0-.57-.468l-2.276-.27-.96-2.081a.684.684,0,0,0-1.241,0l-.96,2.081-2.276.27a.683.683,0,0,0-.384,1.18l1.683,1.556-.447,2.248a.686.686,0,0,0,.669.818.684.684,0,0,0,.335-.088l2-1.119,2,1.119a.683.683,0,0,0,1-.73l-.447-2.248,1.683-1.556A.677.677,0,0,0,169.735,103.614Zm-2.538,1.857a.378.378,0,0,0-.114.351l.457,2.3-2.047-1.146a.378.378,0,0,0-.369,0l-2.047,1.146.457-2.3a.378.378,0,0,0-.114-.351l-1.722-1.592,2.329-.276a.378.378,0,0,0,.3-.217l.982-2.13.982,2.13a.378.378,0,0,0,.3.217l2.329.276Z" transform="translate(-160.849 -100.398)"/></g></g></g></svg>