<svg xmlns="http://www.w3.org/2000/svg" width="23.013" height="23.054" viewBox="0 0 23.013 23.054"><defs><style>.a{fill:#2d4453;}</style></defs><path class="a" d="M23.013,3.6a3.6,3.6,0,0,0-6.154-2.543L2.352,15.622A4.318,4.318,0,0,0,1.31,17.31l-.014.041L0,23.053l5.717-1.28.043-.014a4.324,4.324,0,0,0,1.69-1.042L21.959,6.148A3.581,3.581,0,0,0,23.013,3.6ZM3.17,20.5l-.606-.607L3,17.967l2.1,2.1ZM20.685,4.878,6.6,19.021,4.048,16.468,13.7,6.78,15.166,8.25l1.272-1.273L14.967,5.505l1.369-1.374L17.81,5.605l1.272-1.273L17.606,2.856l.527-.529a1.8,1.8,0,1,1,2.552,2.551ZM9.467,21.234H23.013v1.8H7.673Zm0,0" transform="translate(0 0.001)"/></svg>