<svg xmlns="http://www.w3.org/2000/svg" width="30.798" height="26.798" viewBox="0 0 33.798 29.798"><path d="M73.544,64.426H50.918a.566.566,0,0,0-.566.566V80.83a.566.566,0,0,0,.566.565H73.544a.565.565,0,0,0,.565-.565V64.992A.566.566,0,0,0,73.544,64.426ZM52.017,80.264l4.557-6.38,2.495,3.487-1.688,2.893Zm6.675,0,6.933-11.887,6.935,11.887ZM72.979,65.557v13.18L66.114,66.971a.589.589,0,0,0-.978,0L59.694,76.3l-2.658-3.718a.563.563,0,0,0-.921,0l-4.63,6.482V65.557Zm0,0" transform="translate(-45.332 -58.013)"/><path d="M33.743,21.029l-1.57-5.861V4.816a1.7,1.7,0,0,0-1.7-1.7H28.942l-.471-1.767A1.7,1.7,0,0,0,26.393.158L15.333,3.119H3.325a1.7,1.7,0,0,0-1.7,1.7V6.791l-.369.1a1.707,1.707,0,0,0-1.2,2.079l1.57,5.861V25.18a1.7,1.7,0,0,0,1.7,1.7H4.859l.471,1.767a1.694,1.694,0,0,0,2.077,1.2h0l11.06-2.962H30.476a1.7,1.7,0,0,0,1.7-1.7V23.205l.369-.1a1.706,1.706,0,0,0,1.2-2.078ZM26.686,1.253a.566.566,0,0,1,.691.4l.393,1.471H19.706ZM1.151,8.677a.572.572,0,0,1,.4-.7l.076-.02v2.5Zm5.964,20.07a.566.566,0,0,1-.691-.4L6.03,26.877h8.065ZM31.042,25.18a.565.565,0,0,1-.565.565H3.325a.565.565,0,0,1-.565-.565V4.816a.565.565,0,0,1,.565-.565H30.476a.565.565,0,0,1,.565.565Zm1.207-3.168-.075.022v-2.5l.477,1.781A.572.572,0,0,1,32.248,22.013Zm0,0" transform="translate(-0.001 -0.1)"/><path d="M115.024,97.322a2.263,2.263,0,1,0-2.263-2.262A2.263,2.263,0,0,0,115.024,97.322Zm0-3.394a1.131,1.131,0,1,1-1.131,1.131A1.131,1.131,0,0,1,115.024,93.929Zm0,0" transform="translate(-101.52 -83.555)"/></svg>