<svg xmlns="http://www.w3.org/2000/svg" width="21.134" height="21.133" viewBox="0 0 21.134 21.133"><defs><style>.a{opacity:0.7;}</style></defs><g class="a" transform="translate(0.001 -0.015)"><g transform="translate(-0.001 0.015)"><path d="M21.012,6.589,14.559.136a.413.413,0,0,0-.584,0L12.4,1.714a.413.413,0,0,0,0,.584l1.341,1.341L8.87,7.414,8,6.549a.414.414,0,0,0-.338-.118l-.712.08A6.5,6.5,0,0,0,3.114,8.4a.413.413,0,0,0,0,.584l3.127,3.127L.08,20.491a.413.413,0,0,0,.567.584l8.624-5.938,2.9,2.9a.413.413,0,0,0,.584,0,6.5,6.5,0,0,0,1.887-3.841l.08-.712a.413.413,0,0,0-.118-.338l-.865-.865,3.775-4.868L18.85,8.752a.413.413,0,0,0,.584,0l1.578-1.578a.413.413,0,0,0,0-.584ZM2.194,19.008,6.831,12.7l1.846,1.846ZM13.145,11.69l-.52-.52a.418.418,0,0,0-.657.1.412.412,0,0,0,.085.5l.008.008,1.813,1.813-.058.515a5.62,5.62,0,0,1-1.368,3.047L4,8.7A5.622,5.622,0,0,1,7.046,7.331l.515-.058L9.445,9.157a.417.417,0,0,0,.612.028.413.413,0,0,0,0-.584l-.6-.6,4.868-3.775,2.595,2.594Zm6-3.814-5.87-5.87.995-.995,5.87,5.87Z" transform="translate(0.001 -0.015)"/></g></g></svg>