<svg xmlns="http://www.w3.org/2000/svg" width="45.815" height="45.815" viewBox="0 0 45.815 45.815"><defs><style>.a{opacity:0.5;}</style></defs><g class="a"><path d="M22.907,0A22.907,22.907,0,1,0,45.815,22.907,22.934,22.934,0,0,0,22.907,0Zm0,43.906a21,21,0,1,1,21-21A21.022,21.022,0,0,1,22.907,43.906Z"/><path d="M132.437,119.074H120.983V107.62a.955.955,0,1,0-1.909,0v11.454H107.621a.954.954,0,0,0,0,1.909h11.454v11.454a.955.955,0,0,0,1.909,0V120.983h11.454a.954.954,0,0,0,0-1.909Z" transform="translate(-97.121 -97.121)"/></g></svg>