<svg xmlns="http://www.w3.org/2000/svg" width="23.948" height="17.655" viewBox="0 0 27.948 22.655"><defs><style>.a{opacity:0.55;}.b{fill:#212121;}</style></defs><g class="a" transform="translate(0 -27.089)"><path class="b" d="M7.669,38.432H6.139v-.012a7.721,7.721,0,0,1,13.179-5.568l2.525-2.436a11.182,11.182,0,0,0-7.966-3.327A11.311,11.311,0,0,0,2.612,38.43H1.064c-.948,0-1.336.634-.862,1.411l3.3,3.273c.655.655,1.049.675,1.724,0l3.3-3.273C9.005,39.065,8.616,38.432,7.669,38.432Zm20.076-1.362-3.3-3.266c-.673-.673-1.09-.633-1.723,0l-3.3,3.266c-.474.775-.087,1.409.861,1.409h1.528A7.722,7.722,0,0,1,8.629,43.99L6.1,46.422a11.249,11.249,0,0,0,19.229-7.943h1.55C27.833,38.478,28.22,37.843,27.745,37.069Z" transform="translate(0)"/></g></svg>