<svg xmlns="http://www.w3.org/2000/svg" width="27.347" height="28.368" viewBox="0 0 27.347 28.368"><defs><style>.a{fill:#2d4453;}</style></defs><g transform="translate(-7.804)"><g transform="translate(7.804)"><g transform="translate(0)"><path class="a" d="M32.725,3.077q-.087,0-.174,0H30.364V1.2A1.328,1.328,0,0,0,28.894,0H26.877a1.177,1.177,0,0,0-1.3,1.2v1.88h-8.2V1.2a1.177,1.177,0,0,0-1.3-1.2H14.061a1.328,1.328,0,0,0-1.47,1.2v1.88H10.4A2.529,2.529,0,0,0,7.8,5.534q0,.087,0,.174V25.463a2.781,2.781,0,0,0,2.6,2.905H32.551a2.781,2.781,0,0,0,2.6-2.905V5.708A2.529,2.529,0,0,0,32.725,3.077Zm-5.848-1.71H29v3.76H26.877Zm-12.817,0h1.948v3.76H14.061V1.367Zm19.721,24.1A1.42,1.42,0,0,1,32.551,27H10.4a1.42,1.42,0,0,1-1.23-1.538V10.937H33.782Zm0-19.755V9.57H9.173V5.708A1.162,1.162,0,0,1,10.4,4.443h2.187V5.2a1.407,1.407,0,0,0,1.47,1.3h2.017a1.265,1.265,0,0,0,1.3-1.229q0-.035,0-.069V4.443h8.2V5.2a1.265,1.265,0,0,0,1.229,1.3h2.086a1.407,1.407,0,0,0,1.47-1.3V4.443h2.187a1.162,1.162,0,0,1,1.23,1.265Z" transform="translate(-7.804)"/><path class="a" d="M120.323,201.764l-.615,3.418a.684.684,0,0,0,.991.718l3.076-1.606,3.076,1.606.308.068a.649.649,0,0,0,.41-.137.684.684,0,0,0,.273-.649l-.615-3.418,2.5-2.392a.752.752,0,0,0,.171-.718.718.718,0,0,0-.547-.444l-3.418-.513-1.538-3.11a.684.684,0,0,0-1.23,0l-1.538,3.11-3.418.513a.718.718,0,0,0-.547.444.752.752,0,0,0,.171.718ZM122.2,199a.615.615,0,0,0,.478-.376l1.094-2.187,1.094,2.187a.615.615,0,0,0,.478.376l2.427.342-1.743,1.675a.718.718,0,0,0-.205.615l.41,2.427-2.153-1.162-.308-.068-.308.068-2.153,1.162.41-2.427a.718.718,0,0,0-.205-.615l-1.743-1.675Z" transform="translate(-110.443 -181.496)"/></g></g></g></svg>