<svg xmlns="http://www.w3.org/2000/svg" width="31.334" height="31.334" viewBox="0 0 31.334 31.334"><defs><style>.a{fill:#2d4453;}</style></defs><g transform="translate(0)"><g transform="translate(0 10.575)"><g transform="translate(0)"><path class="a" d="M20.125,184.792c-.329-.2-.668-.4-1.006-.592a8.755,8.755,0,0,0,0-2.039c.339-.2.677-.395,1.005-.592a1.321,1.321,0,0,0,.535-1.628h0l-.72-1.739a1.321,1.321,0,0,0-1.53-.773c-.372.092-.751.191-1.129.292a8.758,8.758,0,0,0-1.442-1.441c.1-.378.2-.758.292-1.13a1.321,1.321,0,0,0-.773-1.529l-1.739-.72a1.321,1.321,0,0,0-1.628.535c-.2.329-.4.667-.592,1.006a8.759,8.759,0,0,0-2.039,0c-.2-.34-.395-.678-.592-1.005a1.321,1.321,0,0,0-1.628-.535l-1.739.72a1.321,1.321,0,0,0-.773,1.529c.093.372.191.752.292,1.129a8.753,8.753,0,0,0-1.441,1.442c-.379-.1-.759-.2-1.13-.292a1.321,1.321,0,0,0-1.53.773L.1,179.941a1.321,1.321,0,0,0,.535,1.628c.329.2.667.4,1.006.592a8.762,8.762,0,0,0,0,2.039c-.339.2-.677.394-1.005.592A1.321,1.321,0,0,0,.1,186.42l.72,1.739a1.321,1.321,0,0,0,1.53.773c.371-.092.751-.191,1.129-.292a8.762,8.762,0,0,0,1.442,1.441c-.1.379-.2.759-.292,1.13a1.321,1.321,0,0,0,.773,1.529l1.739.72a1.3,1.3,0,0,0,.5.1,1.321,1.321,0,0,0,1.13-.634c.2-.326.4-.664.592-1.006a8.771,8.771,0,0,0,2.039,0c.195.337.394.675.592,1.005a1.321,1.321,0,0,0,1.628.535l1.739-.72a1.321,1.321,0,0,0,.773-1.529c-.092-.369-.19-.749-.292-1.129a8.762,8.762,0,0,0,1.441-1.442c.378.1.758.2,1.13.292a1.321,1.321,0,0,0,1.53-.773l.72-1.739A1.321,1.321,0,0,0,20.125,184.792Zm-1.452,2.76c-.357-.089-.721-.184-1.083-.282a1.31,1.31,0,0,0-1.378.459,7.354,7.354,0,0,1-1.283,1.284,1.31,1.31,0,0,0-.459,1.378c.1.364.193.728.282,1.083l-1.6.662c-.19-.317-.381-.641-.567-.965a1.31,1.31,0,0,0-1.3-.65,7.362,7.362,0,0,1-1.815,0,1.31,1.31,0,0,0-1.3.65c-.188.327-.379.651-.567.965l-1.6-.662c.089-.357.184-.721.282-1.083a1.31,1.31,0,0,0-.459-1.378,7.354,7.354,0,0,1-1.284-1.283,1.31,1.31,0,0,0-1.378-.459c-.362.1-.726.192-1.083.282l-.662-1.6c.316-.189.64-.38.965-.567a1.31,1.31,0,0,0,.65-1.3,7.362,7.362,0,0,1,0-1.815,1.31,1.31,0,0,0-.65-1.3c-.325-.187-.649-.377-.965-.567l.662-1.6c.356.089.72.184,1.083.282a1.31,1.31,0,0,0,1.378-.459,7.352,7.352,0,0,1,1.283-1.283,1.31,1.31,0,0,0,.459-1.378c-.1-.361-.192-.725-.282-1.083l1.6-.662c.189.315.379.639.567.965a1.31,1.31,0,0,0,1.3.65,7.347,7.347,0,0,1,1.815,0,1.31,1.31,0,0,0,1.3-.65c.187-.325.377-.649.567-.965l1.6.662c-.089.357-.184.721-.282,1.083a1.31,1.31,0,0,0,.459,1.378,7.356,7.356,0,0,1,1.284,1.283,1.31,1.31,0,0,0,1.378.459c.362-.1.726-.192,1.083-.282l.662,1.6c-.315.189-.64.379-.965.567a1.31,1.31,0,0,0-.65,1.3,7.354,7.354,0,0,1,0,1.815,1.31,1.31,0,0,0,.65,1.3c.324.187.648.377.965.567Z" transform="translate(0 -172.801)"/></g></g><g transform="translate(5.599 16.174)"><path class="a" d="M100.69,267.244h0a4.786,4.786,0,1,0-2.587,6.245A4.785,4.785,0,0,0,100.69,267.244Zm-3.124,4.95a3.378,3.378,0,1,1,1.828-4.413A3.356,3.356,0,0,1,97.566,272.194Z" transform="translate(-91.494 -264.293)"/></g><g transform="translate(15.412)"><path class="a" d="M266.823,6.177c-.242-.036-.491-.071-.741-.1a6.528,6.528,0,0,0-.5-1.213c.153-.2.3-.4.45-.6a1.117,1.117,0,0,0-.109-1.446l-.967-.967a1.117,1.117,0,0,0-1.446-.109c-.2.146-.4.3-.6.45a6.527,6.527,0,0,0-1.213-.5c-.033-.25-.069-.5-.1-.741a1.118,1.118,0,0,0-1.1-.945h-1.368a1.117,1.117,0,0,0-1.1.945c-.036.242-.071.491-.1.741a6.525,6.525,0,0,0-1.213.5c-.2-.153-.4-.3-.6-.45a1.117,1.117,0,0,0-1.446.109l-.967.967a1.118,1.118,0,0,0-.109,1.446c.146.2.3.4.45.6a6.535,6.535,0,0,0-.5,1.213c-.25.033-.5.069-.741.1a1.118,1.118,0,0,0-.945,1.1V8.645a1.118,1.118,0,0,0,.945,1.1c.242.036.491.071.741.1a6.533,6.533,0,0,0,.5,1.213c-.153.2-.3.4-.45.6a1.117,1.117,0,0,0,.109,1.446l.967.967a1.117,1.117,0,0,0,1.446.109c.2-.146.4-.3.6-.45a6.53,6.53,0,0,0,1.213.5c.033.25.069.5.1.741a1.118,1.118,0,0,0,1.1.945h1.368a1.117,1.117,0,0,0,1.1-.945c.036-.242.071-.491.1-.741a6.524,6.524,0,0,0,1.213-.5c.2.153.4.3.6.45a1.117,1.117,0,0,0,1.446-.109l.967-.967a1.118,1.118,0,0,0,.109-1.446c-.146-.2-.3-.4-.45-.6a6.535,6.535,0,0,0,.5-1.213c.25-.033.5-.069.741-.1a1.118,1.118,0,0,0,.945-1.1V7.277A1.118,1.118,0,0,0,266.823,6.177Zm-.387,2.277c-.22.032-.444.063-.669.092a1.108,1.108,0,0,0-.928.8,5.186,5.186,0,0,1-.49,1.183,1.108,1.108,0,0,0,.087,1.226c.138.179.275.36.408.538l-.7.7c-.179-.134-.36-.27-.539-.408a1.109,1.109,0,0,0-1.226-.087,5.188,5.188,0,0,1-1.183.49,1.108,1.108,0,0,0-.8.928c-.029.225-.06.449-.092.669h-.987c-.032-.22-.063-.444-.092-.669a1.108,1.108,0,0,0-.8-.928,5.187,5.187,0,0,1-1.183-.49,1.108,1.108,0,0,0-1.226.087c-.179.138-.36.275-.539.408l-.7-.7c.133-.179.27-.359.408-.539a1.109,1.109,0,0,0,.087-1.226,5.189,5.189,0,0,1-.49-1.183,1.108,1.108,0,0,0-.928-.8c-.225-.029-.449-.06-.669-.092V7.467c.22-.032.444-.063.669-.092a1.108,1.108,0,0,0,.928-.8,5.186,5.186,0,0,1,.49-1.183,1.109,1.109,0,0,0-.087-1.226c-.138-.18-.275-.36-.408-.539l.7-.7c.179.134.36.27.539.408a1.108,1.108,0,0,0,1.226.087,5.192,5.192,0,0,1,1.183-.49,1.108,1.108,0,0,0,.8-.928c.029-.225.06-.449.092-.669h.987c.032.22.063.444.092.669a1.108,1.108,0,0,0,.8.928,5.188,5.188,0,0,1,1.183.49,1.109,1.109,0,0,0,1.226-.087c.179-.138.36-.275.539-.408l.7.7c-.133.178-.27.359-.408.539a1.109,1.109,0,0,0-.087,1.226,5.192,5.192,0,0,1,.49,1.183,1.108,1.108,0,0,0,.928.8c.225.029.449.06.669.092Z" transform="translate(-251.847)"/></g><g transform="translate(20.533 5.121)"><path class="a" d="M338.363,83.675a2.84,2.84,0,1,0,2.84,2.84A2.843,2.843,0,0,0,338.363,83.675Zm0,4.417a1.577,1.577,0,1,1,1.577-1.577A1.579,1.579,0,0,1,338.363,88.092Z" transform="translate(-335.523 -83.675)"/></g></g></svg>