<svg xmlns="http://www.w3.org/2000/svg" width="21.388" height="19.25" viewBox="0 0 21.388 19.25"><defs><style>.a{opacity:0.7;}</style></defs><g class="a"><g transform="translate(0 0)"><path d="M17.645,33.1a3.731,3.731,0,0,0-3.249,1.92l-7.01-2.7a3.419,3.419,0,0,0-.072-1.887l7.2-3.322a3.733,3.733,0,1,0-.61-2.035,3.691,3.691,0,0,0,.171,1.059l-7.2,3.322a3.753,3.753,0,1,0,.115,3.858l7.01,2.7A3.739,3.739,0,1,0,17.645,33.1Zm0-10.694a2.674,2.674,0,1,1-2.674,2.674A2.677,2.677,0,0,1,17.645,22.4ZM3.743,34.166a2.674,2.674,0,1,1,2.674-2.674A2.677,2.677,0,0,1,3.743,34.166Zm13.9,5.347a2.674,2.674,0,1,1,2.674-2.674A2.677,2.677,0,0,1,17.645,39.513Z" transform="translate(0 -21.333)"/></g></g></svg>