<?xml version="1.0" encoding="utf-8"?>
<!-- Generator: Adobe Illustrator 21.0.0, SVG Export Plug-In . SVG Version: 6.00 Build 0)  -->
<svg version="1.1" id="Layer_1" xmlns="http://www.w3.org/2000/svg" xmlns:xlink="http://www.w3.org/1999/xlink" x="0px" y="0px"
	 viewBox="0 0 1197 884" style="enable-background:new 0 0 1197 884;" xml:space="preserve">
<style type="text/css">
	.st0{fill:#FFFFFF;}
	.st1{fill:#C1DEFD;}
	.st2{fill:#DBECFD;}
	.st3{fill:#F5F5F5;}
	.st4{fill:#E1E1E1;}
	.st5{fill:#ECECEC;}
	.st6{fill:#243C4B;}
	.st7{fill:#EBE9E5;}
	.st8{opacity:0.5;}
	.st9{opacity:0.5;fill:#243C4B;enable-background:new    ;}
	.st10{fill:#465056;}
	.st11{opacity:0.2;fill:#FFD400;enable-background:new    ;}
	.st12{fill:#E31F26;}
	.st13{fill:#CCC9BF;}
	.st14{fill:#FFD400;}
	.st15{fill:#FFBF9D;}
	.st16{fill:#1A2E35;}
	.st17{fill:#333230;}
	.st18{fill:#E6F3F5;}
	.st19{fill:#C5CFD6;}
	.st20{fill:#E4ECF5;}
	.st21{fill:#C5EFED;}
	.st22{fill:#E0ECED;}
	.st23{fill:#F2F2F2;}
	.st24{fill:#DDE3E9;}
	.st25{opacity:0.7;}
	.st26{opacity:0.7;fill:#F2F2F2;enable-background:new    ;}
	.st27{opacity:0.7;fill:#DDE3E9;enable-background:new    ;}
</style>
<path class="st0" d="M467,76.1c4.9-7.8,1.1-19.2-10.3-15.6c-12.2,3.8-14,21.9-14.7,32.1c0.1-1,11.2-3.3,12.9-4.3
	C460,85.4,464,80.9,467,76.1z M247.8,151.5C245.8,153.4,247.6,151.7,247.8,151.5L247.8,151.5z M414.6,63.4c-3.3-5.1-9.9-6-14.7-2.5
	c-5.8,4.2-6.3,12.7-6.4,19.2c0,2.9-0.2,18.4,2.7,15c-0.1,0.3-0.4,0.8-0.9,1.4c-1.3,0.2-2.6,0.5-3.9,0.7c0-0.1-0.1-0.2-0.1-0.3
	c0,0.1,0.1,0.2,0.1,0.3c-12.8,2.6-25.1,6.8-36.9,12.6c1.3-2.5,2.3-5.1,2.9-7.8c1.8-7.9-3.1-25.4-14.8-17.4
	c-11.2,7.7-1.2,22.1-0.6,32c-14.3,8.2-28.2,17.5-41.7,27.3c-0.2-0.7-0.5-1.3-1.2-1.7c2.7-4.2,6.3-8.5,7.6-12.5
	c1.8-5.7,3.7-17.7-1.3-22.6c-6.1-6.1-12-0.7-13.8,5.6c-2.7,9.2,0.9,21.8,3.2,31.1c-0.3,1-0.1,2.2,0.7,2.9c0,0.2,0.1,0.4,0.1,0.6
	c-13.4,10-26.5,20.4-39.3,30.7c0-0.1,0-0.2,0.1-0.4c2.3-2.8,4.2-5.9,5.4-9.2c2.7-7.8,3.6-17.3-1.7-24.3c-5.3-7-15.4-10.3-22.6-4.1
	c-14.5,12.2,13.9,34.8,14.6,41.7c-12.9,10.5-25,21.8-37,33.3c0.6-1.4,1-2.8,1.3-4.3c2.3-12.1-10.4-42.3-26.8-28.6
	c-14.3,11.9,9.6,29.4,17.4,40.7c-11.2,10.8-22.2,21.8-33.7,32.3c2.3-6.1,3.1-12.2,1.6-19.1c-1.5-7.2-5.8-18.9-15.8-15.3
	c-10.1,3.6-6.9,17.5-4.5,24.8c1.3,4,6.3,12.2,8.1,19.1c-19.3,16.7-40.2,30.9-64.2,40.8c-15,6.2-30.8,10.5-46.9,13.1
	c-10.3,1.6-27.6,5.2-40.5,3c25.7,7.2,57.8,1.3,82-5.9c22.3-6.7,42.3-17.9,60.6-31.4c11.3,4.9,25.2,38.3,37.7,20.2
	c6.6-9.6-1.9-20.9-11.7-24c-6.8-2.1-15.6-0.6-22.6,1.2c5.6-4.3,11.1-8.8,16.4-13.4c7.3-6.4,14.5-13,21.6-19.7
	c10.4,13,42.2,27.4,49,11.8c10.1-23-35.8-15.7-44.3-14.8c-0.1,0.5,0,0.8,0.3,1.1c-0.8-0.2-1.6-0.4-2.4-0.7
	c13.5-12.8,26.7-25.9,40.5-38.4c0.8,1.3,4.2,3.6,5.9,5.3c3.9,3.9,8.1,7.6,12.8,10.5c7.5,4.6,19.7,9.4,25.3-0.4
	c6-10.6-7.7-17.1-16.1-18c-5.8-0.6-11.6,0.5-17.4,0.8c-1.8,0.1-9.8-1.6-6.5,1.1c-1.3-0.2-2.2-0.3-2.9-0.3c2.5-2.2,5-4.5,7.5-6.7
	c0.3,0.1,0.6,0.3,1,0.3c2.5,0.4,3.7-2,3.1-3.9c3.4-2.9,6.8-5.8,10.3-8.6c7.4-6,14.9-12,22.6-18c1.1,1.6,2.9,1.1,4.1,2.6
	c1.2,1.5,1.7,4.2,2.8,5.9c2.8,4.3,7,8,11.3,10.8c7,4.6,22.1,11.1,26.6-0.1c4.7-11.5-9.7-18.9-18.9-20.5c-1.8-0.3-18.2-0.5-24.2,0
	c14.3-11.1,29.1-21.9,44.1-31.6c-0.3,3.3,5.8,13.3,7.5,15.4c4.2,5.1,13.7,13.4,19.8,5.7c5.4-6.8-0.7-16.3-7.1-20
	c-1.1-0.6-11.2-3.3-15.8-3.9c6.3-4,12.7-7.8,19-11.2c4.2-2.3,8.5-4.4,12.9-6.4c0.3,0.6,0.8,1.2,1.5,1.7c1,12.2,18.8,29.4,26.7,15.8
	c3.8-6.5-2.1-14.4-7.2-18.1c-1-0.8-6.4-2.4-10.7-3.7c14.4-5.5,29.4-9.3,44.8-11.9c0.2,1.1,0.9,2,2.3,2.3c2.9,6.2,5.3,11,11.4,15.7
	c3.8,2.9,12.7,8.3,15.6,1.1c3.8-9.4-10.7-16.9-18.1-18.4c-0.9-0.2-3.4-0.4-5.7-0.6c0.1-0.3,0.1-0.7,0.1-1c9.5-1.4,19-2.3,28.5-2.9
	c1.3,5.5,29.5,8.9,33.9,5.8c9.8-7.1-2.8-13.8-9.7-14c-8.2-0.2-15.9,2.7-22.9,6.4c-0.7,0.4-0.7,0.3,0.3,0.5c-0.5,0-0.9,0.1-1.1,0.4
	c-4.3-0.6-8.6-1.4-12.4-1.6c-10.9-0.4-21.9-0.1-32.8,0.7c-2.6,0.2-5.3,0.5-7.9,0.8c4.1-3.9,7.9-9.4,9.1-11.5
	C414.9,78.3,418.5,69.6,414.6,63.4z M11.1,322.3c-3.8-0.6-7.2-1.6-9.9-3.1C4.3,320.4,7.6,321.4,11.1,322.3z"/>
<path class="st1" d="M704.5,456.3H351.9v15.4h352.6V456.3z"/>
<path class="st2" d="M403.9,456.3h-11.6v15.4h11.6V456.3z"/>
<path class="st2" d="M456,456.3h-11.6v15.4H456V456.3z"/>
<path class="st2" d="M508,456.3h-11.6v15.4H508V456.3z"/>
<path class="st2" d="M560,456.3h-11.6v15.4H560V456.3z"/>
<path class="st2" d="M612,456.3h-11.6v15.4H612V456.3z"/>
<path class="st2" d="M664.1,456.3h-11.6v15.4h11.6V456.3z"/>
<path class="st0" d="M364.3,469.6c-0.8,0-1.5-0.1-2.2-0.3c-0.7-0.2-1.3-0.5-1.7-0.8l0.8-1.7c0.4,0.3,0.9,0.5,1.5,0.7
	c0.6,0.2,1.1,0.3,1.7,0.3c0.6,0,1.1-0.1,1.4-0.3c0.3-0.2,0.5-0.4,0.5-0.8c0-0.2-0.1-0.4-0.3-0.6c-0.2-0.2-0.4-0.3-0.7-0.4
	c-0.3-0.1-0.7-0.2-1.1-0.3c-0.7-0.2-1.3-0.4-1.8-0.5c-0.5-0.2-0.9-0.5-1.2-0.8c-0.3-0.4-0.5-0.9-0.5-1.6c0-0.6,0.2-1.1,0.5-1.5
	c0.3-0.5,0.8-0.8,1.4-1.1c0.6-0.3,1.4-0.4,2.3-0.4c0.6,0,1.2,0.1,1.8,0.2c0.6,0.1,1.1,0.4,1.6,0.6l-0.7,1.7
	c-0.9-0.5-1.8-0.8-2.7-0.8c-0.6,0-1.1,0.1-1.4,0.3c-0.3,0.2-0.4,0.5-0.4,0.8c0,0.3,0.2,0.6,0.5,0.7c0.4,0.2,0.9,0.3,1.6,0.5
	c0.7,0.2,1.3,0.4,1.8,0.5c0.5,0.2,0.9,0.5,1.2,0.8c0.3,0.4,0.5,0.9,0.5,1.5c0,0.6-0.2,1.1-0.5,1.5c-0.3,0.5-0.8,0.8-1.4,1.1
	C366,469.4,365.2,469.6,364.3,469.6z M377.4,462v7.5h-2.1v-0.9c-0.3,0.3-0.6,0.6-1,0.7c-0.4,0.2-0.8,0.2-1.3,0.2
	c-1,0-1.8-0.3-2.3-0.8c-0.6-0.6-0.9-1.4-0.9-2.5V462h2.2v3.9c0,1.2,0.5,1.8,1.5,1.8c0.5,0,0.9-0.2,1.2-0.5c0.3-0.3,0.5-0.8,0.5-1.5
	V462H377.4z M365.5,478.9c0.9,0,1.7,0.3,2.2,0.8c0.6,0.6,0.9,1.4,0.9,2.5v4.3h-2.2v-3.9c0-0.6-0.1-1-0.4-1.3
	c-0.3-0.3-0.6-0.4-1.1-0.4c-0.5,0-1,0.2-1.3,0.5c-0.3,0.3-0.5,0.8-0.5,1.5v3.7H361V479h2.1v0.9c0.3-0.3,0.6-0.6,1.1-0.7
	C364.6,478.9,365,478.9,365.5,478.9z"/>
<path class="st0" d="M420.6,461.9c0.9,0,1.7,0.3,2.2,0.8c0.6,0.5,0.8,1.4,0.8,2.5v4.3h-2.2v-3.9c0-0.6-0.1-1-0.4-1.3
	c-0.2-0.3-0.6-0.4-1-0.4c-0.5,0-0.9,0.2-1.2,0.5c-0.3,0.3-0.4,0.8-0.4,1.5v3.7h-2.2v-3.9c0-1.2-0.5-1.8-1.4-1.8
	c-0.5,0-0.9,0.2-1.2,0.5c-0.3,0.3-0.4,0.8-0.4,1.5v3.7H411V462h2.1v0.9c0.3-0.3,0.6-0.6,1-0.7c0.4-0.2,0.9-0.2,1.3-0.2
	c0.5,0,1,0.1,1.4,0.3c0.4,0.2,0.8,0.5,1,0.9c0.3-0.4,0.7-0.7,1.2-0.9C419.5,462,420,461.9,420.6,461.9z M429.2,469.5
	c-0.8,0-1.5-0.2-2.1-0.5c-0.6-0.3-1.1-0.8-1.5-1.4s-0.5-1.2-0.5-2c0-0.7,0.2-1.4,0.5-2s0.8-1,1.5-1.4c0.6-0.3,1.3-0.5,2.1-0.5
	c0.8,0,1.5,0.2,2.1,0.5c0.6,0.3,1.1,0.8,1.5,1.4c0.4,0.6,0.5,1.2,0.5,2c0,0.7-0.2,1.4-0.5,2c-0.4,0.6-0.8,1-1.5,1.4
	C430.7,469.4,430,469.5,429.2,469.5z M429.2,467.8c0.6,0,1-0.2,1.4-0.6c0.4-0.4,0.5-0.9,0.5-1.5c0-0.6-0.2-1.1-0.5-1.5
	c-0.4-0.4-0.8-0.6-1.4-0.6c-0.6,0-1,0.2-1.4,0.6c-0.4,0.4-0.5,0.9-0.5,1.5c0,0.6,0.2,1.1,0.5,1.5
	C428.2,467.6,428.6,467.8,429.2,467.8z M415.6,478.9c0.9,0,1.7,0.3,2.2,0.8c0.6,0.6,0.9,1.4,0.9,2.5v4.3h-2.2v-3.9
	c0-0.6-0.1-1-0.4-1.3c-0.3-0.3-0.6-0.4-1.1-0.4c-0.5,0-1,0.2-1.3,0.5c-0.3,0.3-0.5,0.8-0.5,1.5v3.7H411V479h2.1v0.9
	c0.3-0.3,0.6-0.6,1.1-0.7C414.6,478.9,415,478.9,415.6,478.9z"/>
<path class="st0" d="M470.7,469.1c-0.2,0.2-0.5,0.3-0.8,0.4c-0.3,0.1-0.6,0.1-1,0.1c-0.9,0-1.6-0.2-2.1-0.7c-0.5-0.5-0.7-1.1-0.7-2
	v-3.1H465v-1.7h1.1v-1.8h2.2v1.8h1.9v1.7h-1.9v3c0,0.3,0.1,0.6,0.2,0.7c0.2,0.2,0.4,0.2,0.7,0.2c0.3,0,0.6-0.1,0.9-0.3L470.7,469.1z
	 M479.5,462v7.5h-2.1v-0.9c-0.3,0.3-0.6,0.6-1,0.7c-0.4,0.2-0.8,0.2-1.3,0.2c-1,0-1.8-0.3-2.3-0.8c-0.6-0.6-0.9-1.4-0.9-2.5V462h2.2
	v3.9c0,1.2,0.5,1.8,1.5,1.8c0.5,0,0.9-0.2,1.2-0.5c0.3-0.3,0.5-0.8,0.5-1.5V462H479.5z M473.2,482.7c0,0,0,0.2,0,0.6h-5.6
	c0.1,0.5,0.3,0.8,0.7,1.1s0.9,0.4,1.4,0.4c0.4,0,0.7-0.1,1-0.2c0.3-0.1,0.6-0.3,0.8-0.6l1.2,1.2c-0.7,0.8-1.7,1.2-3.1,1.2
	c-0.8,0-1.6-0.2-2.2-0.5c-0.6-0.3-1.1-0.8-1.5-1.4c-0.4-0.6-0.5-1.2-0.5-2c0-0.7,0.2-1.4,0.5-2c0.4-0.6,0.8-1,1.4-1.4
	c0.6-0.3,1.3-0.5,2-0.5c0.7,0,1.4,0.2,2,0.5s1.1,0.8,1.4,1.4C473.1,481.3,473.2,481.9,473.2,482.7z M469.4,480.5
	c-0.5,0-0.9,0.1-1.2,0.4c-0.3,0.3-0.5,0.7-0.6,1.1h3.7c-0.1-0.5-0.3-0.8-0.6-1.1C470.2,480.6,469.8,480.5,469.4,480.5z"/>
<path class="st0" d="M526.9,462l-2.7,7.5h-2.1l-1.7-4.6l-1.7,4.6h-2.1L514,462h2l1.8,5l1.8-5h1.8l1.8,5l1.8-5H526.9z M535,465.7
	c0,0,0,0.2,0,0.6h-5.6c0.1,0.5,0.3,0.8,0.7,1.1c0.4,0.3,0.8,0.4,1.4,0.4c0.4,0,0.7-0.1,1-0.2c0.3-0.1,0.6-0.3,0.8-0.6l1.1,1.2
	c-0.7,0.8-1.7,1.2-3.1,1.2c-0.8,0-1.6-0.2-2.2-0.5c-0.6-0.3-1.1-0.8-1.5-1.4s-0.5-1.2-0.5-2c0-0.7,0.2-1.4,0.5-2
	c0.4-0.6,0.8-1,1.4-1.4c0.6-0.3,1.3-0.5,2-0.5c0.7,0,1.4,0.2,2,0.5c0.6,0.3,1.1,0.8,1.4,1.4C534.9,464.3,535,464.9,535,465.7z
	 M531.2,463.5c-0.5,0-0.9,0.1-1.2,0.4c-0.3,0.3-0.5,0.7-0.6,1.1h3.7c-0.1-0.5-0.3-0.8-0.6-1.1C532.1,463.6,531.7,463.5,531.2,463.5z
	 M522.6,476.1v10.3h-2.1v-0.9c-0.5,0.6-1.3,1-2.3,1c-0.7,0-1.3-0.2-1.9-0.5c-0.6-0.3-1-0.8-1.3-1.3s-0.5-1.3-0.5-2
	c0-0.8,0.2-1.4,0.5-2c0.3-0.6,0.8-1,1.3-1.3c0.6-0.3,1.2-0.5,1.9-0.5c1,0,1.7,0.3,2.2,0.9v-3.6H522.6z M518.5,484.8
	c0.5,0,1-0.2,1.4-0.6c0.4-0.4,0.5-0.9,0.5-1.5c0-0.6-0.2-1.1-0.5-1.5c-0.4-0.4-0.8-0.6-1.4-0.6c-0.6,0-1,0.2-1.4,0.6
	c-0.4,0.4-0.5,0.9-0.5,1.5c0,0.6,0.2,1.1,0.5,1.5C517.5,484.6,518,484.8,518.5,484.8z"/>
<path class="st3" d="M204.3,365.7c5.1-1.3,10.6,0,15.1,2.8c4.5,2.8,7.9,6.9,10.7,11.4c5.4,8.7,7.2,20.2,7.3,30.4
	c-11.3-0.6-20.9-9.5-25.4-14.4C204.8,388.2,196.4,370,204.3,365.7z"/>
<path class="st3" d="M255.6,417.3c-4.6-3.6-6.6-10-5.6-15.8c1-5.8,4.8-10.9,9.7-14.2c2.3-1.5,5-2.7,7.6-1.9c2.4,0.7,4.1,3.1,4.6,5.6
	c0.5,2.5-0.1,5.1-0.9,7.5C268,406.7,263.7,414.1,255.6,417.3z"/>
<path class="st4" d="M262.2,441.9c-0.1,0.1-1.4-2.2-3.2-5.9c-0.9-1.9-1.7-4.3-2.3-7c-0.5-2.7-1.2-5.7-1.4-8.9
	c-0.5-6.4,0.8-12.3,2.5-16.1c0.9-1.9,1.8-3.3,2.5-4.3c0.7-0.9,1.2-1.4,1.2-1.3c0.2,0.1-1.5,2.1-3,5.9c-1.5,3.8-2.6,9.4-2.2,15.7
	c0.2,3.1,0.8,6.1,1.3,8.7c0.5,2.7,1.2,5,2,6.9C261.3,439.5,262.3,441.8,262.2,441.9z"/>
<path class="st4" d="M211.9,379.1c0.1,0,0.9,0.8,2.4,2.5c1.5,1.6,3.6,4,6.1,7c5.1,5.9,12.1,14.2,19.6,23.5c7.5,9.3,14,18,18.6,24.3
	c2.3,3.2,4.1,5.8,5.3,7.6c1.2,1.8,1.9,2.8,1.8,2.9c-0.1,0-0.8-0.9-2.2-2.6c-1.5-1.9-3.4-4.4-5.6-7.4c-4.7-6.2-11.4-14.8-18.8-24.1
	c-7.5-9.2-14.2-17.5-19.3-23.7c-2.4-2.9-4.3-5.3-5.8-7.2C212.6,380.1,211.9,379.1,211.9,379.1z"/>
<path class="st3" d="M247.9,428.3c-10.2-7.1-23.9-8.8-35.5-4.4c-3,1.1-6.2,3.2-6.3,6.3c-0.1,3.2,3,5.4,5.9,6.6
	c12.1,5.1,27.3,1.8,36.3-7.8"/>
<path class="st4" d="M220.3,428.6c0-0.1,0.6-0.3,1.7-0.6c1.1-0.3,2.7-0.7,4.8-1c4-0.7,9.8-1.4,16.1-0.1c3.1,0.6,6,1.8,8.4,3.2
	c2.4,1.4,4.2,3.1,5.7,4.6c1.4,1.5,2.4,2.9,3,3.8c0.6,1,0.9,1.5,0.9,1.6c-0.2,0.1-1.6-2-4.5-4.8c-1.5-1.4-3.3-2.9-5.6-4.2
	c-2.3-1.3-5.1-2.4-8.1-3c-6-1.2-11.7-0.6-15.7-0.2C222.8,428.3,220.4,428.8,220.3,428.6z"/>
<path class="st5" d="M264.5,676.8c36.5-17.7,50.7-59.1,55.5-97.7c0.8-6.4,2.6-13,0.4-19.2c-2.2-6.1-8.6-11.1-14.8-9.3
	c-5.1,1.5-8.1,6.7-11.4,10.8c-4.5,5.5-10.6,9.7-17.3,11.9c-4.4,1.5-9.6,2-13.3-0.9c-5-3.9-4.5-11.6-3.4-18c2-11.8,3.9-23.7,5.9-35.5
	c1-6.4,2.1-12.8,1.1-19.2c-1-6.4-4.5-12.7-10.3-15.3c-5.8-2.7-13.8-0.4-16.1,5.7c-0.9,2.5-0.8,5.3-1.4,7.9c-0.6,2.6-2.3,5.3-4.9,5.7
	c-2.7,0.3-4.9-1.9-6.5-4c-5.5-7.5-8.7-16.4-11.5-25.3c-2.9-8.9-5.6-17.9-10.4-25.9c-4.8-7.9-12.2-14.8-21.2-16.8
	c-9-2-19.6,2.1-23.4,10.7c-3.7,8.6,0.1,18.5,4.6,26.7c6.7,12.1,15.2,23.2,25.1,32.9c1.8,1.7,3.7,3.6,4.1,6.1c0.7,4.5-4,8-8.4,8.8
	c-5,0.8-10.1-0.5-15.1-0.7c-5.1-0.2-10.8,1.1-13.4,5.5c-3.6,6.1,0.7,13.8,5.4,19.1c9.3,10.6,20.4,19.6,32.7,26.5
	c4.4,2.5,9.1,4.7,12.3,8.6c3.3,3.9,4.6,10,1.6,14.1c-3,4.1-9.1,4.6-13.8,2.9c-4.8-1.7-8.7-5-13.1-7.5c-8.2-4.7-19.6-5.9-26.4,0.8
	c-4.5,4.4-5.9,11.2-5,17.5c0.9,6.2,3.9,11.9,7.1,17.2c11.4,18.7,27.2,34.7,46.4,45C224.7,676.1,243.1,681,264.5,676.8z"/>
<path class="st4" d="M259.3,678.9c1-15.4,1.7-7.4-0.9-27.6c-2.6-20.2-7.2-42.2-12.9-64.9c-1.4-5.7-2.9-11.3-4.2-16.8
	c-1.4-5.5-2.8-11-4.5-16.3c-3.3-10.6-7.4-20.5-11.5-29.8c-4.1-9.3-8.3-18-12.4-26c-4-8.1-7.9-15.5-11.8-22.2
	c-7.7-13.3-15.1-23.3-20.5-29.9c-2.7-3.3-4.9-5.9-6.3-7.5c-0.7-0.8-1.3-1.4-1.7-1.9c-0.4-0.4-0.6-0.6-0.6-0.6c0,0,0.2,0.3,0.5,0.7
	c0.4,0.5,0.9,1.1,1.6,2c1.4,1.7,3.5,4.3,6.2,7.7c5.3,6.7,12.6,16.7,20.1,30.1c3.8,6.6,7.6,14.1,11.6,22.2c4,8.1,8.2,16.8,12.2,26
	c4.1,9.3,8.1,19.2,11.4,29.7c1.7,5.3,3.1,10.7,4.5,16.2c1.4,5.5,2.8,11.2,4.2,16.8c5.6,22.8,10.3,44.6,12.9,64.8
	c2.7,20.1,2.1,12.1,1.1,27.4"/>
<path class="st4" d="M236.5,553.1c0.1,0,0.4-0.9,1.1-2.6c0.6-1.7,1.4-4.2,2.4-7.3c1.9-6.2,4.2-14.8,6.8-24.4c2.5-9.5,5-18.1,7-24.3
	c1-3.1,1.8-5.6,2.4-7.3c0.6-1.7,0.9-2.7,0.8-2.7c-0.1,0-0.5,0.9-1.2,2.5c-0.7,1.7-1.7,4.1-2.8,7.2c-2.2,6.1-4.8,14.7-7.3,24.2
	c-2.5,9.4-4.7,17.9-6.5,24.4c-0.8,2.9-1.5,5.4-2,7.4C236.6,552.1,236.4,553.1,236.5,553.1z"/>
<path class="st4" d="M157.2,524.8c0,0.1,1.1,0.4,3.2,0.9c2.1,0.5,5.1,1.3,8.7,2.3c7.4,2,17.4,5.1,28.4,9c11,3.9,20.7,7.9,27.7,11
	c3.5,1.5,6.3,2.8,8.2,3.7c1.9,0.9,3,1.4,3.1,1.3c0-0.1-1-0.7-2.9-1.7c-1.9-1-4.6-2.5-8.1-4.1c-6.9-3.3-16.6-7.4-27.6-11.4
	c-11-3.9-21.1-6.9-28.6-8.7c-3.7-0.9-6.8-1.5-8.9-1.9C158.4,524.9,157.2,524.7,157.2,524.8z"/>
<path class="st4" d="M257.6,649.6c0,0,0.3-0.3,0.7-0.9c0.5-0.7,1.1-1.6,1.9-2.7c1.6-2.4,3.9-5.9,6.6-10.3c5.4-8.7,12.6-21,20.2-34.7
	c7.7-13.7,14.7-26,19.9-34.9c2.6-4.3,4.7-7.8,6.2-10.4c0.7-1.1,1.2-2.1,1.7-2.9c0.4-0.7,0.6-1,0.5-1c0,0-0.3,0.3-0.7,0.9
	c-0.5,0.7-1.1,1.6-1.9,2.7c-1.6,2.4-3.9,5.9-6.6,10.3c-5.4,8.7-12.6,21-20.2,34.7c-7.7,13.7-14.7,26-19.9,34.9
	c-2.6,4.3-4.7,7.8-6.2,10.4c-0.7,1.1-1.2,2.1-1.7,2.9C257.8,649.2,257.6,649.6,257.6,649.6z"/>
<path class="st4" d="M154.6,597.3c0,0,0.3,0.2,1,0.6c0.8,0.4,1.8,0.9,3,1.6c2.8,1.4,6.5,3.3,11,5.6c9.3,4.7,22.1,11.5,36.2,18.9
	c14.1,7.4,27,14,36.4,18.6c4.7,2.3,8.5,4.1,11.2,5.3c1.2,0.5,2.3,1,3.1,1.4c0.7,0.3,1.1,0.4,1.1,0.4c0,0-0.3-0.2-1-0.6
	c-0.8-0.4-1.8-0.9-3-1.6c-2.8-1.4-6.5-3.3-11-5.6c-9.3-4.7-22.1-11.5-36.2-18.9c-14.1-7.4-27-14-36.4-18.6
	c-4.7-2.3-8.5-4.1-11.2-5.3c-1.2-0.5-2.3-1-3.1-1.4C155,597.4,154.6,597.3,154.6,597.3z"/>
<path class="st6" d="M186.3,578.6c0,0,8.4-5.7,19,14.5c10.6,20.2,14.6,31.9,14.6,31.9s2.8,4.2,5.7,1.4c2.9-2.8,6.8-10.7,11.8-9.4
	c5.2,1.4,6.9,7.2,6,15.6c-0.9,8.5-2.2,27.1-2.3,28.8c-0.1,1.7,0.9,4.1,3.1,2.5c2.3-1.6,15.4-16.4,22-9.8c6.7,6.6,0.3,29.8-0.4,32.4
	c-0.6,2.6-0.1,3.6,1.1,4.2c1.2,0.6,5.1-4.8,9-8.9c3.9-4.1,9.1-8.1,12.7-4c3.5,4.1,4.8,21.5-11.4,49.8l-8.4,12.6l-15.2-0.7
	c-32.5-3.5-45.8-14.7-47-20c-1.3-5.3,5.1-7.2,10.6-7.9c5.6-0.8,12.3-0.8,12.5-2.1c0.2-1.3-0.4-2.4-2.8-3.4c-2.4-1-25-9.4-26.4-18.7
	s18.2-11.2,20.9-12.1c2.6-0.9,1.2-3.1-0.2-4c-1.4-0.9-17.3-10.8-24.7-15s-11-9-9.1-14.1c1.8-4.8,10.5-3.4,14.5-4.1
	c4-0.7,2.2-5.4,2.2-5.4s-7.1-10.1-17.3-30.6c-10.2-20.4-0.3-24-0.3-24"/>
<path class="st6" d="M195.8,596.7c0,0,0.1,0.1,0.2,0.4c0.1,0.3,0.3,0.6,0.6,1.1c0.5,1,1.2,2.4,2.1,4.2c1.9,3.7,4.5,8.9,7.8,15.4
	c6.7,13,15.9,30.9,26,50.7c10.2,19.8,19.4,37.7,25.9,50.8c3.2,6.5,5.8,11.8,7.7,15.5c0.9,1.8,1.6,3.2,2,4.2c0.2,0.5,0.4,0.8,0.5,1.1
	c0.1,0.2,0.2,0.4,0.2,0.4c0,0-0.1-0.1-0.2-0.4c-0.1-0.3-0.3-0.6-0.6-1.1c-0.5-1-1.2-2.4-2.1-4.2c-1.9-3.7-4.5-8.9-7.8-15.4
	c-6.6-13-15.8-30.9-26-50.7c-10.2-19.8-19.4-37.7-25.9-50.8c-3.2-6.5-5.8-11.8-7.7-15.5c-0.9-1.8-1.6-3.2-2-4.2
	c-0.2-0.5-0.4-0.8-0.5-1.1C195.9,596.8,195.8,596.7,195.8,596.7z"/>
<path class="st6" d="M232.4,628.4c0.1,0-0.3,1.5-0.8,4c-0.6,2.6-1.4,5.9-2.2,9.6c-0.8,3.7-1.6,7.1-2.3,9.6c-0.3,1.2-0.6,2.2-0.8,2.9
	c-0.2,0.7-0.4,1-0.4,1c-0.1,0,0.3-1.5,0.8-4c0.6-2.6,1.3-5.9,2.1-9.6c0.8-3.7,1.7-7.1,2.4-9.6c0.3-1.2,0.6-2.2,0.8-2.9
	C232.2,628.8,232.4,628.4,232.4,628.4z"/>
<path class="st6" d="M224.4,655.7c0,0.2-7-1.6-15.5-4c-8.5-2.4-15.4-4.4-15.4-4.6c0-0.2,7,1.6,15.5,4
	C217.6,653.5,224.5,655.6,224.4,655.7z"/>
<path class="st6" d="M244.1,689.8c0,0-0.4,0.1-1.1,0.2s-1.8,0.1-3,0.2c-2.6,0.1-6.1,0.2-10.1,0.1c-3.9-0.1-7.5-0.4-10-0.7
	c-1.3-0.1-2.3-0.3-3-0.4c-0.7-0.1-1.1-0.2-1.1-0.2c0-0.1,1.6,0,4.2,0.2c2.6,0.2,6.1,0.4,10,0.5c3.9,0.1,7.5,0.1,10,0.1
	C242.5,689.7,244.1,689.7,244.1,689.8z"/>
<path class="st6" d="M256.7,666.7c0.1,0-0.6,1.4-1.7,3.4c-1.1,2.1-2.7,5-4.5,8.1c-1.8,3.2-3.4,6-4.6,8c-1.2,2-2,3.3-2.1,3.3
	c-0.1,0,0.6-1.4,1.7-3.5c1.1-2.1,2.7-5,4.5-8.1c1.8-3.2,3.4-6,4.6-8C255.9,667.9,256.7,666.6,256.7,666.7z"/>
<path class="st6" d="M277.9,694.5c0,0-0.2,0.4-0.6,1.2c-0.5,0.9-1,1.9-1.7,3.2c-1.5,2.7-3.5,6.3-5.9,10.4c-2.3,4-4.4,7.7-6,10.3
	c-0.7,1.2-1.4,2.2-1.9,3.1c-0.5,0.7-0.7,1.1-0.8,1.1c0,0,0.2-0.4,0.6-1.2c0.5-0.9,1-1.9,1.7-3.2c1.5-2.7,3.5-6.3,5.9-10.4
	c2.3-4,4.4-7.7,6-10.3c0.7-1.2,1.4-2.2,1.9-3.1C277.6,694.9,277.9,694.5,277.9,694.5z"/>
<path class="st6" d="M261.3,722.9c0,0-0.5,0.1-1.4,0.1c-0.9,0-2.2,0.1-3.9,0.1c-3.3,0-7.8-0.1-12.8-0.3c-5-0.3-9.5-0.7-12.7-1.1
	c-1.6-0.2-2.9-0.4-3.8-0.5c-0.9-0.1-1.4-0.2-1.4-0.3c0,0,0.5,0,1.4,0c1,0.1,2.3,0.2,3.8,0.3c3.3,0.3,7.7,0.6,12.7,0.9
	c5,0.3,9.5,0.4,12.7,0.5c1.5,0,2.8,0.1,3.9,0.1C260.8,722.8,261.3,722.8,261.3,722.9z"/>
<path class="st0" d="M574,469.1c-0.2,0.2-0.5,0.3-0.8,0.4c-0.3,0.1-0.6,0.1-1,0.1c-0.9,0-1.6-0.2-2.1-0.7c-0.5-0.5-0.7-1.1-0.7-2
	v-3.1h-1.1v-1.7h1.1v-1.8h2.2v1.8h1.9v1.7h-1.9v3c0,0.3,0.1,0.6,0.2,0.7c0.2,0.2,0.4,0.2,0.7,0.2c0.3,0,0.6-0.1,0.9-0.3L574,469.1z
	 M579.8,461.9c0.9,0,1.7,0.3,2.2,0.8c0.6,0.6,0.9,1.4,0.9,2.5v4.3h-2.2v-3.9c0-0.6-0.1-1-0.4-1.3c-0.3-0.3-0.6-0.4-1.1-0.4
	c-0.5,0-1,0.2-1.3,0.5c-0.3,0.3-0.5,0.8-0.5,1.5v3.7h-2.2v-10.3h2.2v3.6c0.3-0.3,0.6-0.5,1-0.7C578.9,461.9,579.3,461.9,579.8,461.9
	z M576.8,479v7.5h-2.1v-0.9c-0.3,0.3-0.6,0.6-1,0.7c-0.4,0.2-0.8,0.2-1.3,0.2c-1,0-1.8-0.3-2.3-0.8c-0.6-0.6-0.9-1.4-0.9-2.5V479
	h2.2v3.9c0,1.2,0.5,1.8,1.5,1.8c0.5,0,0.9-0.2,1.2-0.5c0.3-0.3,0.5-0.8,0.5-1.5V479H576.8z"/>
<path class="st7" d="M788.6,414.1H268v366.1h520.6V414.1z"/>
<path class="st0" d="M763.1,750.2H294.2c-6.6,0-12-5.4-12-12V434.3c0-6.6,5.4-12,12-12h468.9c6.6,0,12,5.4,12,12v303.9
	C775.1,744.8,769.7,750.2,763.1,750.2z"/>
<g class="st8">
	<path class="st9" d="M392.9,533h-41.6v-41.6h41.6V533z M352.5,531.8h39.2v-39.2h-39.2V531.8z"/>
</g>
<g class="st8">
	<path class="st9" d="M445,533h-41.6v-41.6H445V533z M404.5,531.8h39.2v-39.2h-39.2V531.8z"/>
</g>
<path class="st6" d="M497,533h-41.6v-41.6H497V533z M456.6,531.8h39.2v-39.2h-39.2V531.8z"/>
<path class="st6" d="M549,533h-41.6v-41.6H549V533z M508.6,531.8h39.2v-39.2h-39.2V531.8z"/>
<path class="st6" d="M601,533h-41.6v-41.6H601V533z M560.6,531.8h39.2v-39.2h-39.2V531.8z"/>
<path class="st6" d="M653.1,533h-41.6v-41.6h41.6V533z M612.6,531.8h39.2v-39.2h-39.2V531.8z"/>
<path class="st6" d="M705.1,533h-41.6v-41.6h41.6V533z M664.7,531.8h39.2v-39.2h-39.2V531.8z"/>
<path class="st6" d="M392.9,583.3h-41.6v-41.6h41.6V583.3z M352.5,582.1h39.2v-39.2h-39.2V582.1z"/>
<path class="st6" d="M445,583.3h-41.6v-41.6H445V583.3z M404.5,582.1h39.2v-39.2h-39.2V582.1z"/>
<path class="st6" d="M497,583.3h-41.6v-41.6H497V583.3z M456.6,582.1h39.2v-39.2h-39.2V582.1z"/>
<path class="st6" d="M549,583.3h-41.6v-41.6H549V583.3z M508.6,582.1h39.2v-39.2h-39.2V582.1z"/>
<path class="st6" d="M601,583.3h-41.6v-41.6H601V583.3z M560.6,582.1h39.2v-39.2h-39.2V582.1z"/>
<path class="st6" d="M653.1,583.3h-41.6v-41.6h41.6V583.3z M612.6,582.1h39.2v-39.2h-39.2V582.1z"/>
<path class="st6" d="M705.1,583.3h-41.6v-41.6h41.6V583.3z M664.7,582.1h39.2v-39.2h-39.2V582.1z"/>
<path class="st6" d="M392.9,633.7h-41.6v-41.6h41.6V633.7z M352.5,632.5h39.2v-39.2h-39.2V632.5z"/>
<path class="st6" d="M445,633.7h-41.6v-41.6H445V633.7z M404.5,632.5h39.2v-39.2h-39.2V632.5z"/>
<path class="st6" d="M497,633.7h-41.6v-41.6H497V633.7z M456.6,632.5h39.2v-39.2h-39.2V632.5z"/>
<path class="st6" d="M549,633.7h-41.6v-41.6H549V633.7z M508.6,632.5h39.2v-39.2h-39.2V632.5z"/>
<path class="st6" d="M601,633.7h-41.6v-41.6H601V633.7z M560.6,632.5h39.2v-39.2h-39.2V632.5z"/>
<path class="st6" d="M653.1,633.7h-41.6v-41.6h41.6V633.7z M612.6,632.5h39.2v-39.2h-39.2V632.5z"/>
<path class="st6" d="M705.1,633.7h-41.6v-41.6h41.6V633.7z M664.7,632.5h39.2v-39.2h-39.2V632.5z"/>
<path class="st6" d="M392.9,684h-41.6v-41.6h41.6V684z M352.5,682.8h39.2v-39.2h-39.2V682.8z"/>
<path class="st6" d="M445,684h-41.6v-41.6H445V684z M404.5,682.8h39.2v-39.2h-39.2V682.8z"/>
<path class="st6" d="M497,684h-41.6v-41.6H497V684z M456.6,682.8h39.2v-39.2h-39.2V682.8z"/>
<path class="st6" d="M549,684h-41.6v-41.6H549V684z M508.6,682.8h39.2v-39.2h-39.2V682.8z"/>
<path class="st6" d="M601,684h-41.6v-41.6H601V684z M560.6,682.8h39.2v-39.2h-39.2V682.8z"/>
<path class="st6" d="M653.1,684h-41.6v-41.6h41.6V684z M612.6,682.8h39.2v-39.2h-39.2V682.8z"/>
<path class="st6" d="M705.1,684h-41.6v-41.6h41.6V684z M664.7,682.8h39.2v-39.2h-39.2V682.8z"/>
<path class="st6" d="M392.9,734.4h-41.6v-41.6h41.6V734.4z M352.5,733.2h39.2v-39.2h-39.2V733.2z"/>
<path class="st6" d="M445,734.4h-41.6v-41.6H445V734.4z M404.5,733.2h39.2v-39.2h-39.2V733.2z"/>
<path class="st6" d="M497,734.4h-41.6v-41.6H497V734.4z M456.6,733.2h39.2v-39.2h-39.2V733.2z"/>
<path class="st6" d="M549,734.4h-41.6v-41.6H549V734.4z M508.6,733.2h39.2v-39.2h-39.2V733.2z"/>
<g class="st8">
	<path class="st9" d="M601,734.4h-41.6v-41.6H601V734.4z M560.6,733.2h39.2v-39.2h-39.2V733.2z"/>
</g>
<g class="st8">
	<path class="st9" d="M653.1,734.4h-41.6v-41.6h41.6V734.4z M612.6,733.2h39.2v-39.2h-39.2V733.2z"/>
</g>
<g class="st8">
	<path class="st9" d="M705.1,734.4h-41.6v-41.6h41.6V734.4z M664.7,733.2h39.2v-39.2h-39.2V733.2z"/>
</g>
<path class="st10" d="M630.6,556.4v14.1h-3.3V559h-2.8v-2.6H630.6z M638.5,556.4v14.1h-3.3V559h-2.8v-2.6H638.5z"/>
<path class="st10" d="M478.5,505.8v14.1h-3.3v-11.5h-2.8v-2.6H478.5z"/>
<path class="st10" d="M533.6,517.2v2.7h-10.7v-2.1l5.4-5.1c0.6-0.6,1-1,1.2-1.4c0.2-0.4,0.3-0.8,0.3-1.2c0-0.6-0.2-1-0.6-1.3
	c-0.4-0.3-0.9-0.5-1.7-0.5c-0.6,0-1.2,0.1-1.7,0.4c-0.5,0.2-0.9,0.6-1.3,1l-2.4-1.5c0.6-0.8,1.3-1.5,2.3-1.9c1-0.5,2.1-0.7,3.3-0.7
	c1,0,2,0.2,2.7,0.5c0.8,0.3,1.4,0.8,1.8,1.5c0.4,0.6,0.7,1.4,0.7,2.2c0,0.8-0.2,1.5-0.5,2.2c-0.3,0.7-0.9,1.4-1.9,2.3l-3.2,3.1
	H533.6z"/>
<path class="st10" d="M581.7,511.5c1.2,0.2,2.2,0.7,2.8,1.4c0.7,0.7,1,1.6,1,2.7c0,0.8-0.2,1.6-0.6,2.3c-0.4,0.7-1.1,1.2-2,1.7
	c-0.9,0.4-1.9,0.6-3.2,0.6c-1,0-2-0.1-2.9-0.4c-1-0.3-1.8-0.6-2.4-1.1l1.3-2.5c0.5,0.4,1.2,0.7,1.9,0.9c0.7,0.2,1.4,0.3,2.2,0.3
	c0.8,0,1.5-0.2,1.9-0.5c0.5-0.3,0.7-0.8,0.7-1.3c0-1.2-0.9-1.7-2.6-1.7h-1.5v-2.2l2.9-3.3h-6v-2.6h9.9v2.1L581.7,511.5z"/>
<path class="st10" d="M639,516.9h-2.3v3h-3.2v-3H626v-2.2l6.7-8.9h3.4l-6.2,8.5h3.8v-2.6h3.1v2.6h2.3V516.9z"/>
<path class="st10" d="M683.9,511.1c2,0,3.5,0.4,4.4,1.2c1,0.8,1.4,1.9,1.4,3.2c0,0.9-0.2,1.6-0.6,2.4c-0.4,0.7-1.1,1.3-2,1.7
	c-0.9,0.4-2,0.6-3.2,0.6c-1,0-2-0.1-2.9-0.4c-1-0.3-1.8-0.6-2.4-1.1l1.3-2.5c0.5,0.4,1.2,0.7,1.9,0.9c0.7,0.2,1.4,0.3,2.2,0.3
	c0.8,0,1.5-0.2,1.9-0.5c0.5-0.3,0.7-0.8,0.7-1.3c0-0.6-0.2-1.1-0.7-1.4c-0.5-0.3-1.3-0.5-2.5-0.5h-3.6l0.7-7.9h8.6v2.6H683l-0.2,2.7
	H683.9z"/>
<path class="st10" d="M480,561.6c0.7,0.4,1.2,0.8,1.6,1.4c0.4,0.6,0.6,1.2,0.6,2c0,0.9-0.2,1.6-0.7,2.3c-0.5,0.6-1.2,1.1-2.1,1.5
	c-0.9,0.3-1.9,0.5-3.1,0.5c-1.2,0-2.2-0.2-3.1-0.5c-0.9-0.4-1.6-0.9-2.1-1.5c-0.5-0.7-0.7-1.4-0.7-2.3c0-0.7,0.2-1.4,0.5-2
	c0.4-0.6,0.9-1,1.6-1.4c-0.5-0.3-0.9-0.7-1.2-1.2c-0.3-0.5-0.4-1.1-0.4-1.7c0-0.8,0.2-1.5,0.7-2.1c0.5-0.6,1.1-1.1,1.9-1.4
	c0.8-0.3,1.8-0.5,2.8-0.5c1.1,0,2,0.2,2.8,0.5c0.8,0.3,1.5,0.8,1.9,1.4c0.5,0.6,0.7,1.3,0.7,2.1c0,0.6-0.1,1.2-0.4,1.7
	C480.9,560.9,480.5,561.3,480,561.6z M476.2,557c-0.7,0-1.2,0.2-1.6,0.5c-0.4,0.3-0.6,0.7-0.6,1.3c0,0.5,0.2,1,0.6,1.3
	c0.4,0.3,0.9,0.5,1.6,0.5s1.2-0.2,1.6-0.5c0.4-0.3,0.6-0.7,0.6-1.3c0-0.6-0.2-1-0.6-1.3C477.4,557.2,476.8,557,476.2,557z
	 M476.2,566.8c0.8,0,1.5-0.2,1.9-0.5c0.5-0.4,0.7-0.9,0.7-1.5c0-0.6-0.2-1.1-0.7-1.5c-0.5-0.4-1.1-0.5-1.9-0.5
	c-0.8,0-1.4,0.2-1.9,0.5c-0.5,0.4-0.7,0.9-0.7,1.5c0,0.6,0.2,1.1,0.7,1.5C474.7,566.7,475.4,566.8,476.2,566.8z"/>
<path class="st10" d="M527.5,554.6c2,0,3.5,0.6,4.6,1.8c1.1,1.2,1.7,2.9,1.7,5.2c0,1.6-0.3,3-0.9,4.1c-0.6,1.1-1.4,2-2.5,2.6
	c-1.1,0.6-2.3,0.9-3.8,0.9c-0.8,0-1.5-0.1-2.2-0.2c-0.7-0.2-1.3-0.4-1.8-0.7l1.2-2.4c0.7,0.5,1.6,0.7,2.6,0.7c1.2,0,2.1-0.4,2.8-1
	c0.7-0.7,1.1-1.7,1.1-3.1c-0.8,0.8-2,1.3-3.5,1.3c-0.9,0-1.7-0.2-2.5-0.5c-0.7-0.4-1.3-0.9-1.8-1.5c-0.4-0.7-0.6-1.4-0.6-2.3
	c0-0.9,0.2-1.8,0.7-2.5c0.5-0.7,1.1-1.3,1.9-1.6C525.6,554.8,526.5,554.6,527.5,554.6z M527.8,561.3c0.7,0,1.3-0.2,1.7-0.6
	c0.5-0.4,0.7-0.9,0.7-1.5c0-0.6-0.2-1.1-0.7-1.5c-0.4-0.4-1-0.6-1.8-0.6c-0.7,0-1.3,0.2-1.7,0.6c-0.4,0.4-0.6,0.9-0.6,1.5
	c0,0.6,0.2,1.2,0.6,1.6C526.5,561.1,527,561.3,527.8,561.3z"/>
<path class="st10" d="M575.7,554.9V569h-3.3v-11.5h-2.8v-2.6H575.7z M584.2,569.2c-1.2,0-2.2-0.3-3.1-0.9c-0.9-0.6-1.6-1.4-2.2-2.5
	c-0.5-1.1-0.8-2.4-0.8-3.9c0-1.5,0.3-2.8,0.8-3.9c0.5-1.1,1.2-1.9,2.2-2.5c0.9-0.6,2-0.9,3.1-0.9c1.2,0,2.2,0.3,3.1,0.9
	c0.9,0.6,1.6,1.4,2.1,2.5c0.5,1.1,0.8,2.4,0.8,3.9c0,1.5-0.3,2.8-0.8,3.9c-0.5,1.1-1.2,1.9-2.1,2.5
	C586.4,568.9,585.4,569.2,584.2,569.2z M584.2,566.5c0.9,0,1.5-0.4,2-1.1c0.5-0.7,0.7-1.9,0.7-3.4c0-1.5-0.2-2.7-0.7-3.4
	c-0.5-0.7-1.2-1.1-2-1.1c-0.8,0-1.5,0.4-2,1.1c-0.5,0.7-0.7,1.9-0.7,3.4c0,1.5,0.2,2.7,0.7,3.4C582.7,566.1,583.3,566.5,584.2,566.5
	z"/>
<path class="st10" d="M680.7,554.9V569h-3.3v-11.5h-2.8v-2.6H680.7z M693.6,566.3v2.7H683v-2.1l5.4-5.1c0.6-0.5,1-1,1.2-1.4
	c0.2-0.4,0.3-0.8,0.3-1.2c0-0.6-0.2-1-0.6-1.3c-0.4-0.3-0.9-0.5-1.7-0.5c-0.6,0-1.2,0.1-1.7,0.4c-0.5,0.2-0.9,0.6-1.3,1l-2.4-1.5
	c0.6-0.8,1.3-1.5,2.3-1.9c1-0.5,2.1-0.7,3.3-0.7c1,0,2,0.2,2.7,0.5c0.8,0.3,1.4,0.8,1.8,1.5c0.4,0.6,0.7,1.4,0.7,2.2
	c0,0.8-0.2,1.5-0.5,2.2c-0.3,0.7-0.9,1.4-1.9,2.3l-3.2,3.1H693.6z"/>
<path class="st10" d="M373.3,560.1c0.9,0,1.7,0.2,2.5,0.5c0.7,0.4,1.3,0.9,1.8,1.6c0.4,0.7,0.6,1.4,0.6,2.3c0,0.9-0.2,1.8-0.7,2.5
	s-1.1,1.3-1.9,1.7c-0.8,0.4-1.7,0.6-2.7,0.6c-2,0-3.5-0.6-4.6-1.8c-1.1-1.2-1.7-2.9-1.7-5.2c0-1.6,0.3-3,0.9-4.1
	c0.6-1.1,1.4-2,2.5-2.6c1.1-0.6,2.3-0.9,3.8-0.9c0.8,0,1.5,0.1,2.2,0.3c0.7,0.2,1.3,0.4,1.8,0.7l-1.2,2.4c-0.7-0.5-1.6-0.7-2.6-0.7
	c-1.2,0-2.1,0.4-2.8,1c-0.7,0.7-1.1,1.7-1.1,3C370.6,560.6,371.8,560.1,373.3,560.1z M372.6,566.8c0.7,0,1.3-0.2,1.7-0.6
	c0.4-0.4,0.7-0.9,0.7-1.5c0-0.6-0.2-1.2-0.7-1.5c-0.4-0.4-1-0.6-1.7-0.6c-0.7,0-1.3,0.2-1.8,0.6c-0.5,0.4-0.7,0.9-0.7,1.5
	c0,0.6,0.2,1.1,0.7,1.5C371.2,566.6,371.8,566.8,372.6,566.8z"/>
<path class="st10" d="M429.7,554.9v2.1l-5.2,12h-3.5l5.1-11.4h-4.7v2.3h-2.9v-5H429.7z"/>
<path class="st10" d="M472.5,604.8v14.1h-3.3v-11.5h-2.8v-2.6H472.5z M479.8,610.1c2,0,3.5,0.4,4.4,1.2c1,0.8,1.4,1.9,1.4,3.2
	c0,0.9-0.2,1.6-0.6,2.4c-0.4,0.7-1.1,1.3-2,1.7c-0.9,0.4-2,0.6-3.2,0.6c-1,0-2-0.1-2.9-0.4c-1-0.3-1.8-0.6-2.4-1.1l1.3-2.5
	c0.5,0.4,1.2,0.7,1.9,0.9c0.7,0.2,1.4,0.3,2.2,0.3c0.8,0,1.5-0.2,1.9-0.5c0.5-0.3,0.7-0.8,0.7-1.3c0-0.6-0.2-1.1-0.7-1.4
	c-0.5-0.3-1.3-0.5-2.5-0.5h-3.6l0.7-7.9h8.6v2.6h-5.9l-0.2,2.7H479.8z"/>
<path class="st10" d="M524.1,604.8v14.1h-3.3v-11.5H518v-2.6H524.1z M533.3,610.1c0.9,0,1.7,0.2,2.5,0.5c0.7,0.4,1.3,0.9,1.8,1.6
	c0.4,0.7,0.6,1.4,0.6,2.3c0,0.9-0.2,1.8-0.7,2.5c-0.5,0.7-1.1,1.3-1.9,1.7c-0.8,0.4-1.7,0.6-2.7,0.6c-2,0-3.5-0.6-4.6-1.8
	c-1.1-1.2-1.7-2.9-1.7-5.2c0-1.6,0.3-3,0.9-4.1c0.6-1.1,1.4-2,2.5-2.6c1.1-0.6,2.3-0.9,3.8-0.9c0.8,0,1.5,0.1,2.2,0.3
	c0.7,0.2,1.3,0.4,1.8,0.7l-1.2,2.4c-0.7-0.5-1.6-0.7-2.6-0.7c-1.2,0-2.1,0.3-2.8,1c-0.7,0.7-1.1,1.7-1.1,3
	C530.7,610.5,531.8,610.1,533.3,610.1z M532.7,616.7c0.7,0,1.3-0.2,1.7-0.6c0.4-0.4,0.7-0.9,0.7-1.5c0-0.6-0.2-1.2-0.7-1.5
	c-0.4-0.4-1-0.6-1.7-0.6c-0.7,0-1.3,0.2-1.8,0.6c-0.5,0.4-0.7,0.9-0.7,1.5c0,0.6,0.2,1.1,0.7,1.5
	C531.3,616.5,531.9,616.7,532.7,616.7z"/>
<path class="st10" d="M576.3,604.8v14.1H573v-11.5h-2.8v-2.6H576.3z M589.8,604.8v2.1l-5.2,12H581l5.1-11.4h-4.7v2.3h-2.9v-5H589.8z
	"/>
<path class="st10" d="M627.9,604.8v14.1h-3.3v-11.5h-2.8v-2.6H627.9z M640,611.5c0.7,0.3,1.2,0.8,1.6,1.4c0.4,0.6,0.6,1.2,0.6,2
	c0,0.9-0.2,1.6-0.7,2.3c-0.5,0.6-1.2,1.1-2.1,1.5c-0.9,0.3-1.9,0.5-3.1,0.5c-1.2,0-2.2-0.2-3.1-0.5c-0.9-0.4-1.6-0.9-2.1-1.5
	c-0.5-0.7-0.7-1.4-0.7-2.3c0-0.7,0.2-1.4,0.5-2c0.4-0.6,0.9-1,1.6-1.4c-0.5-0.3-0.9-0.7-1.2-1.2c-0.3-0.5-0.4-1.1-0.4-1.7
	c0-0.8,0.2-1.5,0.7-2.1c0.5-0.6,1.1-1.1,1.9-1.4c0.8-0.3,1.8-0.5,2.8-0.5c1.1,0,2,0.2,2.8,0.5c0.8,0.3,1.5,0.8,1.9,1.4
	c0.5,0.6,0.7,1.3,0.7,2.1c0,0.6-0.1,1.2-0.4,1.7C641,610.8,640.6,611.2,640,611.5z M636.2,607c-0.7,0-1.2,0.2-1.6,0.5
	c-0.4,0.3-0.6,0.7-0.6,1.3c0,0.5,0.2,1,0.6,1.3c0.4,0.3,0.9,0.5,1.6,0.5s1.2-0.2,1.6-0.5c0.4-0.3,0.6-0.7,0.6-1.3
	c0-0.6-0.2-1-0.6-1.3C637.4,607.1,636.9,607,636.2,607z M636.2,616.8c0.8,0,1.5-0.2,1.9-0.5c0.5-0.4,0.7-0.9,0.7-1.5
	s-0.2-1.1-0.7-1.5c-0.5-0.4-1.1-0.5-1.9-0.5c-0.8,0-1.4,0.2-1.9,0.5c-0.5,0.4-0.7,0.9-0.7,1.5c0,0.6,0.2,1.1,0.7,1.5
	C634.8,616.6,635.4,616.8,636.2,616.8z"/>
<path class="st10" d="M680.2,604.8v14.1h-3.3v-11.5h-2.8v-2.6H680.2z M687.6,604.6c2,0,3.5,0.6,4.6,1.8c1.1,1.2,1.7,2.9,1.7,5.2
	c0,1.6-0.3,3-0.9,4.1c-0.6,1.1-1.4,2-2.5,2.6c-1.1,0.6-2.3,0.9-3.8,0.9c-0.8,0-1.5-0.1-2.2-0.2c-0.7-0.2-1.3-0.4-1.8-0.7l1.2-2.4
	c0.7,0.5,1.6,0.7,2.6,0.7c1.2,0,2.1-0.3,2.8-1c0.7-0.7,1.1-1.7,1.1-3.1c-0.8,0.8-2,1.3-3.5,1.3c-0.9,0-1.7-0.2-2.5-0.5
	c-0.7-0.4-1.3-0.9-1.8-1.5c-0.4-0.7-0.6-1.4-0.6-2.3c0-0.9,0.2-1.8,0.7-2.5c0.5-0.7,1.1-1.3,1.9-1.6
	C685.7,604.8,686.6,604.6,687.6,604.6z M687.8,611.2c0.7,0,1.3-0.2,1.7-0.6c0.5-0.4,0.7-0.9,0.7-1.5s-0.2-1.1-0.7-1.5
	c-0.4-0.4-1-0.6-1.8-0.6c-0.7,0-1.3,0.2-1.7,0.6c-0.4,0.4-0.6,0.9-0.6,1.5s0.2,1.2,0.6,1.6C686.5,611,687.1,611.2,687.8,611.2z"/>
<path class="st10" d="M368.4,604.8v14.1h-3.3v-11.5h-2.8v-2.6H368.4z M377.5,610.6c1.2,0.2,2.2,0.7,2.8,1.4c0.7,0.7,1,1.6,1,2.7
	c0,0.8-0.2,1.6-0.6,2.3c-0.4,0.7-1.1,1.2-2,1.7c-0.9,0.4-1.9,0.6-3.2,0.6c-1,0-2-0.1-2.9-0.4c-1-0.3-1.8-0.6-2.4-1.1l1.3-2.5
	c0.5,0.4,1.2,0.7,1.9,0.9c0.7,0.2,1.4,0.3,2.2,0.3c0.8,0,1.5-0.2,1.9-0.5c0.5-0.3,0.7-0.8,0.7-1.3c0-1.2-0.9-1.7-2.6-1.7h-1.5v-2.2
	l2.9-3.3h-6v-2.6h9.9v2.1L377.5,610.6z"/>
<path class="st10" d="M419.5,604.8v14.1h-3.3v-11.5h-2.8v-2.6H419.5z M434.9,616h-2.3v3h-3.2v-3h-7.6v-2.2l6.7-8.9h3.4l-6.2,8.5h3.8
	v-2.6h3.1v2.6h2.3V616z"/>
<path class="st10" d="M475.6,666.6v2.7H465v-2.1l5.4-5.1c0.6-0.6,1-1,1.2-1.4c0.2-0.4,0.3-0.8,0.3-1.2c0-0.6-0.2-1-0.6-1.3
	c-0.4-0.3-0.9-0.5-1.7-0.5c-0.6,0-1.2,0.1-1.7,0.4c-0.5,0.2-0.9,0.6-1.3,1l-2.4-1.5c0.6-0.8,1.3-1.5,2.3-1.9c1-0.5,2.1-0.7,3.3-0.7
	c1,0,2,0.2,2.7,0.5c0.8,0.3,1.4,0.8,1.8,1.5c0.4,0.6,0.7,1.3,0.7,2.2c0,0.8-0.2,1.5-0.5,2.2c-0.3,0.7-0.9,1.4-1.9,2.3l-3.2,3.1
	H475.6z M487.5,666.6v2.7h-10.7v-2.1l5.4-5.1c0.6-0.6,1-1,1.2-1.4c0.2-0.4,0.3-0.8,0.3-1.2c0-0.6-0.2-1-0.6-1.3
	c-0.4-0.3-0.9-0.5-1.7-0.5c-0.6,0-1.2,0.1-1.7,0.4c-0.5,0.2-0.9,0.6-1.3,1l-2.4-1.5c0.6-0.8,1.3-1.5,2.3-1.9c1-0.5,2.1-0.7,3.3-0.7
	c1,0,2,0.2,2.7,0.5c0.8,0.3,1.4,0.8,1.8,1.5c0.4,0.6,0.7,1.3,0.7,2.2c0,0.8-0.2,1.5-0.5,2.2c-0.3,0.7-0.9,1.4-1.9,2.3l-3.2,3.1
	H487.5z"/>
<path class="st10" d="M527.6,666.6v2.7H517v-2.1l5.4-5.1c0.6-0.6,1-1,1.2-1.4c0.2-0.4,0.3-0.8,0.3-1.2c0-0.6-0.2-1-0.6-1.3
	c-0.4-0.3-0.9-0.5-1.7-0.5c-0.6,0-1.2,0.1-1.7,0.4c-0.5,0.2-0.9,0.6-1.2,1l-2.4-1.5c0.6-0.8,1.3-1.5,2.3-1.9c1-0.5,2.1-0.7,3.3-0.7
	c1,0,2,0.2,2.7,0.5c0.8,0.3,1.4,0.8,1.8,1.5c0.4,0.6,0.7,1.3,0.7,2.2c0,0.8-0.2,1.5-0.5,2.2c-0.3,0.7-0.9,1.4-1.9,2.3l-3.2,3.1
	H527.6z M535.6,660.9c1.2,0.2,2.2,0.7,2.8,1.4c0.7,0.7,1,1.6,1,2.7c0,0.8-0.2,1.6-0.6,2.3c-0.4,0.7-1.1,1.2-2,1.7
	c-0.9,0.4-1.9,0.6-3.2,0.6c-1,0-2-0.1-2.9-0.4c-1-0.3-1.8-0.6-2.4-1.1l1.3-2.5c0.5,0.4,1.2,0.7,1.9,0.9c0.7,0.2,1.4,0.3,2.2,0.3
	c0.8,0,1.5-0.2,1.9-0.5c0.5-0.3,0.7-0.8,0.7-1.4c0-1.2-0.9-1.7-2.6-1.7H532V661l2.9-3.3h-6v-2.6h9.9v2.1L535.6,660.9z"/>
<path class="st10" d="M578.7,666.6v2.7H568v-2.1l5.4-5.1c0.6-0.6,1-1,1.2-1.4c0.2-0.4,0.3-0.8,0.3-1.2c0-0.6-0.2-1-0.6-1.3
	c-0.4-0.3-0.9-0.5-1.7-0.5c-0.6,0-1.2,0.1-1.7,0.4c-0.5,0.2-0.9,0.6-1.2,1l-2.4-1.5c0.6-0.8,1.3-1.5,2.3-1.9c1-0.5,2.1-0.7,3.3-0.7
	c1,0,2,0.2,2.7,0.5c0.8,0.3,1.4,0.8,1.8,1.5c0.4,0.6,0.7,1.3,0.7,2.2c0,0.8-0.2,1.5-0.5,2.2c-0.3,0.7-0.9,1.4-1.9,2.3l-3.2,3.1
	H578.7z M592.8,666.3h-2.3v3h-3.2v-3h-7.6v-2.2l6.7-8.9h3.4l-6.2,8.5h3.8V661h3.1v2.6h2.3V666.3z"/>
<path class="st10" d="M631.7,666.6v2.7H621v-2.1l5.4-5.1c0.6-0.6,1-1,1.2-1.4c0.2-0.4,0.3-0.8,0.3-1.2c0-0.6-0.2-1-0.6-1.3
	c-0.4-0.3-0.9-0.5-1.7-0.5c-0.6,0-1.2,0.1-1.7,0.4c-0.5,0.2-0.9,0.6-1.3,1l-2.4-1.5c0.6-0.8,1.3-1.5,2.3-1.9c1-0.5,2.1-0.7,3.3-0.7
	c1,0,2,0.2,2.7,0.5c0.8,0.3,1.4,0.8,1.8,1.5c0.4,0.6,0.7,1.3,0.7,2.2c0,0.8-0.2,1.5-0.5,2.2c-0.3,0.7-0.9,1.4-1.9,2.3l-3.2,3.1
	H631.7z M637.9,660.4c2,0,3.5,0.4,4.4,1.2c1,0.8,1.4,1.9,1.4,3.2c0,0.9-0.2,1.6-0.6,2.4c-0.4,0.7-1.1,1.3-2,1.7
	c-0.9,0.4-2,0.6-3.2,0.6c-1,0-2-0.1-2.9-0.4c-1-0.3-1.8-0.6-2.4-1.1l1.3-2.5c0.5,0.4,1.2,0.7,1.9,0.9c0.7,0.2,1.4,0.3,2.2,0.3
	c0.8,0,1.5-0.2,1.9-0.5c0.5-0.3,0.7-0.8,0.7-1.3c0-0.6-0.2-1.1-0.7-1.4c-0.5-0.3-1.3-0.5-2.5-0.5h-3.6l0.7-7.9h8.6v2.6h-5.9
	l-0.2,2.7H637.9z"/>
<path class="st10" d="M683.3,666.6v2.7h-10.7v-2.1l5.4-5.1c0.6-0.6,1-1,1.2-1.4c0.2-0.4,0.3-0.8,0.3-1.2c0-0.6-0.2-1-0.6-1.3
	c-0.4-0.3-0.9-0.5-1.7-0.5c-0.6,0-1.2,0.1-1.7,0.4c-0.5,0.2-0.9,0.6-1.3,1l-2.4-1.5c0.6-0.8,1.3-1.5,2.3-1.9c1-0.5,2.1-0.7,3.3-0.7
	c1,0,2,0.2,2.7,0.5c0.8,0.3,1.4,0.8,1.8,1.5c0.4,0.6,0.7,1.3,0.7,2.2c0,0.8-0.2,1.5-0.5,2.2c-0.3,0.7-0.9,1.4-1.9,2.3l-3.2,3.1
	H683.3z M691.4,660.4c0.9,0,1.7,0.2,2.5,0.5c0.7,0.4,1.3,0.9,1.8,1.6c0.4,0.7,0.6,1.4,0.6,2.3c0,0.9-0.2,1.8-0.7,2.5
	c-0.5,0.7-1.1,1.3-1.9,1.7c-0.8,0.4-1.7,0.6-2.7,0.6c-2,0-3.5-0.6-4.6-1.8s-1.7-2.9-1.7-5.2c0-1.6,0.3-3,0.9-4.1
	c0.6-1.1,1.4-2,2.5-2.6c1.1-0.6,2.3-0.9,3.8-0.9c0.8,0,1.5,0.1,2.2,0.3c0.7,0.2,1.3,0.4,1.8,0.7l-1.2,2.4c-0.7-0.5-1.6-0.7-2.6-0.7
	c-1.2,0-2.1,0.3-2.8,1c-0.7,0.7-1.1,1.7-1.1,3C688.7,660.8,689.9,660.4,691.4,660.4z M690.7,667.1c0.7,0,1.3-0.2,1.7-0.6
	c0.4-0.4,0.7-0.9,0.7-1.5s-0.2-1.2-0.7-1.5c-0.4-0.4-1-0.6-1.7-0.6c-0.7,0-1.3,0.2-1.8,0.6c-0.5,0.4-0.7,0.9-0.7,1.5
	s0.2,1.1,0.7,1.5C689.4,666.9,690,667.1,690.7,667.1z"/>
<path class="st10" d="M370.7,666.6v2.7H360v-2.1l5.4-5.1c0.6-0.6,1-1,1.2-1.4c0.2-0.4,0.3-0.8,0.3-1.2c0-0.6-0.2-1-0.6-1.3
	c-0.4-0.3-0.9-0.5-1.7-0.5c-0.6,0-1.2,0.1-1.7,0.4c-0.5,0.2-0.9,0.6-1.2,1l-2.4-1.5c0.6-0.8,1.3-1.5,2.3-1.9c1-0.5,2.1-0.7,3.3-0.7
	c1,0,2,0.2,2.7,0.5c0.8,0.3,1.4,0.8,1.8,1.5c0.4,0.6,0.7,1.3,0.7,2.2c0,0.8-0.2,1.5-0.5,2.2c-0.3,0.7-0.9,1.4-1.9,2.3l-3.2,3.1
	H370.7z M378,669.5c-1.2,0-2.2-0.3-3.1-0.9c-0.9-0.6-1.6-1.4-2.2-2.5c-0.5-1.1-0.8-2.4-0.8-3.9s0.3-2.8,0.8-3.9
	c0.5-1.1,1.2-1.9,2.2-2.5c0.9-0.6,2-0.9,3.1-0.9s2.2,0.3,3.1,0.9c0.9,0.6,1.6,1.4,2.1,2.5c0.5,1.1,0.8,2.4,0.8,3.9s-0.3,2.8-0.8,3.9
	c-0.5,1.1-1.2,1.9-2.1,2.5C380.2,669.2,379.2,669.5,378,669.5z M378,666.7c0.9,0,1.5-0.4,2-1.1c0.5-0.7,0.7-1.9,0.7-3.4
	s-0.2-2.7-0.7-3.4c-0.5-0.7-1.2-1.1-2-1.1c-0.8,0-1.5,0.4-2,1.1c-0.5,0.7-0.7,1.9-0.7,3.4s0.2,2.7,0.7,3.4
	C376.5,666.4,377.2,666.7,378,666.7z"/>
<path class="st10" d="M425.6,666.6v2.7h-10.7v-2.1l5.4-5.1c0.6-0.6,1-1,1.2-1.4c0.2-0.4,0.3-0.8,0.3-1.2c0-0.6-0.2-1-0.6-1.3
	c-0.4-0.3-0.9-0.5-1.7-0.5c-0.6,0-1.2,0.1-1.7,0.4c-0.5,0.2-0.9,0.6-1.3,1l-2.4-1.5c0.6-0.8,1.3-1.5,2.3-1.9c1-0.5,2.1-0.7,3.3-0.7
	c1,0,2,0.2,2.7,0.5c0.8,0.3,1.4,0.8,1.8,1.5c0.4,0.6,0.7,1.3,0.7,2.2c0,0.8-0.2,1.5-0.5,2.2c-0.3,0.7-0.9,1.4-1.9,2.3l-3.2,3.1
	H425.6z M432.4,655.1v14.1h-3.3v-11.5h-2.8v-2.6H432.4z"/>
<path class="st10" d="M475.2,718.2v2.7h-10.7v-2.1l5.4-5.1c0.6-0.6,1-1,1.2-1.4c0.2-0.4,0.3-0.8,0.3-1.2c0-0.6-0.2-1-0.6-1.3
	c-0.4-0.3-0.9-0.5-1.7-0.5c-0.6,0-1.2,0.1-1.7,0.4c-0.5,0.2-0.9,0.6-1.3,1l-2.4-1.5c0.6-0.8,1.3-1.5,2.3-1.9c1-0.5,2.1-0.7,3.3-0.7
	c1,0,2,0.2,2.7,0.5c0.8,0.3,1.4,0.8,1.8,1.5c0.4,0.6,0.7,1.4,0.7,2.2c0,0.8-0.2,1.5-0.5,2.2c-0.3,0.7-0.9,1.4-1.9,2.3l-3.2,3.1
	H475.2z M481.5,706.5c2,0,3.5,0.6,4.6,1.8c1.1,1.2,1.7,2.9,1.7,5.2c0,1.6-0.3,3-0.9,4.1c-0.6,1.1-1.4,2-2.5,2.6
	c-1.1,0.6-2.3,0.9-3.8,0.9c-0.8,0-1.5-0.1-2.2-0.2c-0.7-0.2-1.3-0.4-1.8-0.7l1.2-2.4c0.7,0.5,1.6,0.7,2.6,0.7c1.2,0,2.1-0.3,2.8-1
	c0.7-0.7,1.1-1.7,1.1-3.1c-0.8,0.8-2,1.3-3.5,1.3c-0.9,0-1.7-0.2-2.5-0.5c-0.7-0.4-1.3-0.9-1.8-1.5c-0.4-0.7-0.6-1.4-0.6-2.3
	c0-0.9,0.2-1.8,0.7-2.5c0.5-0.7,1.1-1.3,1.9-1.6C479.6,706.7,480.5,706.5,481.5,706.5z M481.7,713.1c0.7,0,1.3-0.2,1.7-0.6
	c0.5-0.4,0.7-0.9,0.7-1.5c0-0.6-0.2-1.1-0.7-1.5c-0.4-0.4-1-0.6-1.8-0.6c-0.7,0-1.3,0.2-1.7,0.6c-0.4,0.4-0.6,0.9-0.6,1.5
	c0,0.6,0.2,1.2,0.6,1.6C480.4,713,481,713.1,481.7,713.1z"/>
<path class="st10" d="M522.8,712.5c1.2,0.2,2.2,0.7,2.8,1.4c0.7,0.7,1,1.6,1,2.7c0,0.8-0.2,1.6-0.6,2.3c-0.4,0.7-1.1,1.2-2,1.7
	c-0.9,0.4-1.9,0.6-3.2,0.6c-1,0-2-0.1-2.9-0.4c-1-0.3-1.8-0.6-2.4-1.1l1.3-2.5c0.5,0.4,1.2,0.7,1.9,0.9c0.7,0.2,1.4,0.3,2.2,0.3
	c0.8,0,1.5-0.2,1.9-0.5c0.5-0.3,0.7-0.8,0.7-1.4c0-1.2-0.9-1.7-2.6-1.7h-1.5v-2.2l2.9-3.3h-6v-2.6h9.9v2.1L522.8,712.5z
	 M534.2,721.1c-1.2,0-2.2-0.3-3.1-0.9c-0.9-0.6-1.6-1.4-2.2-2.5c-0.5-1.1-0.8-2.4-0.8-3.9c0-1.5,0.3-2.8,0.8-3.9
	c0.5-1.1,1.2-1.9,2.2-2.5c0.9-0.6,2-0.9,3.1-0.9s2.2,0.3,3.1,0.9c0.9,0.6,1.6,1.4,2.1,2.5c0.5,1.1,0.8,2.4,0.8,3.9
	c0,1.5-0.3,2.8-0.8,3.9c-0.5,1.1-1.2,1.9-2.1,2.5C536.4,720.8,535.3,721.1,534.2,721.1z M534.2,718.3c0.9,0,1.5-0.4,2-1.1
	c0.5-0.7,0.7-1.9,0.7-3.4s-0.2-2.7-0.7-3.4c-0.5-0.7-1.2-1.1-2-1.1c-0.8,0-1.5,0.4-2,1.1c-0.5,0.7-0.7,1.9-0.7,3.4s0.2,2.7,0.7,3.4
	C532.7,718,533.3,718.3,534.2,718.3z"/>
<path class="st10" d="M371.3,718.2v2.7h-10.7v-2.1l5.4-5.1c0.6-0.6,1-1,1.2-1.4c0.2-0.4,0.3-0.8,0.3-1.2c0-0.6-0.2-1-0.6-1.3
	c-0.4-0.3-0.9-0.5-1.7-0.5c-0.6,0-1.2,0.1-1.7,0.4c-0.5,0.2-0.9,0.6-1.2,1l-2.4-1.5c0.6-0.8,1.3-1.5,2.3-1.9c1-0.5,2.1-0.7,3.3-0.7
	c1,0,2,0.2,2.7,0.5c0.8,0.3,1.4,0.8,1.8,1.5c0.4,0.6,0.7,1.4,0.7,2.2c0,0.8-0.2,1.5-0.5,2.2c-0.3,0.7-0.9,1.4-1.9,2.3l-3.2,3.1
	H371.3z M383.6,706.7v2.1l-5.2,12h-3.5l5.1-11.4h-4.7v2.3h-2.9v-5H383.6z"/>
<path class="st10" d="M422.9,718.2v2.7h-10.7v-2.1l5.4-5.1c0.6-0.6,1-1,1.2-1.4c0.2-0.4,0.3-0.8,0.3-1.2c0-0.6-0.2-1-0.6-1.3
	c-0.4-0.3-0.9-0.5-1.7-0.5c-0.6,0-1.2,0.1-1.7,0.4c-0.5,0.2-0.9,0.6-1.2,1l-2.4-1.5c0.6-0.8,1.3-1.5,2.3-1.9c1-0.5,2.1-0.7,3.3-0.7
	c1,0,2,0.2,2.7,0.5c0.8,0.3,1.4,0.8,1.8,1.5c0.4,0.6,0.7,1.4,0.7,2.2c0,0.8-0.2,1.5-0.5,2.2c-0.3,0.7-0.9,1.4-1.9,2.3l-3.2,3.1
	H422.9z M433.9,713.4c0.7,0.4,1.2,0.8,1.6,1.4c0.4,0.6,0.6,1.2,0.6,2c0,0.9-0.2,1.6-0.7,2.3c-0.5,0.6-1.2,1.1-2.1,1.5
	c-0.9,0.4-1.9,0.5-3.1,0.5c-1.2,0-2.2-0.2-3.1-0.5c-0.9-0.4-1.6-0.9-2.1-1.5c-0.5-0.7-0.7-1.4-0.7-2.3c0-0.7,0.2-1.4,0.5-2
	c0.4-0.6,0.9-1,1.6-1.4c-0.5-0.3-0.9-0.7-1.2-1.2c-0.3-0.5-0.4-1.1-0.4-1.7c0-0.8,0.2-1.5,0.7-2.1c0.5-0.6,1.1-1.1,1.9-1.4
	c0.8-0.3,1.8-0.5,2.8-0.5c1.1,0,2,0.2,2.8,0.5c0.8,0.3,1.5,0.8,1.9,1.4c0.5,0.6,0.7,1.3,0.7,2.1c0,0.6-0.1,1.2-0.4,1.7
	C434.8,712.7,434.4,713.1,433.9,713.4z M430.1,708.9c-0.7,0-1.2,0.2-1.6,0.5c-0.4,0.3-0.6,0.7-0.6,1.3c0,0.5,0.2,1,0.6,1.3
	c0.4,0.3,0.9,0.5,1.6,0.5c0.7,0,1.2-0.2,1.6-0.5c0.4-0.3,0.6-0.7,0.6-1.3c0-0.6-0.2-1-0.6-1.3C431.3,709,430.8,708.9,430.1,708.9z
	 M430.1,718.7c0.8,0,1.5-0.2,1.9-0.5c0.5-0.4,0.7-0.9,0.7-1.5s-0.2-1.1-0.7-1.5c-0.5-0.4-1.1-0.5-1.9-0.5c-0.8,0-1.4,0.2-1.9,0.5
	c-0.5,0.4-0.7,0.9-0.7,1.5c0,0.6,0.2,1.1,0.7,1.5C428.6,718.5,429.3,718.7,430.1,718.7z"/>
<path class="st11" d="M646,576.3c7.7-7.7,7.7-20.2,0-27.9c-7.7-7.7-20.2-7.7-27.9,0c-7.7,7.7-7.7,20.2,0,27.9
	C625.8,584,638.3,584,646,576.3z"/>
<path class="st12" d="M768,333.8H288.6c-11.4,0-20.6,9.2-20.6,20.6v59.7h520.6v-59.7C788.6,343.1,779.4,333.8,768,333.8z"/>
<path class="st13" d="M614.6,434.4H441.3v21h173.3V434.4z"/>
<path class="st6" d="M362.3,479.2c-0.8,0-1.5-0.1-2.2-0.3c-0.7-0.2-1.3-0.5-1.7-0.8l0.8-1.7c0.4,0.3,0.9,0.5,1.5,0.7
	c0.6,0.2,1.1,0.3,1.7,0.3c0.6,0,1.1-0.1,1.4-0.3c0.3-0.2,0.5-0.4,0.5-0.8c0-0.2-0.1-0.4-0.3-0.6c-0.2-0.2-0.4-0.3-0.7-0.4
	c-0.3-0.1-0.7-0.2-1.1-0.3c-0.7-0.2-1.3-0.4-1.8-0.5c-0.5-0.2-0.9-0.5-1.2-0.8c-0.3-0.4-0.5-0.9-0.5-1.6c0-0.6,0.2-1.1,0.5-1.5
	c0.3-0.5,0.8-0.8,1.4-1.1c0.6-0.3,1.4-0.4,2.3-0.4c0.6,0,1.2,0.1,1.8,0.2c0.6,0.1,1.1,0.4,1.6,0.6l-0.7,1.7
	c-0.9-0.5-1.8-0.8-2.7-0.8c-0.6,0-1.1,0.1-1.4,0.3c-0.3,0.2-0.4,0.5-0.4,0.8c0,0.3,0.2,0.6,0.5,0.7c0.4,0.2,0.9,0.3,1.6,0.5
	c0.7,0.2,1.3,0.4,1.8,0.5c0.5,0.2,0.9,0.5,1.2,0.8c0.3,0.4,0.5,0.9,0.5,1.5c0,0.6-0.2,1.1-0.5,1.5c-0.3,0.5-0.8,0.8-1.4,1.1
	C364,479,363.2,479.2,362.3,479.2z M375.3,471.5v7.5h-2.1v-0.9c-0.3,0.3-0.6,0.6-1,0.7c-0.4,0.2-0.8,0.3-1.3,0.3
	c-1,0-1.8-0.3-2.3-0.8c-0.6-0.6-0.9-1.4-0.9-2.5v-4.2h2.2v3.9c0,1.2,0.5,1.8,1.5,1.8c0.5,0,0.9-0.2,1.2-0.5c0.3-0.3,0.5-0.8,0.5-1.5
	v-3.7H375.3z M381.9,471.4c0.9,0,1.7,0.3,2.2,0.8c0.6,0.6,0.9,1.4,0.9,2.5v4.3h-2.2v-3.9c0-0.6-0.1-1-0.4-1.3
	c-0.3-0.3-0.6-0.4-1.1-0.4c-0.5,0-1,0.2-1.3,0.5c-0.3,0.3-0.5,0.8-0.5,1.5v3.7h-2.2v-7.5h2.1v0.9c0.3-0.3,0.6-0.6,1.1-0.7
	C380.9,471.5,381.4,471.4,381.9,471.4z"/>
<path class="st6" d="M417.5,471.4c0.9,0,1.7,0.3,2.2,0.8c0.6,0.5,0.8,1.4,0.8,2.5v4.3h-2.2v-3.9c0-0.6-0.1-1-0.4-1.3
	c-0.2-0.3-0.6-0.4-1-0.4c-0.5,0-0.9,0.2-1.2,0.5c-0.3,0.3-0.4,0.8-0.4,1.5v3.7h-2.2v-3.9c0-1.2-0.5-1.8-1.4-1.8
	c-0.5,0-0.9,0.2-1.2,0.5c-0.3,0.3-0.4,0.8-0.4,1.5v3.7H408v-7.5h2.1v0.9c0.3-0.3,0.6-0.6,1-0.7c0.4-0.2,0.9-0.3,1.3-0.3
	c0.5,0,1,0.1,1.4,0.3c0.4,0.2,0.8,0.5,1,0.9c0.3-0.4,0.7-0.7,1.2-0.9C416.5,471.5,417,471.4,417.5,471.4z M426.2,479.1
	c-0.8,0-1.5-0.2-2.1-0.5c-0.6-0.3-1.1-0.8-1.5-1.4s-0.5-1.2-0.5-2c0-0.7,0.2-1.4,0.5-2s0.8-1,1.5-1.4c0.6-0.3,1.3-0.5,2.1-0.5
	c0.8,0,1.5,0.2,2.1,0.5c0.6,0.3,1.1,0.8,1.5,1.4c0.4,0.6,0.5,1.2,0.5,2c0,0.7-0.2,1.4-0.5,2c-0.4,0.6-0.8,1-1.5,1.4
	C427.6,478.9,426.9,479.1,426.2,479.1z M426.2,477.3c0.6,0,1-0.2,1.4-0.6c0.4-0.4,0.5-0.9,0.5-1.5c0-0.6-0.2-1.1-0.5-1.5
	c-0.4-0.4-0.8-0.6-1.4-0.6c-0.6,0-1,0.2-1.4,0.6c-0.4,0.4-0.5,0.9-0.5,1.5c0,0.6,0.2,1.1,0.5,1.5
	C425.1,477.2,425.6,477.3,426.2,477.3z M436.2,471.4c0.9,0,1.7,0.3,2.2,0.8c0.6,0.6,0.9,1.4,0.9,2.5v4.3h-2.2v-3.9
	c0-0.6-0.1-1-0.4-1.3c-0.3-0.3-0.6-0.4-1.1-0.4c-0.5,0-1,0.2-1.3,0.5c-0.3,0.3-0.5,0.8-0.5,1.5v3.7h-2.2v-7.5h2.1v0.9
	c0.3-0.3,0.6-0.6,1.1-0.7C435.2,471.5,435.7,471.4,436.2,471.4z"/>
<path class="st6" d="M470.8,478.6c-0.2,0.2-0.5,0.3-0.8,0.4c-0.3,0.1-0.6,0.1-1,0.1c-0.9,0-1.6-0.2-2.1-0.7c-0.5-0.5-0.7-1.1-0.7-2
	v-3.1h-1.1v-1.7h1.1v-1.8h2.2v1.8h1.9v1.7h-1.9v3c0,0.3,0.1,0.6,0.2,0.7c0.2,0.2,0.4,0.3,0.7,0.3c0.3,0,0.6-0.1,0.9-0.3L470.8,478.6
	z M479.5,471.5v7.5h-2.1v-0.9c-0.3,0.3-0.6,0.6-1,0.7c-0.4,0.2-0.8,0.3-1.3,0.3c-1,0-1.8-0.3-2.3-0.8c-0.6-0.6-0.9-1.4-0.9-2.5v-4.2
	h2.2v3.9c0,1.2,0.5,1.8,1.5,1.8c0.5,0,0.9-0.2,1.2-0.5c0.3-0.3,0.5-0.8,0.5-1.5v-3.7H479.5z M488.8,475.3c0,0,0,0.2,0,0.6h-5.6
	c0.1,0.5,0.3,0.8,0.7,1.1c0.4,0.3,0.8,0.4,1.4,0.4c0.4,0,0.7-0.1,1-0.2c0.3-0.1,0.6-0.3,0.8-0.6l1.1,1.2c-0.7,0.8-1.7,1.2-3.1,1.2
	c-0.8,0-1.6-0.2-2.2-0.5c-0.6-0.3-1.1-0.8-1.5-1.4c-0.4-0.6-0.5-1.2-0.5-2c0-0.7,0.2-1.4,0.5-2c0.4-0.6,0.8-1,1.4-1.4
	c0.6-0.3,1.3-0.5,2-0.5c0.7,0,1.4,0.2,2,0.5c0.6,0.3,1.1,0.8,1.4,1.4C488.7,473.8,488.8,474.5,488.8,475.3z M485,473.1
	c-0.5,0-0.9,0.1-1.2,0.4c-0.3,0.3-0.5,0.7-0.6,1.1h3.7c-0.1-0.5-0.3-0.8-0.6-1.1C485.9,473.2,485.4,473.1,485,473.1z"/>
<path class="st6" d="M525,471.5l-2.7,7.5h-2.1l-1.7-4.6l-1.7,4.6h-2.1l-2.7-7.5h2l1.8,5l1.8-5h1.8l1.8,5l1.8-5H525z M533.1,475.3
	c0,0,0,0.2,0,0.6h-5.6c0.1,0.5,0.3,0.8,0.7,1.1c0.4,0.3,0.8,0.4,1.4,0.4c0.4,0,0.7-0.1,1-0.2c0.3-0.1,0.6-0.3,0.8-0.6l1.1,1.2
	c-0.7,0.8-1.7,1.2-3.1,1.2c-0.8,0-1.6-0.2-2.2-0.5c-0.6-0.3-1.1-0.8-1.5-1.4s-0.5-1.2-0.5-2c0-0.7,0.2-1.4,0.5-2
	c0.4-0.6,0.8-1,1.4-1.4c0.6-0.3,1.3-0.5,2-0.5c0.7,0,1.4,0.2,2,0.5c0.6,0.3,1.1,0.8,1.4,1.4C532.9,473.8,533.1,474.5,533.1,475.3z
	 M529.2,473.1c-0.5,0-0.9,0.1-1.2,0.4c-0.3,0.3-0.5,0.7-0.6,1.1h3.7c-0.1-0.5-0.3-0.8-0.6-1.1C530.1,473.2,529.7,473.1,529.2,473.1z
	 M542.1,468.7V479H540v-0.9c-0.5,0.6-1.3,1-2.3,1c-0.7,0-1.3-0.2-1.9-0.5c-0.6-0.3-1-0.8-1.3-1.3s-0.5-1.3-0.5-2s0.2-1.4,0.5-2
	s0.8-1,1.3-1.3c0.6-0.3,1.2-0.5,1.9-0.5c1,0,1.7,0.3,2.2,0.9v-3.6H542.1z M538.1,477.3c0.5,0,1-0.2,1.4-0.6c0.4-0.4,0.5-0.9,0.5-1.5
	c0-0.6-0.2-1.1-0.5-1.5c-0.4-0.4-0.8-0.6-1.4-0.6c-0.6,0-1,0.2-1.4,0.6c-0.4,0.4-0.5,0.9-0.5,1.5c0,0.6,0.2,1.1,0.5,1.5
	C537.1,477.2,537.5,477.3,538.1,477.3z"/>
<path class="st6" d="M572.8,478.6c-0.2,0.2-0.5,0.3-0.8,0.4c-0.3,0.1-0.6,0.1-1,0.1c-0.9,0-1.6-0.2-2.1-0.7c-0.5-0.5-0.7-1.1-0.7-2
	v-3.1h-1.1v-1.7h1.1v-1.8h2.2v1.8h1.9v1.7h-1.9v3c0,0.3,0.1,0.6,0.2,0.7c0.2,0.2,0.4,0.3,0.7,0.3c0.3,0,0.6-0.1,0.9-0.3L572.8,478.6
	z M578.5,471.4c0.9,0,1.7,0.3,2.2,0.8c0.6,0.6,0.9,1.4,0.9,2.5v4.3h-2.2v-3.9c0-0.6-0.1-1-0.4-1.3c-0.3-0.3-0.6-0.4-1.1-0.4
	c-0.5,0-1,0.2-1.3,0.5c-0.3,0.3-0.5,0.8-0.5,1.5v3.7H574v-10.3h2.2v3.6c0.3-0.3,0.6-0.5,1-0.7C577.6,471.5,578.1,471.4,578.5,471.4z
	 M591.1,471.5v7.5h-2v-0.9c-0.3,0.3-0.6,0.6-1,0.7c-0.4,0.2-0.8,0.3-1.3,0.3c-1,0-1.8-0.3-2.3-0.8c-0.6-0.6-0.9-1.4-0.9-2.5v-4.2
	h2.2v3.9c0,1.2,0.5,1.8,1.5,1.8c0.5,0,0.9-0.2,1.2-0.5c0.3-0.3,0.5-0.8,0.5-1.5v-3.7H591.1z"/>
<path class="st6" d="M627.4,471.7h1.9v1.7h-1.9v5.6h-2.2v-5.6h-1.1v-1.7h1.1v-0.3c0-0.9,0.2-1.5,0.7-2c0.5-0.5,1.2-0.7,2.1-0.7
	c0.3,0,0.6,0,0.9,0.1c0.3,0.1,0.5,0.2,0.7,0.3l-0.6,1.6c-0.2-0.2-0.5-0.3-0.9-0.3c-0.7,0-1,0.4-1,1.1V471.7z M633.5,472.5
	c0.3-0.4,0.6-0.6,1-0.8c0.4-0.2,1-0.3,1.5-0.3v2c-0.2,0-0.4,0-0.5,0c-0.6,0-1.1,0.2-1.5,0.5c-0.4,0.3-0.5,0.9-0.5,1.6v3.5h-2.2v-7.5
	h2.1V472.5z M637.4,471.5h2.2v7.5h-2.2V471.5z M638.5,470.5c-0.4,0-0.7-0.1-1-0.3c-0.3-0.2-0.4-0.5-0.4-0.9c0-0.3,0.1-0.6,0.4-0.9
	c0.2-0.2,0.6-0.3,1-0.3c0.4,0,0.7,0.1,1,0.3c0.3,0.2,0.4,0.5,0.4,0.8c0,0.4-0.1,0.7-0.4,0.9C639.2,470.4,638.9,470.5,638.5,470.5z"
	/>
<path class="st6" d="M676.5,479.1c-0.6,0-1.2-0.1-1.8-0.2c-0.6-0.2-1.1-0.4-1.4-0.6l0.7-1.6c0.3,0.2,0.7,0.4,1.2,0.5
	c0.5,0.1,0.9,0.2,1.4,0.2c0.9,0,1.4-0.2,1.4-0.7c0-0.2-0.1-0.4-0.4-0.5c-0.2-0.1-0.6-0.2-1.2-0.2c-0.6-0.1-1.1-0.2-1.5-0.3
	c-0.4-0.1-0.7-0.3-1-0.6c-0.3-0.3-0.4-0.7-0.4-1.3c0-0.5,0.1-0.9,0.4-1.2c0.3-0.4,0.7-0.7,1.2-0.9c0.5-0.2,1.1-0.3,1.9-0.3
	c0.5,0,1,0.1,1.6,0.2c0.5,0.1,1,0.3,1.3,0.5l-0.7,1.5c-0.7-0.4-1.4-0.6-2.1-0.6c-0.5,0-0.8,0.1-1,0.2c-0.2,0.1-0.3,0.3-0.3,0.5
	c0,0.2,0.1,0.4,0.4,0.5c0.2,0.1,0.6,0.2,1.2,0.3c0.6,0.1,1.1,0.2,1.5,0.3c0.4,0.1,0.7,0.3,1,0.6c0.3,0.3,0.4,0.7,0.4,1.3
	c0,0.5-0.1,0.9-0.4,1.2c-0.3,0.4-0.7,0.6-1.2,0.8C677.9,479,677.2,479.1,676.5,479.1z M684.4,471.4c1.2,0,2,0.3,2.7,0.8
	c0.6,0.5,0.9,1.4,0.9,2.5v4.3h-2v-0.9c-0.4,0.7-1.2,1-2.3,1c-0.6,0-1.1-0.1-1.5-0.3c-0.4-0.2-0.7-0.5-1-0.8
	c-0.2-0.3-0.3-0.7-0.3-1.2c0-0.7,0.3-1.2,0.8-1.6c0.5-0.4,1.3-0.6,2.4-0.6h1.7c0-0.5-0.1-0.8-0.4-1.1c-0.3-0.3-0.7-0.4-1.3-0.4
	c-0.4,0-0.8,0.1-1.2,0.2c-0.4,0.1-0.7,0.3-1,0.5l-0.8-1.5c0.4-0.3,0.9-0.5,1.5-0.7C683.2,471.5,683.8,471.4,684.4,471.4z
	 M684.2,477.7c0.4,0,0.7-0.1,1-0.2c0.3-0.2,0.5-0.4,0.6-0.8v-0.8h-1.5c-0.9,0-1.3,0.3-1.3,0.9c0,0.3,0.1,0.5,0.3,0.7
	C683.5,477.6,683.8,477.7,684.2,477.7z M694.7,478.6c-0.2,0.2-0.5,0.3-0.8,0.4c-0.3,0.1-0.6,0.1-1,0.1c-0.9,0-1.6-0.2-2.1-0.7
	c-0.5-0.5-0.7-1.1-0.7-2v-3.1H689v-1.7h1.2v-1.8h2.2v1.8h1.9v1.7h-1.9v3c0,0.3,0.1,0.6,0.2,0.7c0.2,0.2,0.4,0.3,0.7,0.3
	c0.3,0,0.6-0.1,0.9-0.3L694.7,478.6z"/>
<path class="st14" d="M332.4,363.6c21.1-21.1,21.1-55.4,0-76.5c-21.1-21.1-55.4-21.1-76.5,0c-21.1,21.1-21.1,55.4,0,76.5
	C277,384.7,311.3,384.7,332.4,363.6z"/>
<path class="st0" d="M318.7,327c0,0-0.7,0.1-1.9,0.1c-1.4,0-3.1,0.1-5.3,0.1c-4.5,0.1-10.7,0.1-17.7,0.1h-0.3V327c0-1.1,0-2.3,0-3.5
	c0-7.8,0-14.9,0.1-20.1c0-2.5,0.1-4.5,0.1-6.1c0-1.4,0.1-2.2,0.1-2.2c0.1,0,0.1,0.8,0.1,2.2c0,1.6,0.1,3.6,0.1,6.1
	c0.1,5.1,0.1,12.2,0.1,20.1c0,1.2,0,2.4,0,3.5l-0.3-0.3c7,0,13.2,0,17.7,0.1c2.1,0,3.9,0.1,5.3,0.1C318,326.9,318.7,326.9,318.7,327
	z"/>
<path class="st0" d="M294,280.1c0.2,0,0.3,2,0.3,4.5s-0.2,4.5-0.3,4.5c-0.2,0-0.3-2-0.3-4.5S293.8,280.1,294,280.1z"/>
<path class="st0" d="M318.7,287.4c0.1,0.1-1.2,1.7-2.9,3.4c-1.8,1.8-3.3,3.1-3.4,2.9c-0.1-0.1,1.2-1.7,2.9-3.4
	C317,288.5,318.5,287.2,318.7,287.4z"/>
<path class="st0" d="M333.1,303.1c0.1,0.2-1.6,1.2-3.7,2.5c-2.1,1.3-3.8,2.3-3.9,2.2c-0.1-0.1,1.4-1.5,3.6-2.8
	C331.1,303.7,333,302.9,333.1,303.1z"/>
<path class="st0" d="M341.5,326.5c0,0.2-2.8,0.3-6.2,0.3c-3.4,0-6.2-0.2-6.2-0.3c0-0.2,2.8-0.3,6.2-0.3
	C338.8,326.1,341.5,326.3,341.5,326.5z"/>
<path class="st0" d="M255.6,325.7c0,0.2-2.6,0.3-5.9,0.3c-3.2,0-5.9-0.2-5.9-0.3c0-0.2,2.6-0.3,5.9-0.3
	C253,325.3,255.6,325.5,255.6,325.7z"/>
<path class="st0" d="M261.7,343.1c0.1,0.1-1.9,1.9-4.4,4c-2.6,2.1-4.7,3.6-4.9,3.5c-0.1-0.2,1.9-2,4.4-4
	C259.4,344.5,261.5,342.9,261.7,343.1z"/>
<path class="st0" d="M276.7,356.5c0.2,0.1-1.3,2.4-3,5.2c-1.7,2.8-3,5.2-3.2,5.1c-0.2-0.1,0.9-2.6,2.6-5.5
	C274.8,358.5,276.5,356.4,276.7,356.5z"/>
<path class="st0" d="M294,373.9c-0.2,0-0.3-2.8-0.3-6.2c0-3.4,0.2-6.2,0.3-6.2c0.2,0,0.3,2.8,0.3,6.2
	C294.4,371.1,294.2,373.9,294,373.9z"/>
<path class="st0" d="M320.7,365.6c-0.1,0.2-2.5-1.2-5.1-3.5c-2.6-2.3-4.3-4.5-4.2-4.6c0.1-0.1,2.1,1.8,4.6,4.1
	C318.6,363.8,320.9,365.4,320.7,365.6z"/>
<path class="st0" d="M333.3,352.1c-0.1,0.1-2-1.5-4.1-3.6c-2.1-2.1-3.7-4-3.6-4.1c0.1-0.1,2,1.5,4.1,3.6
	C331.8,350.1,333.4,352,333.3,352.1z"/>
<path class="st0" d="M261.1,309c-0.1,0.1-1.8-1.3-3.6-3.1c-1.9-1.9-3.3-3.5-3.1-3.6c0.1-0.1,1.8,1.3,3.6,3.1
	C259.8,307.2,261.2,308.9,261.1,309z"/>
<path class="st0" d="M276.6,292.7c-0.1,0.1-1.7-1.2-3.6-3.1c-1.8-1.8-3.2-3.4-3.1-3.5c0.1-0.1,1.7,1.2,3.6,3.1
	C275.3,291,276.7,292.6,276.6,292.7z"/>
<path class="st15" d="M905.3,421.9l-25.8,6.1l-2.9-31.9c-6,5.8-12.3,9.5-15.7,9.4c-8.5-0.2-16.2-29.5-12.7-42.5
	c3.5-13.1,34.3-25.6,41.4-3c2.4,7.9,0.8,15.8-2.8,22.7L905.3,421.9z"/>
<path class="st16" d="M881.6,374.2c-0.8-3.3-4.2-5.8-8-4.9c-1.4,0.3-2.5,1.4-3.2,2.8c-0.9-2-1.6-3.9-2-5.9c-0.5-2.2-0.7-4.1-0.7-5.9
	c-4.7,0.8-9,1-12.5,0.8c-5.7,1-11.3-2.6-12.7-8.4c-1.4-5.9,2.3-11.9,8.2-13.3c5.9-1.4,11.9,2.3,13.3,8.2c1.1-0.3,2.3-0.5,3.5-0.8
	c6.3-1.3,12.2-1.6,16.4-1.1c0.8,0.1,1.6,0.2,2.3,0.4c1.3,0.3,2.3,0.7,3,1.2c2.9,1.5,5.5,4.1,7.6,7.4c5.7-4.8,12.6-8.8,27.8-12.3
	c22.3-5.2,23.6,28.5,7.6,32.2c-11.8,2.8-21.4-7.6-31.7-11.7c0.1,0.4,0.2,0.8,0.3,1.3c2.8,12.1-0.5,24.7-8.9,26.7
	c-4.4,1-9.9-2.5-14.6-7.9C880.9,382,882.6,378.4,881.6,374.2z"/>
<path class="st15" d="M875.4,518.7L848.7,762l19.1,0.6l22.3-104l44.8-138L875.4,518.7z"/>
<path class="st15" d="M882.7,518.9c13.8,69.7,23.5,109.6,26.9,119.4c3.4,9.8,13.3,54.2,43.3,129.2l19.8,0.6
	c-22-77.9-24.2-122-24.6-128.6c-0.4-6.6-0.3-46.1,4.8-118.4L882.7,518.9z"/>
<path class="st6" d="M875.1,518.6c-16.8,50.2-27.8,120.9-29.1,228.9l27.9,0.9c29.2-104.3,49.8-180.2,61.8-227.8L875.1,518.6z"/>
<path class="st6" d="M878.5,518.8c13.1,87.4,34.1,159.1,64.3,232.9l29.8,0.9c-19.4-87.7-24.4-159.2-19.3-231.5L878.5,518.8z"/>
<path class="st17" d="M972.9,785.8l-23-0.7l-39.4-1.2l-1.3-5.4c0-0.1,0-0.1,0-0.2c-0.2-1.2,0.7-2.3,1.9-2.5
	c15.8-2.2,29.1-6.8,39.7-13.8c9.6,3.6,17.6,4.6,24,3l0.5,17.7L972.9,785.8z"/>
<path class="st17" d="M869.2,782.5l-23-0.7l-39.4-1.2l-1.3-5.4c0-0.1,0-0.2-0.1-0.2c-0.2-1.2,0.7-2.3,1.9-2.5
	c15.8-2.2,29.1-6.8,39.7-13.8c9.6,3.6,17.6,4.6,24,3l0.5,17.7L869.2,782.5z"/>
<path class="st15" d="M846,473.1l-31.2-21.3c-15.1-1.9-22.2-3.9-21.2-5.9c1.5-3,5.7-1.3,7-3.2c1.3-1.9-2.5-7.3-6.3-12.3
	c-3.8-5-0.5-5,1.5-4.5c6.7,3.3,13.8,8.2,21.2,14.8l40.9,15.3L846,473.1z M802.4,499c-7.9-4.2-15.1-6.6-21.6-7.5
	c-12.3-1.6-17.5-3.4-24.3-10c-3.7-3.5-7.4-11-4.9-14.1c1.7-2,14.5,4.9,19.4,5.2c4.9,0.3-1.1-10.3,1.6-9.5c3.3-0.4,6.7,3.7,10.3,12.2
	l18,6.8L802.4,499z"/>
<path class="st14" d="M869.3,474.9c-16,2.8-35.8-5.2-50.7-16.3l5-17.6c20.6,9.3,38.8,9.5,52.1,7.8
	C886.1,456.5,881.9,472.7,869.3,474.9z"/>
<path class="st14" d="M868.7,406.8l30.3-4.4c3.3-0.5,32.2,39.6,36.2,67.7c3.7,25.7,30,38.6,23.4,80.5c-20.3-1-76.2,27.2-89.3,7.3
	c-6.4-9.7-9.5-20.8-10.5-32.8c-20.2,2.5-45.5-0.7-76.2-11.4c-1.7-7.2,0.4-19.9,6.2-38.1c34.9,7,59.2,7.8,72.8,2.2
	C865.1,453.4,870.1,428.5,868.7,406.8z"/>
<path class="st6" d="M262.3,193.6c-2.1,0-3.9-0.4-5.6-1.3c-1.7-0.9-3-2.2-3.9-3.7c-0.9-1.6-1.4-3.4-1.4-5.4c0-2,0.5-3.8,1.4-5.4
	c1-1.6,2.3-2.9,3.9-3.7c1.7-0.9,3.6-1.4,5.7-1.4c1.8,0,3.3,0.3,4.8,0.9c1.4,0.6,2.6,1.5,3.6,2.7l-3,2.8c-1.4-1.6-3.1-2.4-5.1-2.4
	c-1.3,0-2.4,0.3-3.4,0.8c-1,0.5-1.8,1.3-2.3,2.3c-0.5,1-0.8,2.1-0.8,3.4c0,1.3,0.3,2.4,0.8,3.4c0.6,1,1.3,1.8,2.3,2.3
	c1,0.5,2.1,0.8,3.4,0.8c2,0,3.7-0.8,5.1-2.4l3,2.8c-1,1.2-2.2,2.1-3.6,2.7C265.7,193.3,264.1,193.6,262.3,193.6z M283.3,193.6
	c-2.1,0-4-0.5-5.7-1.4c-1.7-0.9-3-2.2-4-3.7c-0.9-1.6-1.4-3.4-1.4-5.4c0-2,0.5-3.8,1.4-5.4c1-1.6,2.3-2.9,4-3.8
	c1.7-0.9,3.6-1.4,5.7-1.4c2.1,0,4,0.5,5.7,1.4c1.7,0.9,3,2.2,4,3.8c1,1.6,1.4,3.4,1.4,5.4c0,2-0.5,3.8-1.4,5.4c-1,1.6-2.3,2.8-4,3.7
	C287.3,193.2,285.4,193.6,283.3,193.6z M283.3,189.6c1.2,0,2.3-0.3,3.2-0.8c1-0.6,1.7-1.3,2.3-2.3c0.6-1,0.8-2.1,0.8-3.4
	c0-1.3-0.3-2.4-0.8-3.4c-0.5-1-1.3-1.8-2.3-2.3c-1-0.6-2.1-0.8-3.2-0.8c-1.2,0-2.3,0.3-3.2,0.8c-1,0.5-1.7,1.3-2.3,2.3
	c-0.5,1-0.8,2.1-0.8,3.4c0,1.3,0.3,2.4,0.8,3.4c0.6,1,1.3,1.8,2.3,2.3C281,189.4,282.1,189.6,283.3,189.6z M316.6,173v20.3h-3.9
	L302.6,181v12.3h-4.6V173h3.9l10.1,12.3V173H316.6z M325.6,176.8h-6.5V173h17.7v3.8h-6.5v16.5h-4.7V176.8z M352.2,193.3l-3.9-5.7
	h-0.2H344v5.7h-4.7V173h8.8c1.8,0,3.4,0.3,4.7,0.9c1.3,0.6,2.4,1.4,3.1,2.6c0.7,1.1,1.1,2.4,1.1,3.9s-0.4,2.8-1.1,3.9
	c-0.7,1.1-1.7,1.9-3.1,2.5l4.6,6.5H352.2z M352.1,180.4c0-1.1-0.4-2-1.1-2.6c-0.7-0.6-1.8-0.9-3.2-0.9H344v7.1h3.8
	c1.4,0,2.5-0.3,3.2-0.9C351.8,182.3,352.1,181.5,352.1,180.4z M360.6,173h4.7v20.3h-4.7V173z M385,182.7c1.2,0.4,2.1,1,2.7,1.9
	c0.7,0.9,1,1.9,1,3.2c0,1.8-0.7,3.2-2.1,4.1c-1.4,0.9-3.4,1.4-6,1.4h-10.5V173h9.9c2.5,0,4.4,0.5,5.7,1.4c1.3,0.9,2,2.2,2,3.9
	c0,1-0.2,1.9-0.7,2.6C386.5,181.7,385.9,182.3,385,182.7z M374.8,176.5v4.8h4.7c1.2,0,2-0.2,2.6-0.6c0.6-0.4,0.9-1,0.9-1.8
	c0-0.8-0.3-1.4-0.9-1.8c-0.6-0.4-1.5-0.6-2.6-0.6H374.8z M380.3,189.8c1.2,0,2.2-0.2,2.8-0.6c0.6-0.4,1-1,1-1.9
	c0-1.7-1.2-2.5-3.7-2.5h-5.5v5H380.3z M401.3,193.6c-2.9,0-5.2-0.8-6.8-2.4c-1.6-1.6-2.4-3.9-2.4-6.9V173h4.7v11.2
	c0,3.6,1.5,5.5,4.5,5.5c1.5,0,2.6-0.4,3.4-1.3c0.8-0.9,1.2-2.3,1.2-4.1V173h4.6v11.4c0,3-0.8,5.3-2.4,6.9
	C406.5,192.8,404.2,193.6,401.3,193.6z M419,176.8h-6.5V173h17.7v3.8h-6.5v16.5H419V176.8z M448.5,189.5v3.8h-15.7V173h15.3v3.8
	h-10.7v4.4h9.4v3.7h-9.4v4.7H448.5z M473.8,188.9h-9.4l-1.8,4.3h-4.8l9-20.3h4.6l9.1,20.3h-4.9L473.8,188.9z M472.3,185.4l-3.2-7.8
	l-3.2,7.8H472.3z M501.2,173v20.3h-3.9L487.3,181v12.3h-4.6V173h3.9l10.1,12.3V173H501.2z M506,173h9.2c2.2,0,4.1,0.4,5.8,1.3
	c1.7,0.8,3,2,3.9,3.5c0.9,1.5,1.4,3.3,1.4,5.3s-0.5,3.8-1.4,5.3c-0.9,1.5-2.2,2.7-3.9,3.6c-1.7,0.8-3.6,1.2-5.8,1.2H506V173z
	 M515,189.4c2,0,3.6-0.6,4.8-1.7c1.2-1.1,1.8-2.7,1.8-4.6c0-1.9-0.6-3.5-1.8-4.6c-1.2-1.1-2.8-1.7-4.8-1.7h-4.3v12.6H515z
	 M544.9,193.6c-1.6,0-3.2-0.2-4.7-0.6c-1.5-0.4-2.7-1-3.6-1.7l1.6-3.5c0.9,0.6,1.9,1.1,3.1,1.5c1.2,0.4,2.4,0.6,3.6,0.6
	c1.3,0,2.3-0.2,3-0.6c0.6-0.4,1-0.9,1-1.6c0-0.5-0.2-0.9-0.6-1.2c-0.4-0.3-0.9-0.6-1.4-0.8c-0.6-0.2-1.4-0.4-2.4-0.6
	c-1.5-0.4-2.8-0.7-3.8-1.1c-1-0.4-1.8-1-2.6-1.8c-0.7-0.8-1-1.9-1-3.2c0-1.2,0.3-2.2,1-3.2c0.6-1,1.6-1.7,2.9-2.3
	c1.3-0.6,2.9-0.8,4.7-0.8c1.3,0,2.6,0.2,3.8,0.5c1.2,0.3,2.3,0.8,3.2,1.3l-1.5,3.6c-1.9-1.1-3.8-1.6-5.6-1.6c-1.3,0-2.3,0.2-2.9,0.6
	c-0.6,0.4-0.9,1-0.9,1.7s0.4,1.2,1.1,1.6c0.7,0.3,1.8,0.7,3.3,1c1.5,0.4,2.8,0.7,3.8,1.1c1,0.4,1.8,0.9,2.5,1.7
	c0.7,0.8,1.1,1.9,1.1,3.2c0,1.2-0.3,2.2-1,3.2c-0.6,0.9-1.6,1.7-2.9,2.3C548.3,193.4,546.7,193.6,544.9,193.6z M570.1,188.9h-9.4
	l-1.8,4.3H554l9-20.3h4.6l9.1,20.3h-4.9L570.1,188.9z M568.6,185.4l-3.2-7.8l-3.2,7.8H568.6z M597.3,173l-8.8,20.3h-4.6l-8.8-20.3
	h5.1l6.2,14.5l6.3-14.5H597.3z M614.7,189.5v3.8H599V173h15.3v3.8h-10.7v4.4h9.4v3.7h-9.4v4.7H614.7z M626.7,173h4.7v20.3h-4.7V173z
	 M654.8,173v20.3H651L640.8,181v12.3h-4.6V173h3.9l10.1,12.3V173H654.8z M663.8,176.8h-6.5V173H675v3.8h-6.5v16.5h-4.7V176.8z
	 M693.3,189.5v3.8h-15.7V173h15.3v3.8h-10.7v4.4h9.4v3.7h-9.4v4.7H693.3z M709.9,193.3l-3.9-5.7h-0.2h-4.1v5.7H697V173h8.8
	c1.8,0,3.4,0.3,4.7,0.9c1.3,0.6,2.4,1.4,3.1,2.6c0.7,1.1,1.1,2.4,1.1,3.9s-0.4,2.8-1.1,3.9c-0.7,1.1-1.7,1.9-3.1,2.5l4.6,6.5H709.9z
	 M709.9,180.4c0-1.1-0.4-2-1.1-2.6c-0.7-0.6-1.8-0.9-3.2-0.9h-3.8v7.1h3.8c1.4,0,2.5-0.3,3.2-0.9
	C709.5,182.3,709.9,181.5,709.9,180.4z M736.9,173v20.3h-3.9L723,181v12.3h-4.6V173h3.9l10.1,12.3V173H736.9z M755.1,188.9h-9.4
	l-1.8,4.3h-4.8l9-20.3h4.6l9.1,20.3h-4.9L755.1,188.9z M753.6,185.4l-3.2-7.8l-3.2,7.8H753.6z M767.1,176.8h-6.5V173h17.7v3.8h-6.5
	v16.5h-4.7V176.8z M780.9,173h4.7v20.3h-4.7V173z M800.2,193.6c-2.1,0-4-0.5-5.7-1.4c-1.7-0.9-3-2.2-4-3.7c-0.9-1.6-1.4-3.4-1.4-5.4
	c0-2,0.5-3.8,1.4-5.4c1-1.6,2.3-2.9,4-3.8c1.7-0.9,3.6-1.4,5.7-1.4c2.1,0,4,0.5,5.7,1.4c1.7,0.9,3,2.2,4,3.8c1,1.6,1.5,3.4,1.5,5.4
	c0,2-0.5,3.8-1.5,5.4c-1,1.6-2.3,2.8-4,3.7C804.2,193.2,802.3,193.6,800.2,193.6z M800.2,189.6c1.2,0,2.3-0.3,3.2-0.8
	c1-0.6,1.7-1.3,2.3-2.3c0.6-1,0.8-2.1,0.8-3.4c0-1.3-0.3-2.4-0.8-3.4c-0.5-1-1.3-1.8-2.3-2.3c-1-0.6-2-0.8-3.2-0.8
	c-1.2,0-2.3,0.3-3.2,0.8c-1,0.5-1.7,1.3-2.3,2.3c-0.5,1-0.8,2.1-0.8,3.4c0,1.3,0.3,2.4,0.8,3.4c0.6,1,1.3,1.8,2.3,2.3
	C797.9,189.4,799,189.6,800.2,189.6z M833.5,173v20.3h-3.9L819.5,181v12.3h-4.6V173h3.9l10.1,12.3V173H833.5z M851.6,188.9h-9.4
	l-1.8,4.3h-4.8l9-20.3h4.6l9.1,20.3h-4.9L851.6,188.9z M850.2,185.4l-3.2-7.8l-3.2,7.8H850.2z M860.5,173h4.7v16.5h10.2v3.8h-14.9
	V173z M388.1,208h9.2c2.2,0,4.1,0.4,5.8,1.3c1.7,0.8,3,2,3.9,3.5c0.9,1.5,1.4,3.3,1.4,5.3s-0.5,3.8-1.4,5.3
	c-0.9,1.5-2.2,2.7-3.9,3.6c-1.7,0.8-3.6,1.2-5.8,1.2h-9.2V208z M397.1,224.4c2,0,3.6-0.6,4.8-1.7c1.2-1.1,1.8-2.7,1.8-4.6
	c0-1.9-0.6-3.5-1.8-4.6c-1.2-1.1-2.8-1.7-4.8-1.7h-4.3v12.6H397.1z M427.8,224.5v3.8H412V208h15.3v3.8h-10.7v4.4h9.4v3.7h-9.4v4.7
	H427.8z M450.7,208l-8.8,20.3h-4.6l-8.8-20.3h5.1l6.2,14.5l6.3-14.5H450.7z M468.1,224.5v3.8h-15.7V208h15.3v3.8h-10.7v4.4h9.4v3.7
	h-9.4v4.7H468.1z M471.9,208h4.7v16.5h10.2v3.8h-14.9V208z M498.9,228.6c-2.1,0-4-0.5-5.7-1.4c-1.7-0.9-3-2.2-4-3.7
	c-0.9-1.6-1.4-3.4-1.4-5.4c0-2,0.5-3.8,1.4-5.4c1-1.6,2.3-2.9,4-3.8c1.7-0.9,3.6-1.4,5.7-1.4s4,0.5,5.7,1.4c1.7,0.9,3,2.2,4,3.8
	c1,1.6,1.4,3.4,1.4,5.4c0,2-0.5,3.8-1.4,5.4c-1,1.6-2.3,2.8-4,3.7C502.9,228.2,501,228.6,498.9,228.6z M498.9,224.6
	c1.2,0,2.3-0.3,3.2-0.8c1-0.6,1.7-1.3,2.3-2.3c0.6-1,0.8-2.1,0.8-3.4c0-1.3-0.3-2.4-0.8-3.4c-0.5-1-1.3-1.8-2.3-2.3
	c-1-0.6-2-0.8-3.2-0.8s-2.3,0.3-3.2,0.8c-1,0.5-1.7,1.3-2.3,2.3c-0.5,1-0.8,2.1-0.8,3.4c0,1.3,0.3,2.4,0.8,3.4
	c0.6,1,1.3,1.8,2.3,2.3C496.6,224.4,497.7,224.6,498.9,224.6z M522.3,208c1.8,0,3.4,0.3,4.7,0.9c1.3,0.6,2.4,1.4,3.1,2.6
	c0.7,1.1,1.1,2.4,1.1,3.9c0,1.5-0.4,2.8-1.1,3.9c-0.7,1.1-1.7,2-3.1,2.6c-1.3,0.6-2.9,0.9-4.7,0.9h-4.1v5.6h-4.7V208H522.3z
	 M522,218.9c1.4,0,2.5-0.3,3.2-0.9c0.7-0.6,1.1-1.5,1.1-2.6c0-1.1-0.4-2-1.1-2.6c-0.7-0.6-1.8-0.9-3.2-0.9h-3.8v7H522z M552.9,228.3
	l0-12.2l-6,10h-2.1l-5.9-9.8v11.9h-4.4V208h3.9l7.6,12.6l7.5-12.6h3.9l0.1,20.3H552.9z M577.9,224.5v3.8h-15.7V208h15.3v3.8h-10.7
	v4.4h9.4v3.7h-9.4v4.7H577.9z M600.2,208v20.3h-3.9L586.3,216v12.3h-4.6V208h3.9l10.1,12.3V208H600.2z M609.3,211.8h-6.5V208h17.7
	v3.8H614v16.5h-4.7V211.8z M646.9,224.5v3.8h-15.7V208h15.3v3.8h-10.7v4.4h9.4v3.7h-9.4v4.7H646.9z M669.9,208l-8.8,20.3h-4.6
	l-8.8-20.3h5.1l6.2,14.5l6.3-14.5H669.9z M687.3,224.5v3.8h-15.7V208h15.3v3.8h-10.7v4.4h9.4v3.7h-9.4v4.7H687.3z M709.6,208v20.3
	h-3.9L695.7,216v12.3H691V208h3.9l10.1,12.3V208H709.6z M718.7,211.8h-6.5V208h17.7v3.8h-6.5v16.5h-4.7V211.8z M738.9,228.6
	c-1.6,0-3.2-0.2-4.7-0.6c-1.5-0.4-2.7-1-3.6-1.7l1.6-3.5c0.9,0.6,1.9,1.1,3.1,1.5c1.2,0.4,2.4,0.6,3.6,0.6c1.3,0,2.3-0.2,3-0.6
	c0.6-0.4,1-0.9,1-1.6c0-0.5-0.2-0.9-0.6-1.2c-0.4-0.3-0.8-0.6-1.5-0.8c-0.6-0.2-1.4-0.4-2.4-0.6c-1.5-0.4-2.8-0.7-3.8-1.1
	c-1-0.4-1.8-1-2.6-1.8c-0.7-0.8-1-1.9-1-3.2c0-1.2,0.3-2.2,1-3.2c0.6-1,1.6-1.7,2.9-2.3c1.3-0.6,2.9-0.8,4.7-0.8
	c1.3,0,2.6,0.2,3.8,0.5c1.2,0.3,2.3,0.8,3.2,1.3l-1.4,3.6c-1.9-1.1-3.8-1.6-5.6-1.6c-1.3,0-2.3,0.2-2.9,0.6c-0.6,0.4-0.9,1-0.9,1.7
	s0.4,1.2,1.1,1.6c0.7,0.3,1.8,0.7,3.3,1c1.5,0.4,2.8,0.7,3.8,1.1c1,0.4,1.8,0.9,2.5,1.7c0.7,0.8,1.1,1.9,1.1,3.2
	c0,1.2-0.3,2.2-1,3.2c-0.6,0.9-1.6,1.7-2.9,2.3C742.3,228.4,740.8,228.6,738.9,228.6z"/>
<path class="st18" d="M115.2,585c-2.2-0.3-4.6-0.2-6.7,0.7c-4.4,1.9-5.7,7.1-5.6,11.3c0.1,4.6,1,9.5-2.4,13.2
	c-1.6,1.7-3.6,3-5.1,4.7c-1.7,1.8-3,3.9-4,6.2c-1.8,4.2-2.7,9-1,13.4c1.4,3.8,5.1,7.3,4.3,11.7c-0.8,4.5-5.4,8-8.3,11.4
	c-3.2,3.8-6.2,8.7-6.7,13.8c-0.5,4.8,1.6,9.7,4.8,13.3c6.4,7.3,16.1,10.8,25.8,10.8c4.1,0,8.8-0.2,12.4-2.4c1.1-0.7,1.7-1.5,2.3-2.5
	c0.6-1,1.4-1.6,2.3-2.3c2-1.5,3.4-3.5,4.3-5.8c3.5-8.8,0.7-19.6-4.2-27.4c-1.2-1.8-2.1-3.6-1.6-5.8c0.6-2.3,2.1-4.4,3.3-6.3
	c1.3-1.9,2.7-3.8,3.7-5.9c1-2.2,1.3-4.5,1.2-6.9c-0.3-4.5-2.3-8.7-5.1-12.4c-2.7-3.5-5.8-6.9-5.8-11.5c0-4.9,3.3-9.2,1.9-14.2
	c-0.6-2.1-1.7-4.2-3.6-5.4C119.6,585.6,117.3,585.3,115.2,585z"/>
<path class="st19" d="M116.6,592.8c0-0.7-0.8-1-1.4-0.9c-0.8,0.2-0.8,1-0.8,1.6c0.1,2.1-0.2,4.1-0.7,6.1c-1,4.2-2.9,8-4.4,12
	c-1.5,4-2.2,8.1-1.3,12.3c0.8,4,2.1,7.9,3,11.8c0.8,3.5,1.6,7.2,0.4,10.7c-1.1,3.4-3.5,6.1-5.3,9.2c-3.6,6.3-5.2,13.3-5.5,20.5
	c-0.1,3.3,0,6.7,0.8,10c0.4,1.9,1,4.4,2.7,5.7c0.7,0.6,2,0.8,2.7-0.1c0.6-0.8,0.1-2.1-0.1-3c-0.8-3.9-1-7.8-0.8-11.7
	c0.2-3.8,0.6-7.6,1.8-11.2c1.1-3.4,2.8-6.4,4.8-9.3c2-3,4.1-6,4.9-9.5c0.8-3.6,0.2-7.3-0.8-10.8c-1-3.7-2.2-7.4-3.6-11
	c-1.3-3.5-1.7-6.9-1-10.6C113.4,607.3,117.1,600.4,116.6,592.8z"/>
<path class="st18" d="M56.2,593.9c-2.8,0.8-5.5,2.2-7.5,4.3c-4.2,4.5-2.9,11.3-0.6,16.3c2.5,5.4,6.3,10.8,4.1,16.9
	c-1,2.8-2.6,5.4-3.5,8.2c-1,3-1.4,6.2-1.4,9.4c0.1,5.8,1.7,12.1,5.9,16.4c3.7,3.8,9.8,6,11.2,11.6c1.4,5.8-2.1,12.3-3.7,17.8
	c-1.8,6.2-2.7,13.6-0.6,19.8c2,5.9,7,10.6,12.7,13.2c11.4,5.3,24.6,4.5,36-0.6c4.8-2.2,10.2-4.8,13.3-9.3c0.9-1.4,1.2-2.6,1.4-4.2
	c0.2-1.4,0.8-2.6,1.5-3.9c1.5-2.8,2.1-5.9,2-9.1c-0.5-12.2-9.5-23.5-19.4-30.2c-2.3-1.6-4.4-3.2-4.9-6.1c-0.5-3,0.1-6.2,0.6-9.2
	c0.5-3,1.2-5.9,1.3-8.9c0.1-3.2-0.8-6-2.3-8.8c-2.8-5.2-7.3-9.1-12.5-12c-5-2.8-10.4-5.1-12.9-10.5c-2.6-5.8-1.1-12.6-5.3-17.7
	c-1.8-2.1-4.2-4-7.1-4.5C61.8,592.3,58.8,593.1,56.2,593.9z"/>
<path class="st19" d="M61.9,603.4c-0.4-0.8-1.5-0.8-2.1-0.3c-0.8,0.7-0.4,1.6,0,2.4c1.2,2.4,1.9,4.9,2.3,7.6c1,5.5,0.8,11,1.1,16.5
	c0.3,5.5,1.7,10.8,4.9,15.3c3.1,4.3,6.6,8.2,9.7,12.5c2.7,3.8,5.6,7.7,6.1,12.5c0.5,4.6-0.9,9.1-1.4,13.6
	c-0.9,9.4,0.8,18.5,4.4,27.1c1.6,4,3.5,8,6.1,11.4c1.5,2,3.5,4.7,6.1,5.4c1.2,0.3,2.8-0.1,3.1-1.5c0.3-1.3-1-2.6-1.7-3.5
	c-3-4.1-5.2-8.7-7-13.5c-1.8-4.6-3.2-9.3-3.7-14.2c-0.5-4.6-0.1-9,0.7-13.5c0.8-4.6,1.7-9.3,0.8-13.9c-0.9-4.7-3.6-8.7-6.5-12.4
	c-3.1-3.9-6.5-7.6-9.9-11.2c-3.4-3.5-5.6-7.3-6.8-12C65.6,622.3,66.4,612.2,61.9,603.4z"/>
<path class="st19" d="M141.6,628.5c-4.6,0-8.6,2.4-11.4,5.9c-3.3,4-3.9,9-5.2,13.8c-0.7,2.4-1.8,4.8-3.8,6.4
	c-1.8,1.5-4.1,1.8-6.3,2.5c-4.3,1.4-7.8,4.9-9.2,9.2c-1.7,5.2,0.1,10.4-0.2,15.7c-0.3,4.8-5,7.8-8.9,10.2c-3.8,2.3-7.2,4.4-8.3,8.9
	c-1.2,4.7-1.6,10,0.1,14.6c2.8,7.8,10.9,11.2,18.8,11.7c7.1,0.5,16.1-0.3,21.5-5.5c3.2-3.1,4.4-7.4,4.2-11.8
	c-0.1-2.7-0.6-5.3-1.3-7.9c-0.5-1.8-1.1-3.7-1.3-5.6c-0.5-5.1,4.2-6,8.1-7.4c5.1-1.8,8.6-5.1,11.1-9.7c2.3-4.3,3.3-9.2,1.9-13.9
	c-0.7-2.4-2-4.6-3.7-6.5c-0.8-0.8-1.8-1.5-2.5-2.4c-0.6-0.8-0.5-1.9-0.3-2.8c1-4.4,4.2-8,5.3-12.4c1-3.9,0.4-8.9-3.2-11.4
	C145.5,629,143.5,628.5,141.6,628.5z"/>
<path class="st20" d="M135.4,639.9c-4.9,5.2-6.2,12.2-6.6,19c-0.2,3.8,0,7.9-1.1,11.6c-1,3.2-3.2,5.6-5.5,7.9
	c-4.7,4.6-9.9,9.3-11.3,16c-0.8,3.9-0.3,8-1.4,11.9c-1,3.5-2.8,7-4.9,10c-1.7,2.4-4,4.2-5.9,6.5c-0.6,0.7-1.4,1.7-1.2,2.7
	c0.3,1.1,1.7,1.5,2.7,1.3c2.4-0.4,4.4-2.7,5.9-4.3c2.3-2.4,4.2-5,5.8-7.9c1.7-3.2,3.1-6.7,3.7-10.3c0.6-3.8,0.3-7.7,1.7-11.3
	c2.4-6.1,8.2-9.7,12.4-14.4c5.2-5.9,4.4-13.2,3.9-20.5c-0.3-4-0.6-8.5,1.4-12.1c0.8-1.4,2.5-2.7,2.8-4.3
	C138.2,640.1,136.6,638.6,135.4,639.9z"/>
<path class="st21" d="M130.2,725.2c0,29.7-4.8,45.2-30.4,45.2c-25.6,0-30.4-15.5-30.4-45.2H130.2z"/>
<path class="st0" d="M1030.9,558.5c2.9-10,9.9-17.9,17.1-25.1c14-14,21.5-22.6,26.5-43.1c2.9-12,5.9-24.8,15.2-33.5
	c6.8-6.4,18.4-11.7,27.5-7.1c13.9,8.5,17.7,25.9,16.3,41.4c-1.7,19.3-10.6,31.2-27.6,38.3c-9.6,4-15.9,9.3-21.1,18.5
	c-4.2,7.4-6.6,16.6-11.8,23.2c-7.8,10-17.6,14.4-29.6,12.8c11.3-21.2,24.5-42.5,40.4-60.3c1.5-1.8,10.3-8.6,8.5-11.7
	c-1.9-3.4-11,9.3-10.9,9.2c-4.6,5.4-8.9,11.2-13.1,17c0,0,0,0,0,0c-4.3,6-8.6,12-12.8,18.1c-1.7,2.6-3.4,5.2-4.9,7.9
	c-2.3,3.9-6,15.1-9.8,17.5c-0.8,0.5-1.6,0.8-2.3,0.9c-2.6,4.3-5.1,8.7-7.5,13.1c-6.3,11.5-11.7,23.7-14.1,36.8
	c-0.7,3.8-0.2,18-2.8,20.8c-4.7,5-3.3-4.7-3-7.6c2.3-24.2,10.8-44.8,23.2-65.1C1030.2,575.4,1029.7,562.5,1030.9,558.5z"/>
<path class="st22" d="M1190.4,570.1c-4.9-5.9-16.7-6.9-23.9-6.5c-8.9,0.5-18.1,2.7-26.6,5.4c-14,4.4-27.6,12.5-39.9,20.3
	c-1.5,0.9-19.8,12.2-18.2,14.1c1.6,2,19.6-11.4,23.6-13.7c8.6-4.9,16.4-10.7,25.8-13.9c9.8-3.4,20.1-4.7,30.3-4.6
	c1.3,0,5.6-0.9,5.7,1.1c0.1,1.9-7,0.9-8.3,0.9c-5.2,0-10.4,0.5-15.5,1.5c-9.6,1.7-18.5,5.2-26.7,10.5c2.3,5.4,7.8,7.9,13.5,6.6
	c5-1.2,9.8-4.1,14.7-4.9c3.3-0.6,6.7-0.2,9.9,0.7c8.6,2.5,13.5,7.7,22.9,4.1C1185.1,588.8,1197.5,578.6,1190.4,570.1z"/>
<path class="st23" d="M1062.5,248.6c-17.9,0-32.3-7.7-32.3-17.1c0-9.5,14.5-17.1,32.3-17.1s32.4,7.7,32.4,17.1
	C1094.8,240.9,1080.3,248.6,1062.5,248.6z"/>
<path class="st24" d="M1024.8,243.3c0-21,16.9-38.1,37.7-38.1c20.8,0,37.7,17,37.7,38.1"/>
<path class="st24" d="M1060.6,89h3.8v121.8h-3.8V89z"/>
<g class="st25">
	<g class="st25">
		<path class="st26" d="M1003.5,210c-13.4,0-24.2-6.2-24.2-13.8c0-7.6,10.8-13.8,24.2-13.8c13.4,0,24.2,6.2,24.2,13.8
			C1027.7,203.8,1016.8,210,1003.5,210z"/>
		<path class="st27" d="M975.3,205.7c0-17,12.6-30.7,28.2-30.7c15.6,0,28.2,13.8,28.2,30.7"/>
	</g>
	<path class="st27" d="M1001.2,89h3.8v103.5h-3.8V89z"/>
</g>
</svg>
