<svg xmlns="http://www.w3.org/2000/svg" width="30" height="30" viewBox="0 0 30 30"><defs><style>.a{fill:#2d4453;}</style></defs><path class="a" d="M105.75,0a9.352,9.352,0,0,0-5.586,16.852v.781a2.756,2.756,0,0,0-.2,3.957,2.759,2.759,0,0,0,1.2,4.521,4.644,4.644,0,0,0,9.164,0,2.76,2.76,0,0,0,1.2-4.521,2.755,2.755,0,0,0-.2-3.957v-.781A9.352,9.352,0,0,0,105.75,0Zm3.766,18.7a1,1,0,0,1,0,2.008h-7.531a1,1,0,1,1,0-2.008Zm-3.766,9.539A2.892,2.892,0,0,1,103,26.234h5.5A2.892,2.892,0,0,1,105.75,28.242Zm3.766-3.766h-7.531a1,1,0,1,1,0-2.008h7.531a1,1,0,0,1,0,2.008Zm.452-8.81a.879.879,0,0,0-.39.73v.55l-.062,0h-1V13.481l1.262-1.262a.879.879,0,0,0-1.243-1.243l-1.52,1.52a.879.879,0,0,0-.257.621v3.828h-2.008V13.117a.879.879,0,0,0-.257-.621l-1.52-1.52a.879.879,0,1,0-1.243,1.243l1.262,1.262v3.464h-1.067V16.4a.879.879,0,0,0-.39-.73,7.594,7.594,0,1,1,8.437,0Zm0,0" transform="translate(-90.75)"/><path class="a" d="M3.641,145.481a.879.879,0,0,0-.879-.879H.879a.879.879,0,0,0,0,1.758H2.762A.879.879,0,0,0,3.641,145.481Zm0,0" transform="translate(0 -136.129)"/><path class="a" d="M452.629,144.6h-1.883a.879.879,0,1,0,0,1.758h1.883a.879.879,0,0,0,0-1.758Zm0,0" transform="translate(-423.508 -136.129)"/><path class="a" d="M34.355,249.149l-1.631.941a.879.879,0,1,0,.879,1.522l1.631-.941a.879.879,0,1,0-.879-1.523Zm0,0" transform="translate(-30.394 -234.44)"/><path class="a" d="M422.761,26.8a.875.875,0,0,0,.439-.118l1.631-.942a.879.879,0,0,0-.879-1.522l-1.631.941a.879.879,0,0,0,.44,1.64Zm0,0" transform="translate(-397.162 -22.687)"/><path class="a" d="M424.829,250.094l-1.631-.941a.879.879,0,1,0-.879,1.522l1.631.941a.879.879,0,0,0,.879-1.522Zm0,0" transform="translate(-397.161 -234.444)"/><path class="a" d="M35.237,25.159l-1.631-.941a.879.879,0,0,0-.879,1.522l1.631.941a.879.879,0,1,0,.879-1.523Zm0,0" transform="translate(-30.396 -22.688)"/></svg>