<svg xmlns="http://www.w3.org/2000/svg" width="16.293" height="18.538" viewBox="0 0 16.293 18.538"><defs><style>.a{fill:#fff;}</style></defs><g transform="translate(3.259)"><path class="a" d="M125.888,0a4.888,4.888,0,1,0,4.888,4.888A4.894,4.894,0,0,0,125.888,0Z" transform="translate(-121 0)"/></g><g transform="translate(0 10.862)"><path class="a" d="M45.228,302.107a6.968,6.968,0,0,0-5-2.107H38.06a6.968,6.968,0,0,0-5,2.107A7.123,7.123,0,0,0,31,307.133a.543.543,0,0,0,.543.543H46.75a.543.543,0,0,0,.543-.543A7.123,7.123,0,0,0,45.228,302.107Z" transform="translate(-31 -300)"/></g></svg>