<svg xmlns="http://www.w3.org/2000/svg" width="30.945" height="37.276" viewBox="0 0 45.945 52.276"><defs><style>.a{fill:#fff;}</style></defs><g transform="translate(9.189)"><path class="a" d="M134.784,0a13.784,13.784,0,1,0,13.784,13.784A13.8,13.8,0,0,0,134.784,0Z" transform="translate(-121 0)"/></g><g transform="translate(0 30.63)"><path class="a" d="M71.122,305.942A19.649,19.649,0,0,0,57.036,300H50.91a19.649,19.649,0,0,0-14.086,5.942A20.088,20.088,0,0,0,31,320.114a1.532,1.532,0,0,0,1.532,1.532H75.414a1.532,1.532,0,0,0,1.532-1.532A20.088,20.088,0,0,0,71.122,305.942Z" transform="translate(-31 -300)"/></g></svg>