<svg xmlns="http://www.w3.org/2000/svg" width="15.448" height="18.538" viewBox="0 0 15.448 18.538"><defs><style>.a{fill:#2d4453;}</style></defs><g transform="translate(0)"><path class="a" d="M58.068,15.636l-1.326-2.211a6.567,6.567,0,0,1-.936-3.379V8.11a5.414,5.414,0,0,0-3.862-5.179V1.545a1.545,1.545,0,0,0-3.09,0V2.931A5.414,5.414,0,0,0,44.992,8.11v1.936a6.571,6.571,0,0,1-.935,3.378L42.73,15.635a.387.387,0,0,0,.331.586H57.737a.386.386,0,0,0,.331-.585Z" transform="translate(-42.675)"/></g><g transform="translate(5.291 16.993)"><path class="a" d="M188.815,469.333a2.687,2.687,0,0,0,4.865,0Z" transform="translate(-188.815 -469.333)"/></g></svg>