<svg xmlns="http://www.w3.org/2000/svg" width="20.298" height="20.298" viewBox="0 0 29.298 29.298"><g transform="translate(0 9.396)"><path d="M17.9,166.257a6.644,6.644,0,0,0-1.147-.923,6.827,6.827,0,0,0-8.537.942L2,172.49a6.834,6.834,0,0,0,9.665,9.665l5.125-5.125a.488.488,0,0,0-.347-.835h-.2a8.216,8.216,0,0,1-3.124-.605.488.488,0,0,0-.532.107l-3.685,3.69a2.93,2.93,0,0,1-4.144-4.144l6.214-6.224A2.929,2.929,0,0,1,15.121,169l.017.017a2,2,0,0,0,2.763,0,1.959,1.959,0,0,0,0-2.763Zm-.712,2.088h0a1,1,0,0,1-1.381,0,3.905,3.905,0,0,0-5.521,0L4.076,174.56A3.906,3.906,0,0,0,9.6,180.081l3.461-3.466a9.1,9.1,0,0,0,2.25.513l-4.335,4.339a5.868,5.868,0,1,1-8.3-8.3l6.224-6.2a5.917,5.917,0,0,1,1.089-.874,5.931,5.931,0,0,1,6.219.083,5.664,5.664,0,0,1,.976.791A.976.976,0,0,1,17.189,168.345Z" transform="translate(0 -164.254)"/></g><g transform="translate(10.828 0)"><path d="M205.757,2a6.834,6.834,0,0,0-9.665,0l-5.121,5.121a.49.49,0,0,0,.356.835h.181a8.2,8.2,0,0,1,3.119.61.488.488,0,0,0,.532-.107l3.69-3.69a2.93,2.93,0,0,1,4.144,4.144l-4.579,4.569-.039.044-1.6,1.611a2.929,2.929,0,0,1-4.142.017l-.017-.017a2,2,0,0,0-2.763,0,1.959,1.959,0,0,0,0,2.763,6.776,6.776,0,0,0,1.953,1.367c.1.049.2.093.308.132s.2.083.312.117.21.073.312.1l.288.078c.2.049.391.088.591.122a6.8,6.8,0,0,0,.727.068h.713a1.467,1.467,0,0,0,.347-.029h.166l.337-.049.156-.029.283-.059h.054a6.833,6.833,0,0,0,3.168-1.8l6.185-6.258A6.834,6.834,0,0,0,205.757,2Zm-.678,8.987-6.224,6.2a5.858,5.858,0,0,1-2.738,1.547l-.254.049-.146.029-.278.039h-.166l-.278.024h-.615a5.556,5.556,0,0,1-.586-.059c-.166-.029-.337-.063-.488-.1l-.249-.068a.833.833,0,0,1-.264-.088c-.1-.039-.176-.063-.268-.1l-.264-.112a5.813,5.813,0,0,1-1.674-1.172.977.977,0,0,1,1.381-1.381,3.905,3.905,0,0,0,5.521,0l1.621-1.64.039-.044,4.54-4.535a3.9,3.9,0,0,0-5.527-5.509l0,0-3.466,3.466a9.134,9.134,0,0,0-2.241-.517l4.33-4.335a5.868,5.868,0,1,1,8.3,8.3Z" transform="translate(-189.288 0)"/></g></svg>