<svg xmlns="http://www.w3.org/2000/svg" width="30" height="30" viewBox="0 0 30 30"><path d="M15,0A15,15,0,1,0,30,15,15.017,15.017,0,0,0,15,0Zm0,28.75A13.75,13.75,0,1,1,28.75,15,13.766,13.766,0,0,1,15,28.75Z"/><path d="M161.651,149.516a.625.625,0,0,0-.884,0l-5.183,5.183-5.183-5.183a.625.625,0,0,0-.884.884l5.183,5.183-5.183,5.183a.625.625,0,1,0,.884.884l5.183-5.183,5.183,5.183a.625.625,0,0,0,.884-.884l-5.183-5.183,5.183-5.183A.625.625,0,0,0,161.651,149.516Z" transform="translate(-140.584 -140.583)"/></svg>