<svg xmlns="http://www.w3.org/2000/svg" width="21.824" height="20.078" viewBox="0 0 21.824 20.078"><path d="M18.824-1.332H3a3,3,0,0,0-3,3v9.683a3,3,0,0,0,2.99,3v4.394l6.315-4.394h9.519a3,3,0,0,0,3-3V1.668a3,3,0,0,0-3-3Zm1.722,12.684a1.724,1.724,0,0,1-1.722,1.722H8.9L4.269,16.3V13.073H3a1.724,1.724,0,0,1-1.722-1.722V1.668A1.723,1.723,0,0,1,3-.053H18.824a1.723,1.723,0,0,1,1.722,1.722Zm0,0" transform="translate(-0.001 1.332)"/><path d="M171.293,131.172h10.142v1.279H171.293Zm0,0" transform="translate(-165.452 -126.654)"/><path d="M171.293,211.172h10.142v1.279H171.293Zm0,0" transform="translate(-165.452 -203.926)"/><path d="M171.293,291.172h10.142v1.279H171.293Zm0,0" transform="translate(-165.452 -281.198)"/></svg>