<svg xmlns="http://www.w3.org/2000/svg" width="23.103" height="20.665" viewBox="0 0 23.103 20.665"><defs><style>.a{fill:none;stroke:#000;opacity:0.7;}</style></defs><path class="a" d="M20.35,1.924A5.944,5.944,0,0,0,15.929,0a5.56,5.56,0,0,0-3.473,1.2,7.105,7.105,0,0,0-1.4,1.466A7.1,7.1,0,0,0,9.648,1.2,5.56,5.56,0,0,0,6.175,0,5.944,5.944,0,0,0,1.754,1.924,6.909,6.909,0,0,0,0,6.643a8.227,8.227,0,0,0,2.192,5.385A46.747,46.747,0,0,0,7.68,17.179c.76.648,1.622,1.383,2.517,2.165a1.3,1.3,0,0,0,1.709,0c.895-.783,1.757-1.518,2.518-2.166a46.72,46.72,0,0,0,5.487-5.15A8.226,8.226,0,0,0,22.1,6.642,6.908,6.908,0,0,0,20.35,1.924Zm0,0" transform="translate(0.5 0.5)"/></svg>