<svg xmlns="http://www.w3.org/2000/svg" width="18.604" height="13.953" viewBox="0 0 18.604 13.953"><defs><style>.a{opacity:0.5;}.b{fill:#212121;}</style></defs><g class="a"><g transform="translate(0 0)"><path class="b" d="M17.054,64H1.55A1.552,1.552,0,0,0,0,65.55V76.4a1.552,1.552,0,0,0,1.55,1.55h15.5A1.552,1.552,0,0,0,18.6,76.4V65.55A1.552,1.552,0,0,0,17.054,64Zm-15.5.775h15.5a.738.738,0,0,1,.161.033c-1.342,1.228-5.793,5.3-7.35,6.7a.777.777,0,0,1-1.125,0c-1.557-1.4-6.008-5.475-7.35-6.7A.741.741,0,0,1,1.55,64.775ZM.775,76.4V65.55a.749.749,0,0,1,.043-.214c1.027.94,4.133,3.781,6.146,5.612C4.958,72.673,1.852,75.618.816,76.6A.747.747,0,0,1,.775,76.4Zm16.279.775H1.55a.742.742,0,0,1-.175-.035c1.07-1.02,4.2-3.982,6.168-5.669l.677.613a1.548,1.548,0,0,0,2.163,0l.677-.613c1.972,1.687,5.1,4.648,6.168,5.669A.741.741,0,0,1,17.054,77.178Zm.775-.775a.749.749,0,0,1-.041.2c-1.036-.988-4.142-3.933-6.149-5.656,2.014-1.831,5.119-4.672,6.146-5.612a.749.749,0,0,1,.043.214Z" transform="translate(0 -64)"/></g></g></svg>