<svg xmlns="http://www.w3.org/2000/svg" width="40.686" height="40.686" viewBox="0 0 40.686 40.686"><defs><style>.a{fill:#983300;}.b{fill:#d5681e;}.c{fill:#ff4f67;}.d{fill:#ff6e7a;}.e{fill:#ff0f4d;}.f{fill:#ffabb2;}.g{fill:#ff8e00;}.h{fill:#ffba00;}.i{fill:#fde09c;}</style></defs><path class="a" d="M257.106,0H236.763L235.1,7.767h22Z" transform="translate(-216.42)"/><rect class="b" width="20.343" height="7.766"/><path class="c" d="M243.844,59.778l-1.661-6.445h-5.42L235.1,59.778l1.661,6.445h5.42Z" transform="translate(-216.42 -49.095)"/><path class="d" d="M168.553,53.333l-1.661,6.445,1.661,6.445h5.42V53.333Z" transform="translate(-153.63 -49.095)"/><path class="e" d="M324.21,53.333v12.89h4.345l6.5-5.2V53.333Z" transform="translate(-298.447 -49.095)"/><path class="f" d="M51.368,53.333v7.689l6.5,5.2h4.345V53.333Z" transform="translate(-47.286 -49.095)"/><path class="g" d="M236.763,164.6,235.1,178.4l1.661,13.8a13.8,13.8,0,0,0,0-27.607Z" transform="translate(-216.42 -151.515)"/><g transform="translate(6.54 13.08)"><path class="h" d="M82.3,178.4a13.8,13.8,0,0,0,13.8,13.8V164.6A13.8,13.8,0,0,0,82.3,178.4Z" transform="translate(-82.298 -164.595)"/><path class="h" d="M236.763,213.1l-1.661,9.949L236.763,233a9.949,9.949,0,0,0,0-19.9Z" transform="translate(-222.959 -209.248)"/></g><path class="i" d="M130.806,223.052A9.96,9.96,0,0,0,140.755,233V213.1A9.96,9.96,0,0,0,130.806,223.052Z" transform="translate(-120.411 -196.169)"/><path class="g" d="M242.395,268.451l-3.892-.565-1.74-3.527-1.661,5.875,1.661,3.008,3.481,1.83-.665-3.876Z" transform="translate(-216.42 -243.352)"/><path class="h" d="M189.016,267.886l-3.892.565,2.816,2.745-.665,3.876,3.481-1.83v-8.883Z" transform="translate(-170.413 -243.352)"/></svg>