<svg xmlns="http://www.w3.org/2000/svg" width="18.35" height="20.971" viewBox="0 0 18.35 20.971"><defs><style>.a{opacity:0.55;}.b{fill:#212121;}</style></defs><g class="a"><g transform="translate(0)"><ellipse class="b" cx="0.5" cy="1" rx="0.5" ry="1" transform="translate(13.52 13)"/><path class="b" d="M49.53,14.827a.819.819,0,0,0,.819-.819V10.977A3.28,3.28,0,0,0,47.073,7.7h-.985V4.811a4.916,4.916,0,0,0-9.83,0V7.7h-.981A3.28,3.28,0,0,0,32,10.977v6.717a3.28,3.28,0,0,0,3.277,3.277h11.8a3.28,3.28,0,0,0,3.277-3.277.819.819,0,1,0-1.638,0,1.64,1.64,0,0,1-1.638,1.638h-11.8a1.64,1.64,0,0,1-1.638-1.638V10.977a1.64,1.64,0,0,1,1.638-1.638h11.8a1.64,1.64,0,0,1,1.638,1.638v3.031A.819.819,0,0,0,49.53,14.827ZM44.45,7.7H37.9V4.811a3.278,3.278,0,0,1,6.553,0Z" transform="translate(-32)"/><circle class="b" cx="1" cy="1" r="1" transform="translate(6.52 13)"/><ellipse class="b" cx="0.5" cy="1" rx="0.5" ry="1" transform="translate(4.52 13)"/><circle class="b" cx="1" cy="1" r="1" transform="translate(9.52 13)"/></g></g></svg>