<svg xmlns="http://www.w3.org/2000/svg" width="18.332" height="18.332" viewBox="0 0 18.332 18.332"><defs><style>.a{opacity:0.7;}</style></defs><g class="a" transform="translate(0 -0.002)"><g transform="translate(0 0.002)"><path d="M17.844,2.977l-2.5-2.5a1.7,1.7,0,0,0-2.358,0L1.787,11.786a.419.419,0,0,0-.1.179L.016,17.8a.417.417,0,0,0,.515.516L6.364,16.65a.418.418,0,0,0,.179-.105l11.3-11.21a1.668,1.668,0,0,0,0-2.359Zm-6.673.53L12.7,5.041,4.7,13.048,4.122,11.9a.417.417,0,0,0-.373-.23H3.082ZM1.023,17.311l.543-1.9,1.357,1.357Zm4.81-1.374-1.993.569L1.828,14.495,2.4,12.5H3.492l.718,1.436a.417.417,0,0,0,.186.186l1.436.718v1.095Zm.833-.685v-.667a.417.417,0,0,0-.23-.373l-1.15-.575L13.293,5.63l1.534,1.534Zm10.59-10.5L15.419,6.577,11.757,2.915l1.819-1.836a.853.853,0,0,1,1.178,0l2.5,2.5a.833.833,0,0,1,0,1.177Z" transform="translate(0 -0.002)"/></g></g></svg>