<svg xmlns="http://www.w3.org/2000/svg" width="20.081" height="20.081" viewBox="0 0 20.081 20.081"><defs><style>.a{opacity:0.7;}</style></defs><g class="a"><g transform="translate(7.047)"><path d="M189.781,2.941A10.056,10.056,0,0,0,179.925.383a.327.327,0,1,0,.179.628,9.389,9.389,0,0,1,7.013,17.3.327.327,0,1,0,.309.576,10.042,10.042,0,0,0,2.354-15.95Z" transform="translate(-179.688)"/></g><g transform="translate(2.688 2.688)"><path d="M80.148,70.032a.327.327,0,0,0-.142-.239A7.354,7.354,0,0,0,69.794,80a.327.327,0,0,0,.239.142h.031a.327.327,0,0,0,.231-.1l9.758-9.758A.327.327,0,0,0,80.148,70.032ZM70.121,79.3A6.7,6.7,0,0,1,79.3,70.119Z" transform="translate(-68.53 -68.528)"/></g><g transform="translate(0 0.874)"><path d="M13.657,40.468a.327.327,0,0,0-.418-.2A9.389,9.389,0,0,1,6.146,22.9a.327.327,0,0,0-.271-.594,10.043,10.043,0,0,0,7.587,18.58A.327.327,0,0,0,13.657,40.468Z" transform="translate(-0.001 -22.277)"/></g><g transform="translate(5.774 5.774)"><path d="M157.579,147.368a.327.327,0,0,0-.5-.048l-9.758,9.758a.327.327,0,0,0,.048.5,7.354,7.354,0,0,0,10.212-10.212ZM151.49,158.19a6.664,6.664,0,0,1-3.421-.938l9.182-9.182a6.7,6.7,0,0,1-5.762,10.12Z" transform="translate(-147.224 -147.224)"/></g></g></svg>