<svg xmlns="http://www.w3.org/2000/svg" width="22.687" height="22.686" viewBox="0 0 22.687 22.686"><defs><style>.a{fill:#6e6e6e;}</style></defs><path class="a" d="M22.022,1.637H19.111q.016-.484.016-.973A.665.665,0,0,0,18.462,0H4.224A.665.665,0,0,0,3.56.665q0,.489.016.973H.665A.665.665,0,0,0,0,2.3a14.406,14.406,0,0,0,2.192,7.912,6.935,6.935,0,0,0,5.268,3.421A6.826,6.826,0,0,0,8.9,14.844V17.8H7.784a2.447,2.447,0,0,0-2.444,2.444v1.115H5.292a.665.665,0,1,0,0,1.329h12.1a.665.665,0,1,0,0-1.329h-.047V20.242A2.447,2.447,0,0,0,14.9,17.8H13.788V14.844a6.825,6.825,0,0,0,1.439-1.209,6.935,6.935,0,0,0,5.268-3.421A14.405,14.405,0,0,0,22.687,2.3.665.665,0,0,0,22.022,1.637ZM3.3,9.477A12.81,12.81,0,0,1,1.343,2.967H3.65A22.211,22.211,0,0,0,5.715,11.03q.266.532.555,1A6.41,6.41,0,0,1,3.3,9.477Zm16.09,0a6.41,6.41,0,0,1-2.972,2.557q.289-.473.555-1a22.214,22.214,0,0,0,2.065-8.063h2.307A12.81,12.81,0,0,1,19.388,9.477Zm0,0" transform="translate(0 0)"/></svg>