<svg xmlns="http://www.w3.org/2000/svg" width="14.456" height="20.834" viewBox="0 0 14.456 20.834"><defs><style>.a{opacity:0.7;}</style></defs><g class="a" transform="translate(-0.004 0)"><path d="M13.185,2.126h-3.4v-.85A1.277,1.277,0,0,0,8.508,0H5.957A1.277,1.277,0,0,0,4.681,1.275v.85H1.28A1.277,1.277,0,0,0,0,3.4V5.527h.85V19.558A1.277,1.277,0,0,0,2.13,20.834h10.2a1.277,1.277,0,0,0,1.276-1.276V5.527h.85V3.4a1.277,1.277,0,0,0-1.276-1.276Zm-7.653-.85A.426.426,0,0,1,5.957.85H8.508a.426.426,0,0,1,.425.425v.85h-3.4ZM12.76,19.558a.425.425,0,0,1-.425.425H2.13a.425.425,0,0,1-.425-.425V5.527H12.76Zm.85-14.882H.855V3.4a.426.426,0,0,1,.425-.425H13.185a.426.426,0,0,1,.425.425Zm0,0" transform="translate(0 0)"/><path d="M201.57,174.775a.425.425,0,0,0,.425-.425V165a.425.425,0,1,0-.85,0v9.354A.425.425,0,0,0,201.57,174.775Zm0,0" transform="translate(-191.786 -156.918)"/><path d="M146.714,174.775a.425.425,0,0,0,.425-.425V165a.425.425,0,1,0-.85,0v9.354A.425.425,0,0,0,146.714,174.775Zm0,0" transform="translate(-139.482 -156.918)"/><path d="M91.855,174.775a.425.425,0,0,0,.425-.425V165a.425.425,0,1,0-.85,0v9.354A.425.425,0,0,0,91.855,174.775Zm0,0" transform="translate(-87.174 -156.918)"/></g></svg>